<svg xmlns="http://www.w3.org/2000/svg" xmlns:xlink="http://www.w3.org/1999/xlink" width="384.748" height="113.885" viewBox="0 0 384.748 113.885">
  <defs>
    <clipPath id="clip-path">
      <rect width="384.748" height="113.885" fill="none"/>
    </clipPath>
  </defs>
  <g id="Repeat_Grid_1" data-name="Repeat Grid 1" clip-path="url(#clip-path)">
    <g id="Group_49" data-name="Group 49">
      <path id="Path_16340" data-name="Path 16340" d="M1245.448,134.885H887.865c-7.431,0-13.865-6.007-13.865-13.433V34.411C874,26.985,880.434,21,887.865,21h357.583a13.293,13.293,0,0,1,13.3,13.411v87.042a13.313,13.313,0,0,1-13.3,13.433Z" transform="translate(-874 -21)" fill="#040505"/>
      <path id="Path_16341" data-name="Path 16341" d="M1257.253,122.2a10.914,10.914,0,0,1-10.927,10.915H888.741A10.929,10.929,0,0,1,877.8,122.2V35.152a10.942,10.942,0,0,1,10.941-10.929h357.583a10.926,10.926,0,0,1,10.927,10.929V122.2Z" transform="translate(-874.876 -21.743)" fill="#040505"/>
      <g id="Group_45" data-name="Group 45" transform="translate(36.845 17.661)">
        <g id="Group_44" data-name="Group 44">
          <path id="Path_16342" data-name="Path 16342" d="M971.288,87.87c-.083-9.185,7.521-13.655,7.869-13.863a16.912,16.912,0,0,0-13.326-7.2c-5.607-.589-11.042,3.355-13.9,3.355-2.913,0-7.312-3.3-12.048-3.2a17.747,17.747,0,0,0-14.935,9.109c-6.457,11.18-1.641,27.61,4.545,36.647,3.095,4.425,6.712,9.369,11.444,9.193,4.632-.192,6.361-2.953,11.951-2.953,5.539,0,7.162,2.953,11.99,2.842,4.969-.081,8.1-4.445,11.087-8.912a36.6,36.6,0,0,0,5.069-10.326A15.968,15.968,0,0,1,971.288,87.87Z" transform="translate(-921.882 -49.205)" fill="#fff"/>
          <path id="Path_16343" data-name="Path 16343" d="M970.973,55.606a16.27,16.27,0,0,0,3.721-11.655,16.554,16.554,0,0,0-10.71,5.541c-2.3,2.685-4.348,7.086-3.819,11.223C964.216,61.016,968.374,58.673,970.973,55.606Z" transform="translate(-930.687 -43.951)" fill="#fff"/>
        </g>
      </g>
      <g id="Group_46" data-name="Group 46" transform="translate(121.257 51.238)">
        <path id="Path_16344" data-name="Path 16344" d="M1063.6,126.246h-6.471l-3.546-11.142h-12.323l-3.377,11.142h-6.3l12.21-37.926h7.541Zm-11.085-15.814-3.208-9.9q-.507-1.52-1.913-7.146h-.113q-.561,2.422-1.8,7.146l-3.15,9.9Z" transform="translate(-1031.58 -87.756)" fill="#fff"/>
        <path id="Path_16345" data-name="Path 16345" d="M1106.1,115.236q0,6.975-3.77,11.027a11.026,11.026,0,0,1-8.384,3.6q-5.4,0-7.765-3.883h-.113v14.407H1080V110.9q0-4.387-.225-9h5.345l.339,4.334h.112a10.814,10.814,0,0,1,17.3-1.072Q1106.1,108.994,1106.1,115.236Zm-6.19.222a11.263,11.263,0,0,0-1.8-6.582,6.221,6.221,0,0,0-5.29-2.7,6.315,6.315,0,0,0-4.079,1.491,6.915,6.915,0,0,0-2.391,3.914,7.978,7.978,0,0,0-.282,1.854v4.559a7.305,7.305,0,0,0,1.829,5.038,6.069,6.069,0,0,0,4.755,2.054,6.221,6.221,0,0,0,5.345-2.644A11.657,11.657,0,0,0,1099.915,115.459Z" transform="translate(-1042.688 -90.756)" fill="#fff"/>
        <path id="Path_16346" data-name="Path 16346" d="M1146.982,115.236q0,6.975-3.774,11.027a11.017,11.017,0,0,1-8.383,3.6q-5.4,0-7.764-3.883h-.112v14.407h-6.077V110.9q0-4.387-.226-9h5.345l.339,4.334h.112a10.815,10.815,0,0,1,17.3-1.072Q1146.98,108.994,1146.982,115.236Zm-6.19.222a11.254,11.254,0,0,0-1.8-6.582,6.215,6.215,0,0,0-5.288-2.7,6.312,6.312,0,0,0-4.08,1.491,6.924,6.924,0,0,0-2.389,3.914,8.017,8.017,0,0,0-.282,1.854v4.559a7.323,7.323,0,0,0,1.824,5.038,6.075,6.075,0,0,0,4.759,2.054,6.221,6.221,0,0,0,5.344-2.644A11.662,11.662,0,0,0,1140.793,115.459Z" transform="translate(-1052.11 -90.756)" fill="#fff"/>
        <path id="Path_16347" data-name="Path 16347" d="M1193.526,115.443a10.106,10.106,0,0,1-3.367,7.877q-3.708,3.323-10.331,3.32-6.12,0-9.83-2.363l1.408-5.066a16.64,16.64,0,0,0,8.784,2.422,8.3,8.3,0,0,0,5.349-1.551,5.061,5.061,0,0,0,1.909-4.144,5.284,5.284,0,0,0-1.575-3.888,14.681,14.681,0,0,0-5.233-2.933q-9.961-3.716-9.958-10.877a9.633,9.633,0,0,1,3.49-7.665q3.482-2.987,9.285-2.988a18.415,18.415,0,0,1,8.606,1.8l-1.52,4.953a14.932,14.932,0,0,0-7.259-1.745,7.333,7.333,0,0,0-5,1.577,4.5,4.5,0,0,0-1.52,3.433,4.632,4.632,0,0,0,1.742,3.713,19.684,19.684,0,0,0,5.516,2.928,18.735,18.735,0,0,1,7.2,4.612A9.675,9.675,0,0,1,1193.526,115.443Z" transform="translate(-1063.486 -87.587)" fill="#fff"/>
        <path id="Path_16348" data-name="Path 16348" d="M1221.692,104.587H1215v13.278q0,5.065,3.546,5.066a10.913,10.913,0,0,0,2.7-.281l.167,4.614a13.729,13.729,0,0,1-4.725.674,7.291,7.291,0,0,1-5.628-2.194q-2.02-2.2-2.026-7.373V104.587h-3.991v-4.559h3.991V95.019l5.967-1.8v6.809h6.7Z" transform="translate(-1071.562 -88.885)" fill="#fff"/>
        <path id="Path_16349" data-name="Path 16349" d="M1257.93,115.347a15,15,0,0,1-3.6,10.354,12.862,12.862,0,0,1-10.02,4.164,12.224,12.224,0,0,1-9.59-3.994,14.545,14.545,0,0,1-3.573-10.073,14.854,14.854,0,0,1,3.684-10.409,12.754,12.754,0,0,1,9.93-4.052,12.49,12.49,0,0,1,9.68,4A14.4,14.4,0,0,1,1257.93,115.347Zm-6.307.2a12.318,12.318,0,0,0-1.63-6.491,6.007,6.007,0,0,0-5.455-3.273,6.091,6.091,0,0,0-5.572,3.273,12.545,12.545,0,0,0-1.631,6.6,12.3,12.3,0,0,0,1.631,6.488,6.209,6.209,0,0,0,10.971-.055A12.329,12.329,0,0,0,1251.623,115.545Z" transform="translate(-1077.58 -90.756)" fill="#fff"/>
        <path id="Path_16350" data-name="Path 16350" d="M1287.235,107.243a10.508,10.508,0,0,0-1.915-.167,5.748,5.748,0,0,0-4.954,2.421,9.1,9.1,0,0,0-1.52,5.4v14.35h-6.072l.055-18.736q0-4.73-.229-8.611h5.294l.222,5.233h.167a9.336,9.336,0,0,1,3.039-4.331,7.35,7.35,0,0,1,4.392-1.464,9.634,9.634,0,0,1,1.52.111Z" transform="translate(-1087.136 -90.756)" fill="#fff"/>
        <path id="Path_16351" data-name="Path 16351" d="M1319.652,114.262a14.319,14.319,0,0,1-.222,2.755H1301.2a7.939,7.939,0,0,0,2.644,6.193,9.03,9.03,0,0,0,5.962,1.912,20.186,20.186,0,0,0,7.376-1.294l.951,4.219a22.829,22.829,0,0,1-9.167,1.689q-6.363,0-9.992-3.743t-3.63-10.045a15.669,15.669,0,0,1,3.379-10.3,11.643,11.643,0,0,1,9.563-4.387q5.911,0,8.951,4.387A14.787,14.787,0,0,1,1319.652,114.262Zm-5.794-1.576a8.261,8.261,0,0,0-1.18-4.67,5.308,5.308,0,0,0-4.843-2.532,5.764,5.764,0,0,0-4.837,2.477,9.036,9.036,0,0,0-1.8,4.725Z" transform="translate(-1092.378 -90.74)" fill="#fff"/>
      </g>
      <g id="Group_48" data-name="Group 48" transform="translate(124.865 18.626)">
        <g id="Group_47" data-name="Group 47">
          <path id="Path_16352" data-name="Path 16352" d="M1051.584,55.3q0,5.033-3.015,7.576-2.792,2.348-7.932,2.349a37.076,37.076,0,0,1-4.369-.221V46.671a32.085,32.085,0,0,1,5.143-.387q4.893,0,7.381,2.129A8.6,8.6,0,0,1,1051.584,55.3Zm-3.151.083a6.073,6.073,0,0,0-6.774-6.745,12.777,12.777,0,0,0-2.406.194V62.76a15.926,15.926,0,0,0,2.018.083,7.069,7.069,0,0,0,5.293-1.908A7.63,7.63,0,0,0,1048.433,55.379Z" transform="translate(-1036.268 -45.454)" fill="#fff"/>
          <path id="Path_16353" data-name="Path 16353" d="M1073.927,59.742a7.363,7.363,0,0,1-1.77,5.086,6.314,6.314,0,0,1-4.921,2.047,6.012,6.012,0,0,1-4.715-1.963,7.151,7.151,0,0,1-1.753-4.949,7.3,7.3,0,0,1,1.809-5.114,6.265,6.265,0,0,1,4.879-1.99,6.145,6.145,0,0,1,4.756,1.961A7.091,7.091,0,0,1,1073.927,59.742Zm-3.1.1a6.07,6.07,0,0,0-.8-3.189,2.949,2.949,0,0,0-2.68-1.608,2.994,2.994,0,0,0-2.739,1.608,6.18,6.18,0,0,0-.8,3.243,6.07,6.07,0,0,0,.8,3.19,3.051,3.051,0,0,0,5.391-.028A6.041,6.041,0,0,0,1070.83,59.84Z" transform="translate(-1041.916 -46.97)" fill="#fff"/>
          <path id="Path_16354" data-name="Path 16354" d="M1101.137,53.218l-4.2,13.435H1094.2l-1.742-5.834a43.088,43.088,0,0,1-1.08-4.34h-.053a31.657,31.657,0,0,1-1.08,4.34l-1.851,5.834h-2.767l-3.952-13.435h3.07l1.52,6.386q.551,2.266.913,4.312h.053q.334-1.684,1.107-4.285l1.907-6.414h2.432l1.825,6.276q.665,2.293,1.077,4.422h.084a42,42,0,0,1,.912-4.422l1.631-6.276Z" transform="translate(-1046.734 -47.053)" fill="#fff"/>
          <path id="Path_16355" data-name="Path 16355" d="M1123.561,66.571h-2.986V58.877q0-3.556-2.708-3.557a2.693,2.693,0,0,0-2.157.978,3.457,3.457,0,0,0-.829,2.3v7.97h-2.986V56.979q0-1.771-.109-3.844h2.625l.138,2.1h.084a4.3,4.3,0,0,1,1.547-1.621,5.039,5.039,0,0,1,2.708-.754,4.288,4.288,0,0,1,3.126,1.216,5.908,5.908,0,0,1,1.547,4.451Z" transform="translate(-1053.675 -46.97)" fill="#fff"/>
          <path id="Path_16356" data-name="Path 16356" d="M1136.9,64.807h-2.983v-19.6h2.983Z" transform="translate(-1058.776 -45.206)" fill="#fff"/>
          <path id="Path_16357" data-name="Path 16357" d="M1156.7,59.742a7.364,7.364,0,0,1-1.771,5.086,6.317,6.317,0,0,1-4.92,2.047,6,6,0,0,1-4.715-1.963,7.152,7.152,0,0,1-1.754-4.949,7.3,7.3,0,0,1,1.809-5.114,6.265,6.265,0,0,1,4.876-1.99,6.152,6.152,0,0,1,4.759,1.961A7.1,7.1,0,0,1,1156.7,59.742Zm-3.1.1a6.069,6.069,0,0,0-.8-3.189,2.945,2.945,0,0,0-2.678-1.608,2.988,2.988,0,0,0-2.739,1.608,6.179,6.179,0,0,0-.8,3.243,6.069,6.069,0,0,0,.8,3.19,3.014,3.014,0,0,0,2.711,1.607,2.983,2.983,0,0,0,2.678-1.635A6.019,6.019,0,0,0,1153.6,59.84Z" transform="translate(-1060.995 -46.97)" fill="#fff"/>
          <path id="Path_16358" data-name="Path 16358" d="M1176.125,66.571h-2.683l-.222-1.547h-.083a4.6,4.6,0,0,1-3.924,1.852,4.045,4.045,0,0,1-3.067-1.217,3.813,3.813,0,0,1-1.052-2.736,4.179,4.179,0,0,1,2.059-3.76,10.725,10.725,0,0,1,5.794-1.272v-.249q0-2.652-2.789-2.653a6.232,6.232,0,0,0-3.5.995l-.606-1.962a8.592,8.592,0,0,1,4.609-1.16q5.269,0,5.272,5.557v4.948A21.045,21.045,0,0,0,1176.125,66.571Zm-3.1-4.617V59.882q-4.944-.083-4.943,2.708a2.027,2.027,0,0,0,.573,1.577,2.091,2.091,0,0,0,1.458.525,3,3,0,0,0,1.826-.622,2.542,2.542,0,0,0,1.036-1.59A2.422,2.422,0,0,0,1173.025,61.954Z" transform="translate(-1065.963 -46.97)" fill="#fff"/>
          <path id="Path_16359" data-name="Path 16359" d="M1197.644,64.807h-2.649l-.14-2.157h-.083a4.465,4.465,0,0,1-4.314,2.462,5.052,5.052,0,0,1-4.035-1.908,7.431,7.431,0,0,1-1.6-4.949,7.783,7.783,0,0,1,1.742-5.28,5.351,5.351,0,0,1,4.148-1.88,4.029,4.029,0,0,1,3.784,1.824h.056V45.206h2.989v15.98Q1197.538,63.148,1197.644,64.807Zm-3.095-5.667V56.9a4.245,4.245,0,0,0-.084-.94,3.393,3.393,0,0,0-1.079-1.811,2.931,2.931,0,0,0-2-.733,3.066,3.066,0,0,0-2.627,1.327,5.7,5.7,0,0,0-.958,3.4,5.312,5.312,0,0,0,.919,3.236,3.074,3.074,0,0,0,2.611,1.326,2.884,2.884,0,0,0,2.36-1.1A3.7,3.7,0,0,0,1194.549,59.14Z" transform="translate(-1070.509 -45.206)" fill="#fff"/>
          <path id="Path_16360" data-name="Path 16360" d="M1230.74,59.742a7.363,7.363,0,0,1-1.771,5.086,6.309,6.309,0,0,1-4.92,2.047,6.019,6.019,0,0,1-4.715-1.963,7.148,7.148,0,0,1-1.754-4.949,7.3,7.3,0,0,1,1.809-5.114,6.269,6.269,0,0,1,4.882-1.99,6.14,6.14,0,0,1,4.754,1.961A7.091,7.091,0,0,1,1230.74,59.742Zm-3.095.1a6.064,6.064,0,0,0-.8-3.189,2.953,2.953,0,0,0-2.683-1.608,3,3,0,0,0-2.739,1.608,6.18,6.18,0,0,0-.8,3.243,6.07,6.07,0,0,0,.8,3.19,3.054,3.054,0,0,0,5.394-.028A6.069,6.069,0,0,0,1227.645,59.84Z" transform="translate(-1078.061 -46.97)" fill="#fff"/>
          <path id="Path_16361" data-name="Path 16361" d="M1252.025,66.571h-2.983V58.877q0-3.556-2.711-3.557a2.684,2.684,0,0,0-2.154.978,3.457,3.457,0,0,0-.83,2.3v7.97h-2.99V56.979q0-1.771-.105-3.844h2.622l.139,2.1h.083a4.352,4.352,0,0,1,1.547-1.621,5.048,5.048,0,0,1,2.711-.754,4.285,4.285,0,0,1,3.123,1.216,5.9,5.9,0,0,1,1.547,4.451Z" transform="translate(-1083.287 -46.97)" fill="#fff"/>
          <path id="Path_16362" data-name="Path 16362" d="M1279.221,54.455h-3.29V60.98c0,1.659.585,2.489,1.743,2.489a5.306,5.306,0,0,0,1.33-.139l.078,2.267a6.75,6.75,0,0,1-2.322.332A3.569,3.569,0,0,1,1274,64.851a5.264,5.264,0,0,1-1-3.621V54.455h-1.965V52.216H1273V49.755l2.928-.883v3.344h3.29Z" transform="translate(-1090.383 -46.051)" fill="#fff"/>
          <path id="Path_16363" data-name="Path 16363" d="M1298.729,64.807h-2.99V57.169q0-3.614-2.705-3.613a2.85,2.85,0,0,0-2.85,2.1,3.732,3.732,0,0,0-.139,1.076v8.08h-2.984v-19.6h2.984v8.1h.055a4.516,4.516,0,0,1,4.036-2.208,4.171,4.171,0,0,1,3.073,1.216,6.118,6.118,0,0,1,1.52,4.506Z" transform="translate(-1094.077 -45.206)" fill="#fff"/>
          <path id="Path_16364" data-name="Path 16364" d="M1319.842,59.209a7.152,7.152,0,0,1-.111,1.354h-8.956a3.912,3.912,0,0,0,1.3,3.04,4.447,4.447,0,0,0,2.934.941,9.928,9.928,0,0,0,3.624-.636l.467,2.073a11.251,11.251,0,0,1-4.508.83,6.506,6.506,0,0,1-4.9-1.838,6.776,6.776,0,0,1-1.781-4.935,7.692,7.692,0,0,1,1.659-5.059,5.712,5.712,0,0,1,4.7-2.156,5,5,0,0,1,4.392,2.156A7.223,7.223,0,0,1,1319.842,59.209Zm-2.849-.773a4.017,4.017,0,0,0-.579-2.295,2.606,2.606,0,0,0-2.377-1.244,2.836,2.836,0,0,0-2.377,1.217,4.5,4.5,0,0,0-.885,2.322Z" transform="translate(-1098.88 -46.962)" fill="#fff"/>
        </g>
      </g>
    </g>
  </g>
</svg>
