<svg id="Group_43" data-name="Group 43" xmlns="http://www.w3.org/2000/svg" xmlns:xlink="http://www.w3.org/1999/xlink" width="384.748" height="113.885" viewBox="0 0 384.748 113.885">
  <defs>
    <clipPath id="clip-path">
      <path id="Path_16315" data-name="Path 16315" d="M391.336,71.974l-15.7-9.063-30.28-17.485c-1.682-.97-3.357-.382-3.357,1.646v71.233c0,1.521,1.2,2.177,2.658,1.334s30.979-17.888,30.979-17.888l15.7-9.062,15.09-8.711c1.771-1.023,1.6-2.425.106-3.23S391.336,71.974,391.336,71.974Z" transform="translate(-342 -44.969)" fill="none"/>
    </clipPath>
    <linearGradient id="linear-gradient" x1="0.5" x2="0.5" y2="1" gradientUnits="objectBoundingBox">
      <stop offset="0" stop-color="#006aa2"/>
      <stop offset="0.345" stop-color="#2f8da6"/>
      <stop offset="0.786" stop-color="#66b6ac"/>
      <stop offset="1" stop-color="#7cc6af"/>
    </linearGradient>
    <linearGradient id="linear-gradient-2" y1="0.5" x2="1" y2="0.5" gradientUnits="objectBoundingBox">
      <stop offset="0" stop-color="#4ab59d"/>
      <stop offset="1" stop-color="#dfe385"/>
    </linearGradient>
    <linearGradient id="linear-gradient-3" x1="0.5" x2="0.5" y2="1" gradientUnits="objectBoundingBox">
      <stop offset="0" stop-color="#e4282d"/>
      <stop offset="0.316" stop-color="#ba2d4e"/>
      <stop offset="0.777" stop-color="#83357b"/>
      <stop offset="1" stop-color="#6e388d"/>
    </linearGradient>
    <linearGradient id="linear-gradient-4" x1="0.5" x2="0.5" y2="1" gradientUnits="objectBoundingBox">
      <stop offset="0" stop-color="#f07165"/>
      <stop offset="0.659" stop-color="#faa460"/>
      <stop offset="1" stop-color="#ffba5e"/>
    </linearGradient>
  </defs>
  <g id="Group_37" data-name="Group 37" transform="translate(0 0)">
    <path id="Path_16309" data-name="Path 16309" d="M674.448,134.885H316.865c-7.431,0-13.865-6.007-13.865-13.433V34.411C303,26.985,309.434,21,316.865,21H674.448a13.293,13.293,0,0,1,13.3,13.411v87.042a13.313,13.313,0,0,1-13.3,13.433Z" transform="translate(-303 -21)" fill="#040505"/>
    <path id="Path_16310" data-name="Path 16310" d="M686.253,122.2a10.914,10.914,0,0,1-10.927,10.915H317.741A10.929,10.929,0,0,1,306.8,122.2V35.152a10.942,10.942,0,0,1,10.941-10.929H675.324a10.926,10.926,0,0,1,10.927,10.929V122.2Z" transform="translate(-303.876 -21.743)" fill="#040505"/>
  </g>
  <g id="PLAY" transform="translate(30.01 18.444)">
    <g id="Group_38" data-name="Group 38" clip-path="url(#clip-path)">
      <path id="Path_16311" data-name="Path 16311" d="M342,43.41v77.123l38.89-38.561Z" transform="translate(-342 -44.61)" fill="url(#linear-gradient)"/>
      <path id="Path_16312" data-name="Path 16312" d="M391.335,71.531l-15.7-9.064L342,43.046v.281l38.89,38.562Z" transform="translate(-342 -44.526)" fill="url(#linear-gradient-2)"/>
      <path id="Path_16313" data-name="Path 16313" d="M342,132.085v.28l33.637-19.422,15.7-9.063L380.89,93.524Z" transform="translate(-342 -56.161)" fill="url(#linear-gradient-3)"/>
      <path id="Path_16314" data-name="Path 16314" d="M402.985,80.063,392.539,90.421l10.445,10.356L420.925,90.42Z" transform="translate(-353.649 -53.059)" fill="url(#linear-gradient-4)"/>
    </g>
  </g>
  <g id="Group_39" data-name="Group 39" transform="translate(264.411 38.63)">
    <path id="Path_16316" data-name="Path 16316" d="M657.051,106.151a9.7,9.7,0,0,1-4-.808,7.527,7.527,0,0,1-3.04-2.485h-.245a30.177,30.177,0,0,1,.245,3.724v9.229h-3.4v-32.5h2.762l.47,3.07h.164a7.9,7.9,0,0,1,3.05-2.66,9.269,9.269,0,0,1,3.99-.819,8.288,8.288,0,0,1,6.886,3.05q2.425,3.05,2.425,8.554,0,5.525-2.465,8.586A8.308,8.308,0,0,1,657.051,106.151Zm-.492-20.362q-3.437,0-4.972,1.9t-1.577,6.058v.756q0,4.728,1.577,6.764t5.053,2.036a5.258,5.258,0,0,0,4.555-2.353,11.158,11.158,0,0,0,1.647-6.488A10.742,10.742,0,0,0,661.2,88.03,5.421,5.421,0,0,0,656.559,85.79Z" transform="translate(-646.615 -73.899)" fill="#f9f9f9"/>
    <path id="Path_16317" data-name="Path 16317" d="M681.482,103.045h-3.4V71.2h3.4Z" transform="translate(-653.869 -71.202)" fill="#f9f9f9"/>
    <path id="Path_16318" data-name="Path 16318" d="M703.245,105.754l-.676-3.193h-.163a9.409,9.409,0,0,1-3.347,2.855,10.171,10.171,0,0,1-4.164.747,7.5,7.5,0,0,1-5.229-1.719,6.267,6.267,0,0,1-1.893-4.89q0-6.794,10.866-7.122l3.807-.122V90.918a5.678,5.678,0,0,0-1.137-3.9,4.667,4.667,0,0,0-3.632-1.259,14.8,14.8,0,0,0-6.344,1.719l-1.044-2.6a16.014,16.014,0,0,1,3.634-1.412,15.735,15.735,0,0,1,3.96-.512q4.011,0,5.945,1.781t1.933,5.71v15.307Zm-7.673-2.394a6.9,6.9,0,0,0,4.982-1.739,6.438,6.438,0,0,0,1.811-4.872V94.724l-3.4.142q-4.051.145-5.842,1.26a3.8,3.8,0,0,0-1.791,3.468,3.5,3.5,0,0,0,1.116,2.8A4.623,4.623,0,0,0,695.572,103.36Z" transform="translate(-656.102 -73.912)" fill="#f9f9f9"/>
    <path id="Path_16319" data-name="Path 16319" d="M713.713,83.436h3.642l4.912,12.791a48.778,48.778,0,0,1,2.006,6.324h.164q.267-1.046,1.115-3.573t5.556-15.542h3.644l-9.639,25.54a12.741,12.741,0,0,1-3.347,5.373,7.115,7.115,0,0,1-4.695,1.584,13.741,13.741,0,0,1-3.071-.346v-2.722a11.875,11.875,0,0,0,2.518.246q3.5,0,4.993-3.93l1.248-3.193Z" transform="translate(-662.081 -74.022)" fill="#f9f9f9"/>
  </g>
  <g id="Group_41" data-name="Group 41" transform="translate(109.548 36.122)">
    <path id="Path_16320" data-name="Path 16320" d="M573.156,85.638a7.909,7.909,0,0,1,3.33,6.334c0,3.469-1.97,5.114-3.941,6.66a3.3,3.3,0,0,0-1.314,2.3,2.574,2.574,0,0,0,1.221,2.016l1.69,1.311c2.064,1.736,3.938,3.332,3.938,6.571,0,4.408-4.269,8.865-12.337,8.865-6.8,0-10.086-3.236-10.086-6.71a6.752,6.752,0,0,1,3.612-5.724c2.906-1.782,6.85-2.015,8.96-2.158a4.911,4.911,0,0,1-1.407-3.187,4.235,4.235,0,0,1,.469-1.831c-.518.048-1.033.094-1.5.094A7.417,7.417,0,0,1,558,92.817a8.441,8.441,0,0,1,3-6.287,12.793,12.793,0,0,1,8.4-2.581h9.662l-3,1.689Zm-3.331,20.83a7.254,7.254,0,0,0-1.078-.049,18.763,18.763,0,0,0-4.927.755c-1.031.372-4.035,1.5-4.035,4.83s3.239,5.726,8.258,5.726c4.5,0,6.9-2.162,6.9-5.069C574.94,110.264,573.391,109,569.825,106.468Zm1.361-8.915a4.744,4.744,0,0,0,1.17-3.425c0-3.377-2.016-8.631-5.909-8.631a4.381,4.381,0,0,0-3.284,1.548,5.421,5.421,0,0,0-1.033,3.471c0,3.143,1.83,8.351,5.866,8.351A4.806,4.806,0,0,0,571.186,97.554Z" transform="translate(-470.786 -71.632)" fill="#f9f9f9"/>
    <path id="Path_16321" data-name="Path 16321" d="M536.594,105.518a11.052,11.052,0,0,1-11.427-11.055c0-6.137,5.011-11.38,12.133-11.38a10.95,10.95,0,0,1,11.192,11.053A11.444,11.444,0,0,1,536.594,105.518Zm5.854-3.793a8.474,8.474,0,0,0,1.407-5.2c0-4.122-1.967-11.99-7.775-11.99a6.522,6.522,0,0,0-4.215,1.6,7.085,7.085,0,0,0-2.156,5.715c0,4.633,2.3,12.265,7.964,12.265A5.986,5.986,0,0,0,542.448,101.725Z" transform="translate(-463.758 -71.433)" fill="#f9f9f9"/>
    <path id="Path_16322" data-name="Path 16322" d="M503.6,105.518a11.053,11.053,0,0,1-11.429-11.055c0-6.137,5.013-11.38,12.132-11.38A10.95,10.95,0,0,1,515.5,94.136,11.444,11.444,0,0,1,503.6,105.518Zm5.855-3.793a8.483,8.483,0,0,0,1.406-5.2c0-4.122-1.968-11.99-7.777-11.99a6.522,6.522,0,0,0-4.215,1.6,7.083,7.083,0,0,0-2.155,5.715c0,4.633,2.294,12.265,7.964,12.265A5.988,5.988,0,0,0,509.459,101.725Z" transform="translate(-456.153 -71.433)" fill="#f9f9f9"/>
    <path id="Path_16323" data-name="Path 16323" d="M477.807,101.608l-6.735,1.554a49.894,49.894,0,0,1-7.768.8c-13,0-17.941-9.559-17.941-17.047,0-9.134,7.015-17.608,19.024-17.608a27.139,27.139,0,0,1,7.2.988,18.385,18.385,0,0,1,6.216,2.919l-3.91,3.72-1.647.376,1.177-1.884A13.459,13.459,0,0,0,463.351,71c-7.441,0-13.045,5.653-13.045,13.892,0,8.85,6.405,17.185,16.668,17.185a14.02,14.02,0,0,0,5.981-1.178V93.32l-7.109.376,3.766-2.027h9.983l-1.223,1.177a1.1,1.1,0,0,0-.472.753c-.049.425-.093,1.791-.093,2.262Z" transform="translate(-445.363 -68.257)" fill="#f9f9f9"/>
    <path id="Path_16324" data-name="Path 16324" d="M594.744,99.938c-1.555-.142-1.88-.422-1.88-2.262V71.025c.009-.1.015-.205.025-.3.19-1.647.659-1.93,2.121-2.779h-6.736l-3.534,1.7h3.6v.022l0-.017V98.714c0,.94-.185,1.083-1.27,2.494H595.4l1.742-1.033C596.347,100.078,595.545,100.032,594.744,99.938Z" transform="translate(-477.49 -67.943)" fill="#f9f9f9"/>
    <path id="Path_16325" data-name="Path 16325" d="M617.527,103.865c-.513.281-1.027.61-1.54.842a10.887,10.887,0,0,1-4.541.889,9.991,9.991,0,0,1-6.22-1.824A12.1,12.1,0,0,1,600.46,93.9a10.6,10.6,0,0,1,10.708-10.8,9.086,9.086,0,0,1,4.819,1.31,7.744,7.744,0,0,1,3.27,4.627L608.27,93.484l-3.6.28c1.167,5.939,5.189,9.4,9.633,9.4a12.077,12.077,0,0,0,5.7-1.634Zm-4.394-13.938c.886-.326,1.354-.607,1.354-1.261,0-1.869-2.1-4.021-4.63-4.021-1.873,0-5.378,1.45-5.378,6.5,0,.795.094,1.637.142,2.481Z" transform="translate(-481.113 -71.437)" fill="#f9f9f9"/>
    <g id="Group_40" data-name="Group 40" transform="translate(139.532 11.665)">
      <path id="Path_16326" data-name="Path 16326" d="M628.088,83.422v3.086h-.375V83.422h-1.021V83.1h2.416v.32Z" transform="translate(-626.692 -83.102)" fill="#f9f9f9"/>
      <path id="Path_16327" data-name="Path 16327" d="M633.2,86.508V83.394h-.018l-.95,3.114h-.293l-.959-3.114h-.012v3.114h-.34V83.1h.583l.867,2.753h.012l.854-2.753h.592v3.406Z" transform="translate(-627.6 -83.102)" fill="#f9f9f9"/>
    </g>
  </g>
  <g id="Group_42" data-name="Group 42" transform="translate(109.628 18.262)">
    <path id="Path_16328" data-name="Path 16328" d="M454.739,54.538H452.4a15.527,15.527,0,0,0-.666-2.735h-3.378a14.091,14.091,0,0,0-.687,2.735h-2.2q0-.285,1.707-4.679a36.726,36.726,0,0,0,1.708-4.841h2.764a40.344,40.344,0,0,0,1.547,4.771A41.886,41.886,0,0,1,454.739,54.538Zm-3.378-4.131a41.327,41.327,0,0,1-1.25-4.08h-.117q0,.285-1.294,4.08Z" transform="translate(-445.467 -44.799)" fill="#f7f8f8"/>
    <path id="Path_16329" data-name="Path 16329" d="M467.419,54.538h-1.806a17.856,17.856,0,0,0-2.011-3.166,17.445,17.445,0,0,1-2.4-4.131h-.117a25.813,25.813,0,0,1,.183,2.9q0,1.805.1,4.4h-1.8q.11-2.267.11-4.979,0-2.67-.11-4.541h2.172a13.786,13.786,0,0,0,1.806,3.093,18.2,18.2,0,0,1,2.208,3.9h.11a27.608,27.608,0,0,1-.175-2.925q0-1.981-.1-4.065h1.828q-.1,1.813-.1,4.541Q467.316,52.308,467.419,54.538Z" transform="translate(-448.718 -44.799)" fill="#f7f8f8"/>
    <path id="Path_16330" data-name="Path 16330" d="M481.133,49.436a5.393,5.393,0,0,1-1.331,3.627,4.647,4.647,0,0,1-3.729,1.551q-1.082,0-2.983-.088.095-2.208.1-4.979,0-2.662-.1-4.541h1.28q.314,0,.936-.022c.414-.014.684-.022.811-.022a4.93,4.93,0,0,1,3.828,1.316A4.554,4.554,0,0,1,481.133,49.436Zm-2,.315a3.521,3.521,0,0,0-.82-2.365,3.1,3.1,0,0,0-2.5-.962,7.717,7.717,0,0,0-.863.066q.073,1.462.073,3.056,0,1.748.073,3.466a4.863,4.863,0,0,0,.951.1,2.762,2.762,0,0,0,2.328-.976A3.767,3.767,0,0,0,479.136,49.75Z" transform="translate(-451.834 -44.786)" fill="#f7f8f8"/>
    <path id="Path_16331" data-name="Path 16331" d="M493.933,54.525h-2.164a14.391,14.391,0,0,0-1.3-3.195A1.7,1.7,0,0,0,489,50.723c-.283,0-.553,0-.812.007q0,1.88.066,3.8h-2.033q.095-2.208.095-4.979,0-2.662-.095-4.541h1.265q.219,0,.917-.022t1.29-.022q3.357,0,3.357,2.3a2.574,2.574,0,0,1-1.916,2.537v.11a2.28,2.28,0,0,1,1.294,1.151A25.37,25.37,0,0,1,493.933,54.525ZM491.191,47.8q0-1.454-1.872-1.455a6.391,6.391,0,0,0-1.213.1q.08,1.133.08,2.954c.269.01.495.015.68.015Q491.191,49.414,491.191,47.8Z" transform="translate(-454.862 -44.786)" fill="#f7f8f8"/>
    <path id="Path_16332" data-name="Path 16332" d="M507.074,49.537a5.252,5.252,0,0,1-1.374,3.722,4.461,4.461,0,0,1-3.4,1.477,4.3,4.3,0,0,1-3.232-1.357,4.778,4.778,0,0,1-1.3-3.447,5.25,5.25,0,0,1,1.374-3.722,4.461,4.461,0,0,1,3.4-1.477,4.3,4.3,0,0,1,3.232,1.353A4.776,4.776,0,0,1,507.074,49.537Zm-2.018.212a3.775,3.775,0,0,0-.783-2.479,2.409,2.409,0,0,0-1.931-.95,2.229,2.229,0,0,0-1.813.958,3.822,3.822,0,0,0-.746,2.42,3.766,3.766,0,0,0,.786,2.475,2.409,2.409,0,0,0,1.927.955,2.23,2.23,0,0,0,1.814-.962A3.825,3.825,0,0,0,505.056,49.749Z" transform="translate(-457.522 -44.733)" fill="#f7f8f8"/>
    <path id="Path_16333" data-name="Path 16333" d="M514.615,54.538h-2.069q.095-2.267.095-4.979,0-2.67-.095-4.541h2.069q-.095,1.842-.095,4.541Q514.521,52.315,514.615,54.538Z" transform="translate(-460.929 -44.799)" fill="#f7f8f8"/>
    <path id="Path_16334" data-name="Path 16334" d="M526.6,49.436a5.392,5.392,0,0,1-1.33,3.627,4.648,4.648,0,0,1-3.729,1.551q-1.083,0-2.983-.088.095-2.208.095-4.979,0-2.662-.095-4.541h1.28q.314,0,.936-.022c.414-.014.685-.022.812-.022a4.929,4.929,0,0,1,3.827,1.316A4.554,4.554,0,0,1,526.6,49.436Zm-2,.315a3.525,3.525,0,0,0-.819-2.365,3.105,3.105,0,0,0-2.5-.962,7.7,7.7,0,0,0-.863.066q.073,1.462.073,3.056,0,1.748.073,3.466a4.849,4.849,0,0,0,.95.1,2.765,2.765,0,0,0,2.329-.976A3.771,3.771,0,0,0,524.6,49.75Z" transform="translate(-462.314 -44.786)" fill="#f7f8f8"/>
    <path id="Path_16335" data-name="Path 16335" d="M544.5,54.538h-2.34A15.409,15.409,0,0,0,541.5,51.8h-3.378a14.153,14.153,0,0,0-.687,2.735h-2.2q0-.285,1.707-4.679a36.743,36.743,0,0,0,1.708-4.841h2.763a40.449,40.449,0,0,0,1.547,4.771A42.016,42.016,0,0,1,544.5,54.538Zm-3.378-4.131a41.232,41.232,0,0,1-1.251-4.08h-.117q0,.285-1.293,4.08Z" transform="translate(-466.158 -44.799)" fill="#f7f8f8"/>
    <path id="Path_16336" data-name="Path 16336" d="M556.283,47.5a2.852,2.852,0,0,1-1.3,2.582,5.774,5.774,0,0,1-3.184.833q-.344,0-.49-.015,0,1.375.081,3.627h-2.055q.095-2.112.095-4.979,0-2.633-.095-4.541h1.272q.27,0,1.038-.022t1.331-.022a4.185,4.185,0,0,1,2.347.629A2.128,2.128,0,0,1,556.283,47.5Zm-1.887.4q0-1.564-2.076-1.565a5.884,5.884,0,0,0-1.1.11q.081,1.382.081,3.13c.122.01.263.015.424.015Q554.4,49.59,554.4,47.9Z" transform="translate(-469.409 -44.786)" fill="#f7f8f8"/>
    <path id="Path_16337" data-name="Path 16337" d="M567.68,47.5a2.852,2.852,0,0,1-1.3,2.582,5.773,5.773,0,0,1-3.184.833c-.229,0-.392,0-.49-.015q0,1.375.081,3.627h-2.055q.095-2.112.1-4.979,0-2.633-.1-4.541h1.273q.27,0,1.038-.022t1.33-.022a4.185,4.185,0,0,1,2.348.629A2.128,2.128,0,0,1,567.68,47.5Zm-1.887.4q0-1.564-2.077-1.565a5.883,5.883,0,0,0-1.1.11q.081,1.382.08,3.13c.122.01.264.015.425.015Q565.793,49.59,565.793,47.9Z" transform="translate(-472.036 -44.786)" fill="#f7f8f8"/>
    <path id="Path_16338" data-name="Path 16338" d="M585.606,49.537a5.252,5.252,0,0,1-1.375,3.722,4.46,4.46,0,0,1-3.4,1.477,4.294,4.294,0,0,1-3.232-1.357,4.775,4.775,0,0,1-1.3-3.447,5.248,5.248,0,0,1,1.375-3.722,4.46,4.46,0,0,1,3.4-1.477,4.3,4.3,0,0,1,3.232,1.353A4.773,4.773,0,0,1,585.606,49.537Zm-2.018.212a3.775,3.775,0,0,0-.783-2.479,2.409,2.409,0,0,0-1.93-.95,2.231,2.231,0,0,0-1.814.958,3.822,3.822,0,0,0-.746,2.42,3.762,3.762,0,0,0,.786,2.475,2.407,2.407,0,0,0,1.926.955,2.229,2.229,0,0,0,1.814-.962A3.826,3.826,0,0,0,583.587,49.749Z" transform="translate(-475.624 -44.733)" fill="#f7f8f8"/>
    <path id="Path_16339" data-name="Path 16339" d="M598.924,54.538h-1.806a17.835,17.835,0,0,0-2.011-3.166,17.429,17.429,0,0,1-2.4-4.131h-.117a25.784,25.784,0,0,1,.182,2.9q0,1.805.1,4.4h-1.8q.11-2.267.109-4.979,0-2.67-.109-4.541h2.172a13.752,13.752,0,0,0,1.806,3.093,18.2,18.2,0,0,1,2.208,3.9h.109a27.608,27.608,0,0,1-.175-2.925q0-1.981-.1-4.065h1.828q-.1,1.813-.1,4.541Q598.821,52.308,598.924,54.538Z" transform="translate(-479.031 -44.799)" fill="#f7f8f8"/>
  </g>
</svg>
