<svg xmlns="http://www.w3.org/2000/svg" width="661.375" height="224.46" viewBox="0 0 661.375 224.46">
    <path data-name="Path 2985" d="M1377.333 519.79s4.072-8.624 2.036-13.115a32.567 32.567 0 0 0-8.2-8.324l-4.911-8.444-5.449-8.444-7.187-7.187-7.845-6.468-10.241-6.348-9.163-7.726-9.283-7.246-10.3-5.989-10.78-4.971-10.96-4.432-11.259-3.593-11.5-2.875-11.978-1.8-11.978-1.5-11.977-1.078-11.978-.659-11.98-.591-11.977-.479h-58.87l-11.618.359-11.558 1.018-11.558 1.138-11.5 1.856-11.439 2.1-11.259 2.815-11.319 3.054-11.319 3.294-11.139 3.653-11.2 3.593-11.139 3.713-10.96 4.192-10.959 4.252-10.84 4.492-10.061 4.372-10.181 4.132-10.181 4.192-10.181 4.132-10.242 4.069-11.977 5.091-11.978 5.031-11.978 3.653-12.7 1.8-10.54.779h-10.6l-10.241-2.336-9.4-4.911-8.2-6.648-7.606-7.366-8.564-8.624-8.744-8.5-8.923-8.265-9.4-7.666-10.181-6.707-10.9-5.33-11.977-3.174-12.577-1.917-12.636-1.318-5.21 4.851 8.324 7.067 7.366 8.085 5.989 9.342 5.031 9.1 4.911 9.163 3.773 9.642v10.181l-4.552 9.522-5.09 9.283-5.15 9.223-5.51 9.043-1.8 9.043 8.145 3.413 10.36-1.737 10.3-1.976 10.36-1.856 10.421-1.737 10.36-1.976 10.361-1.8 12.637-1.557 12.7.539 11.978 4.611 9.4 5.21 9.582 4.671 9.522 4.791 9.7 4.552 9.642 4.552 9.642 4.671 9.642 4.552 10.181 4.252 10.481 3.533 10.54 3.414 10.54 3.294 10.6 3.174 10.6 3.054 10.6 3.294 11.44 1.978 11.618.839h11.978l11.977-.359 11.618-.479 11.978-.719 11.618-.778 11.079-1.018 11.079-1.2 11.079-1.2 8.863 1.2-6.468 9.163-4.252 10.42-1.8 11.139-.778 10.6.778 10.481 9.883 3.893 10-2.994 9.462-4.312 9.043-5.27 8.684-5.989 3.234 4.731 4.073 7.965 8.5 2.216 10-3.294 9.4-4.791 8.564-5.989 8.864-8.8 8.2-9.4 6.468-10.54 3.833-8.863 3.713-8.863 3.593-8.983 4.672-8.444 8.2-5.15 10.42-4.911 10.84-3.773 11.139-2.695 11.139-1.138 9.462 5.989 10.54 8.2 12.756 4.132h15.511l13.3-4.611 9.822-6.588 9.223-7.426 8.983-7.666 8.444-8.384z" transform="translate(-718.565 -418.52)" style="fill:#82c2ec"/>
</svg>
