<svg width="420" height="126" viewBox="0 0 420 126" fill="none" xmlns="http://www.w3.org/2000/svg">
<path d="M41.9079 125.386C34.3106 125.386 27.3806 123.641 21.1179 120.15C14.9579 116.557 10.0299 111.577 6.33392 105.212C2.63792 98.744 0.789922 91.044 0.789922 82.112C0.789922 73.2827 2.63792 65.6853 6.33392 59.32C10.0299 52.852 14.9579 47.8727 21.1179 44.382C27.3806 40.8913 34.3106 39.146 41.9079 39.146C49.0946 39.146 55.1519 40.686 60.0799 43.766C65.1106 46.846 68.9093 51.5687 71.4759 57.934C74.0426 64.2993 75.3259 72.3587 75.3259 82.112C75.3259 92.0707 74.0939 100.233 71.6299 106.598C69.1659 112.963 65.4699 117.686 60.5419 120.766C55.6139 123.846 49.4026 125.386 41.9079 125.386ZM48.0679 102.132C51.3533 102.132 54.2793 101.362 56.8459 99.822C59.5153 98.282 61.6199 96.0233 63.1599 93.046C64.6999 89.966 65.4699 86.3213 65.4699 82.112C65.4699 77.9027 64.6999 74.3607 63.1599 71.486C61.6199 68.5087 59.5153 66.25 56.8459 64.71C54.2793 63.17 51.3533 62.4 48.0679 62.4C44.6799 62.4 41.6513 63.17 38.9819 64.71C36.4153 66.25 34.3619 68.5087 32.8219 71.486C31.2819 74.3607 30.5119 77.9027 30.5119 82.112C30.5119 86.3213 31.2819 89.966 32.8219 93.046C34.3619 96.0233 36.4153 98.282 38.9819 99.822C41.6513 101.362 44.6799 102.132 48.0679 102.132ZM66.3939 124V109.678L66.5479 82.112L65.0079 54.546L65.0079 9.73199L94.2679 9.73199L94.2679 124H66.3939ZM116.093 124L116.093 40.532H143.967V64.864L139.809 57.934C142.273 51.6713 146.277 47 151.821 43.92C157.365 40.7373 164.09 39.146 171.995 39.146V65.48C170.661 65.2747 169.48 65.172 168.453 65.172C167.529 65.0693 166.503 65.018 165.373 65.018C159.419 65.018 154.593 66.6607 150.897 69.946C147.201 73.1287 145.353 78.3647 145.353 85.654L145.353 124L116.093 124ZM187.07 124L187.07 40.532L216.33 40.532L216.33 124H187.07ZM201.7 31.292C196.361 31.292 192.049 29.8033 188.764 26.826C185.478 23.8487 183.836 20.1527 183.836 15.738C183.836 11.3233 185.478 7.62733 188.764 4.64999C192.049 1.67266 196.361 0.183997 201.7 0.183997C207.038 0.183997 211.35 1.62133 214.636 4.496C217.921 7.268 219.564 10.8613 219.564 15.276C219.564 19.896 217.921 23.746 214.636 26.826C211.453 29.8033 207.141 31.292 201.7 31.292ZM261.599 124L227.257 40.532L257.287 40.532L284.699 110.294H269.607L298.405 40.532H326.279L291.783 124H261.599ZM378.323 125.386C368.467 125.386 359.843 123.538 352.451 119.842C345.162 116.043 339.464 110.91 335.357 104.442C331.353 97.8713 329.351 90.428 329.351 82.112C329.351 73.796 331.302 66.404 335.203 59.936C339.207 53.3653 344.7 48.2833 351.681 44.69C358.663 40.994 366.517 39.146 375.243 39.146C383.457 39.146 390.951 40.84 397.727 44.228C404.503 47.5133 409.893 52.39 413.897 58.858C417.901 65.326 419.903 73.18 419.903 82.42C419.903 83.4467 419.852 84.6273 419.749 85.962C419.647 87.2967 419.544 88.5287 419.441 89.658L353.375 89.658V74.258L403.887 74.258L392.799 78.57C392.902 74.7713 392.183 71.486 390.643 68.714C389.206 65.942 387.153 63.786 384.483 62.246C381.917 60.706 378.888 59.936 375.397 59.936C371.907 59.936 368.827 60.706 366.157 62.246C363.591 63.786 361.589 65.9933 360.151 68.868C358.714 71.64 357.995 74.9253 357.995 78.724V83.19C357.995 87.2967 358.817 90.8387 360.459 93.816C362.205 96.7933 364.669 99.1033 367.851 100.746C371.034 102.286 374.833 103.056 379.247 103.056C383.354 103.056 386.845 102.491 389.719 101.362C392.697 100.13 395.623 98.282 398.497 95.818L413.897 111.834C409.893 116.249 404.965 119.637 399.113 121.998C393.261 124.257 386.331 125.386 378.323 125.386Z" fill="url(#paint0_linear_114_799)"/>
<defs>
<linearGradient id="paint0_linear_114_799" x1="210" y1="8.21084" x2="210" y2="143.443" gradientUnits="userSpaceOnUse">
<stop offset="0.296" stop-color="white"/>
<stop offset="0.391" stop-color="white"/>
<stop offset="1" stop-color="#EADAFF" stop-opacity="0"/>
</linearGradient>
</defs>
</svg>
