<svg xmlns="http://www.w3.org/2000/svg" width="450.701" height="449.673" viewBox="0 0 450.701 449.673">
    <path data-name="Path 2646@2x" d="M338.585 2.041C336.711 1.7 249.343-10.805 228.7 42.876s-1.331 83.391-1.331 83.391-78.9-73.8-136.381-43.537-79.511 8.6-83.732 46.91-18.628 47.89 16.064 98.981 95.441 86.9 95.441 86.9 36.182 4.324 45.491-13.08 16.713-19.341 16.713-19.341 3.075 42.451 5.768 64.047a87.74 87.74 0 0 0 15.167 41.891c5.684 8.088 1.954 25.31 1.954 25.31l62.124 35.868 86.687-150.147s7.766-31.384-6.868-41.9-9.428-9.289-9.428-9.289A261.893 261.893 0 0 1 352 223.072c2.5-2.031 13.247-2.705 22.917-12.283s47.276-37.563 54.023-43.356 21.02-37.561 22.416-38.827-42.481-90.123-42.481-90.123z" transform="translate(-.691 -.543)" style="fill:#82c8bb"/>
</svg>
