<svg width="116" height="111" viewBox="0 0 116 111" fill="none" xmlns="http://www.w3.org/2000/svg">
<path fill-rule="evenodd" clip-rule="evenodd" d="M45.2644 19.0102H44.058C43.108 19.0102 42.2224 18.3518 41.7974 17.3394C41.3828 16.3394 41.5515 15.2623 42.2224 14.5894L43.0788 13.7331C43.5976 13.2206 43.8788 12.5331 43.8788 11.7998C43.8788 11.0685 43.5934 10.381 43.0788 9.86647L38.8596 5.64983C38.345 5.13525 37.6595 4.84775 36.9261 4.84775C36.1948 4.84775 35.5072 5.13525 34.9926 5.64983L34.1384 6.50402C33.7175 6.92069 33.1341 7.15191 32.4903 7.15191C32.1195 7.15191 31.7382 7.07274 31.3882 6.92899C30.3735 6.51024 29.7172 5.6186 29.7172 4.67065V3.46441C29.7172 1.9561 28.49 0.729004 26.9816 0.729004H21.0184C19.5099 0.729004 18.2827 1.9561 18.2827 3.46441V4.67065C18.2827 5.61854 17.6243 6.50398 16.6118 6.92899C16.2597 7.07899 15.8784 7.15191 15.5075 7.15191C14.8658 7.15191 14.2762 6.92483 13.8616 6.50402L13.0052 5.64983C12.4864 5.13525 11.8051 4.84775 11.0717 4.84775C10.3404 4.84775 9.65283 5.13525 9.13823 5.64983L4.92123 9.86647C3.85239 10.9352 3.85239 12.6706 4.92123 13.7394L5.77549 14.5936C6.44845 15.2665 6.61721 16.3457 6.20053 17.3435C5.78174 18.3581 4.89002 19.0143 3.94199 19.0143H2.73565C2.00225 19.0143 1.31467 19.3018 0.802148 19.8164C0.281272 20.331 0 21.0185 0 21.7498V27.7124C0 29.2207 1.2272 30.4478 2.73565 30.4478H3.94199C4.88996 30.4478 5.77548 31.1062 6.20053 32.1186C6.61723 33.1124 6.44846 34.1957 5.77549 34.8686L4.92123 35.7249C4.40035 36.2436 4.11908 36.9311 4.11908 37.6582C4.11908 38.3853 4.4066 39.077 4.92123 39.5915L9.13823 43.8082C9.65285 44.3228 10.3404 44.6103 11.0717 44.6103C11.8051 44.6103 12.4927 44.3228 13.0052 43.8082L13.8616 42.954C14.2762 42.5373 14.8658 42.3061 15.5075 42.3061C15.8784 42.3061 16.2597 42.3853 16.6118 42.529C17.6243 42.9478 18.2827 43.8394 18.2827 44.7874V45.9936C18.2827 47.5019 19.5099 48.729 21.0184 48.729H26.9816C28.49 48.729 29.7172 47.5019 29.7172 45.9936V44.7874C29.7172 43.8395 30.3735 42.954 31.3882 42.529C31.7382 42.3853 32.1195 42.3061 32.4903 42.3061C33.1341 42.3061 33.7217 42.5332 34.1384 42.954L34.9926 43.8082C35.5073 44.3228 36.1948 44.6103 36.9261 44.6103C37.6595 44.6103 38.345 44.3228 38.8596 43.8082L43.0788 39.5915C44.1476 38.5228 44.1476 36.7874 43.0788 35.7249L42.2224 34.8686C41.5515 34.1957 41.3828 33.1186 41.7974 32.1186C42.2224 31.1062 43.1079 30.4478 44.058 30.4478H45.2644C45.9957 30.4478 46.6832 30.1603 47.1979 29.6457C47.7166 29.127 48 28.4395 48 27.7124V21.7498C48 20.2414 46.7728 19.0143 45.2644 19.0143V19.0102ZM46.0207 27.712C46.0207 27.9162 45.9415 28.1037 45.7977 28.2475C45.6561 28.3912 45.4665 28.4704 45.2644 28.4704H44.058C42.3079 28.4704 40.7056 29.6016 39.9722 31.3579C39.2513 33.0975 39.5826 35.0225 40.8244 36.262L41.6787 37.1183C41.9766 37.4141 41.9766 37.8954 41.6787 38.1912L37.4617 42.41C37.1742 42.6954 36.6741 42.6954 36.3887 42.41L35.5323 41.5537C34.7406 40.762 33.6572 40.3266 32.4863 40.3266C31.857 40.3266 31.2153 40.4558 30.6257 40.7037C28.8713 41.435 27.7379 43.037 27.7379 44.787V45.9932C27.7379 46.4141 27.3962 46.7516 26.9816 46.7516H21.0184C20.5975 46.7516 20.26 46.4099 20.26 45.9932V44.787C20.26 43.037 19.1287 41.4349 17.3722 40.7037C16.7847 40.4558 16.1367 40.3266 15.5075 40.3266C14.3366 40.3266 13.2531 40.762 12.4614 41.5537L11.6072 42.41C11.3196 42.6954 10.8196 42.6954 10.5342 42.41L6.31503 38.1912C6.17127 38.0475 6.09209 37.86 6.09209 37.6579C6.09209 37.4537 6.17127 37.2662 6.31503 37.1225L7.17137 36.2683C8.41105 35.0266 8.74857 33.0975 8.02147 31.362C7.29015 29.6079 5.68793 28.4745 3.93568 28.4745H2.72934C2.30847 28.4745 1.97301 28.1329 1.97301 27.7183V21.7535C1.97301 21.5514 2.05218 21.3639 2.19594 21.2201C2.3397 21.0764 2.52722 20.9972 2.72932 20.9972H3.93566C5.68792 20.9972 7.29014 19.866 8.02145 18.1097C8.74237 16.3701 8.41107 14.4451 7.17135 13.2035L6.31501 12.3493C6.01915 12.0514 6.01915 11.5722 6.31501 11.2764L10.5341 7.05762C10.8196 6.77012 11.3197 6.77012 11.6071 7.05762L12.4614 7.91388C13.2531 8.70556 14.3365 9.1389 15.5075 9.1389C16.1367 9.1389 16.7784 9.01181 17.3681 8.7639C19.1224 8.03265 20.2558 6.43057 20.2558 4.67846V3.47223C20.2558 3.05347 20.5975 2.71596 21.0122 2.71596H26.9775C27.3962 2.71596 27.7338 3.05763 27.7338 3.47223V4.67846C27.7338 6.43057 28.8651 8.03265 30.6216 8.7639C31.2091 9.01181 31.8529 9.1389 32.4801 9.1389C33.6531 9.1389 34.7365 8.70556 35.5282 7.91388L36.3825 7.05762C36.67 6.77012 37.1701 6.77012 37.4555 7.05762L41.6746 11.2764C41.8184 11.4201 41.8975 11.6076 41.8975 11.8097C41.8975 12.0118 41.8184 12.2014 41.6746 12.3431L40.8183 13.1993C39.5765 14.441 39.2411 16.3701 39.9682 18.1055C40.6995 19.8597 42.3017 20.9931 44.054 20.9931H45.2603C45.6791 20.9931 46.0166 21.3347 46.0208 21.7493L46.0207 27.712Z" fill="#1053FA"/>
<path d="M28.5002 23.0001L34.0002 19.5C34.5002 19.5 35.0002 20.3 35.0002 25.5C35.0002 32 29.0002 35 25.0002 35.5C21.0002 36 14.0002 32.5 13.5002 25.5C13.0002 18.5 19.0002 16.0001 21.0002 14.5001C23.0002 13.0001 28.0002 14.5001 29.0002 15.0001C29.8002 15.4001 31.0002 15.4999 30.5002 16L25.5002 20.5001C22.7002 20.1001 21.0002 22.3334 20.5002 23.5001C22.0002 29.0001 24.0002 27.5001 26.0002 27.5001C27.6002 27.5001 28.3335 24.5001 28.5002 23.0001Z" fill="#1053FA"/>
<path d="M46.3653 104.96V106.736C46.3653 107.476 46.0323 108.197 45.4588 108.715C44.8853 109.233 44.0898 109.529 43.2574 109.529H33.9521C33.1197 109.529 32.3427 109.233 31.7507 108.715C31.1772 108.197 30.8442 107.476 30.8442 106.736V100.446M111.465 100.465V106.754C111.465 107.494 111.132 108.216 110.558 108.734C109.985 109.252 109.189 109.548 108.357 109.548H99.0332C98.2007 109.548 97.4237 109.252 96.8317 108.734C96.2397 108.216 95.9253 107.494 95.9253 106.754V104.978M46.3653 98.8182H96.0548C96.0548 98.8182 105.23 98.1522 111.576 94.8408V78.6353C111.576 76.6003 111.132 74.6024 110.281 72.771C109.43 70.9395 108.209 69.3116 106.673 68.0166H112.612C113.167 68.0166 113.685 67.7946 114.073 67.3876C114.462 66.9806 114.684 66.4442 114.684 65.8892C114.684 63.9097 113.925 62.0228 112.556 60.6353C111.206 59.2479 109.356 58.4524 107.432 58.4524H104.324C103.621 58.4524 102.955 58.6929 102.4 59.1369C101.845 59.5809 101.475 60.1913 101.309 60.8943C97.3682 52.9396 93.4278 48.8882 89.5614 48.8882H52.8401C48.2152 48.8882 44.0528 54.9375 41.0744 60.8758C40.9079 60.1913 40.5194 59.5809 39.983 59.1369C39.4465 58.6929 38.7805 58.4524 38.096 58.4524H34.9881C33.0642 58.4524 31.2327 59.2294 29.8638 60.6353C28.4948 62.0228 27.7363 63.9282 27.7363 65.8892C27.7363 66.4442 27.9583 66.9991 28.3468 67.3876C28.7353 67.7946 29.2533 68.0166 29.8083 68.0166H35.7466C34.2111 69.3116 32.9902 70.921 32.1392 72.771C31.2882 74.6209 30.8442 76.6188 30.8442 78.6353V94.0638C37.356 98.9662 46.3653 98.8182 46.3653 98.8182ZM105.73 77.2478L98.0897 78.9868C97.2017 79.2088 96.2583 79.2273 95.3703 79.0053C94.4638 78.8018 93.6313 78.3763 92.9284 77.7843L91.2264 76.4154C94.1308 74.1029 98.3857 73.141 104.546 73.2889C105.156 74.5099 105.563 75.8604 105.73 77.2478ZM37.8925 73.3259C44.1083 73.1595 48.3077 74.1399 51.2121 76.4524L49.4917 77.8213C48.7702 78.4133 47.9377 78.8388 47.0497 79.0423C46.1433 79.2458 45.2183 79.2458 44.3303 79.0238L36.6901 77.2848C36.8381 75.8974 37.2635 74.5654 37.8925 73.3259ZM54.9675 55.5295H87.4525C90.3384 55.5295 93.7978 59.6734 97.2017 67.2026C97.2757 67.3876 97.3867 67.5541 97.4792 67.7206H44.9408C45.0148 67.5541 45.1258 67.4061 45.1998 67.2211C48.5667 59.7844 52.1371 55.5295 54.9675 55.5295ZM49.9542 92.9908L50.0837 92.7134C50.7496 91.1594 51.6191 89.8829 52.6181 89.032C53.6355 88.1625 54.7455 87.737 55.874 87.774H86.546C87.6745 87.737 88.7845 88.181 89.8019 89.032C90.8194 89.9014 91.6889 91.1594 92.3364 92.7134L92.4659 92.9908H49.9542Z" stroke="#1053FA" stroke-width="2.5" stroke-miterlimit="10" stroke-linecap="round" stroke-linejoin="round"/>
<path d="M94.5 106.5L94.6356 99.5C96.9689 99 102.4 98.9001 104 98.5001C105.6 98.1001 110.911 95.9531 112.578 94.9531V107.453C112.578 108.653 109.911 109.953 109.078 110.453C105.578 110.62 98.2 110.4 97 110C95.8 109.6 94.5 107.667 94.5 106.5Z" fill="#1053FA"/>
<path d="M47.5 105.5V99.5C45.1667 99 39.1 97.9 37.5 97.5C35.9 97.1 31.1667 95 29.5 94V106.5C29.5 107.7 32.1667 109 33 109.5C36.5 109.667 43.8 109.9 45 109.5C46.2 109.1 47.5 106.667 47.5 105.5Z" fill="#1053FA"/>
</svg>
