<svg width="40" height="56" viewBox="0 0 40 56" fill="none" xmlns="http://www.w3.org/2000/svg">
<path d="M19.8505 47.1595C21.3865 47.1595 22.6317 45.9143 22.6317 44.3783C22.6317 42.8423 21.3865 41.5972 19.8505 41.5972C18.3145 41.5972 17.0693 42.8423 17.0693 44.3783C17.0693 45.9143 18.3145 47.1595 19.8505 47.1595Z" fill="#1053FA"/>
<path d="M33.1544 55.1937H7.16375C5.43894 55.0913 3.82455 54.315 2.6718 53.0338C1.51905 51.7526 0.921207 50.07 1.00835 48.3522V7.64813C0.921207 5.93035 1.51905 4.24782 2.6718 2.96658C3.82455 1.68534 5.43894 0.909064 7.16375 0.806641H33.1544C34.8792 0.909064 36.4936 1.68534 37.6464 2.96658C38.7991 4.24782 39.397 5.93035 39.3098 7.64813V48.3522C39.397 50.07 38.7991 51.7526 37.6464 53.0338C36.4936 54.315 34.8792 55.0913 33.1544 55.1937ZM7.16375 3.54324C6.16934 3.64779 5.25571 4.13618 4.61891 4.9036C3.98211 5.67102 3.67286 6.65634 3.75752 7.64813V48.3522C3.67286 49.344 3.98211 50.3294 4.61891 51.0968C5.25571 51.8642 6.16934 52.3526 7.16375 52.4571H33.1544C34.1488 52.3526 35.0625 51.8642 35.6993 51.0968C36.3361 50.3294 36.6453 49.344 36.5607 48.3522V7.64813C36.6453 6.65634 36.3361 5.67102 35.6993 4.9036C35.0625 4.13618 34.1488 3.64779 33.1544 3.54324H7.16375Z" fill="#1053FA" stroke="white" stroke-width="0.7"/>
</svg>
