<svg width="60" height="60" viewBox="0 0 60 60" fill="none" xmlns="http://www.w3.org/2000/svg">
<path d="M59 20H55.414L50.707 15.293C50.52 15.105 50.266 15 50 15H31H11C10.734 15 10.48 15.105 10.293 15.293L5.586 20H1C0.447 20 0 20.448 0 21V48C0 48.552 0.447 49 1 49H5.586L15.05 58.464C16.04 59.455 17.356 60 18.758 60C21.444 60 23.639 57.961 23.94 55.354L27.05 58.464C28.04 59.455 29.356 60 30.758 60C33.444 60 35.639 57.961 35.94 55.354L39.05 58.464C40.04 59.455 41.356 60 42.758 60C45.444 60 47.639 57.961 47.94 55.354L51.05 58.464C52.04 59.455 53.356 60 54.758 60C57.648 60 60 57.648 60 54.757C60 53.358 59.455 52.041 58.465 51.05L56.414 49H59C59.553 49 60 48.552 60 48V21C60 20.448 59.553 20 59 20ZM58 54.757C58 56.545 56.546 58 54.758 58C53.891 58 53.077 57.663 52.465 57.05L46.466 51.052L46.465 51.05L41.707 46.293L40.293 47.707L45.05 52.464C45.663 53.077 46 53.892 46 54.757C46 56.545 44.546 58 42.758 58C41.891 58 41.077 57.663 40.465 57.05L34.466 51.052L34.465 51.05L29.707 46.293L28.293 47.707L33.05 52.464C33.663 53.077 34 53.892 34 54.757C34 56.545 32.546 58 30.758 58C29.891 58 29.077 57.663 28.465 57.05L22.466 51.052L22.465 51.05L17.707 46.293L16.293 47.707L21.05 52.464C21.663 53.077 22 53.892 22 54.757C22 56.545 20.546 58 18.758 58C17.891 58 17.077 57.663 16.465 57.05L6.707 47.293C6.52 47.105 6.266 47 6 47H2V22H6C6.266 22 6.52 21.895 6.707 21.707L11.414 17H28.586L21.743 23.843C20.619 24.967 20 26.461 20 28.05C20 31.331 22.669 34 25.95 34C27.539 34 29.033 33.381 30.157 32.257L33.5 28.914L57.05 52.464C57.663 53.077 58 53.892 58 54.757ZM58 47H54.414L34.914 27.5L36.707 25.707L35.293 24.293L28.743 30.843C27.997 31.589 27.005 32 25.95 32C23.772 32 22 30.228 22 28.05C22 26.995 22.411 26.003 23.157 25.257L31.414 17H49.586L54.293 21.707C54.48 21.895 54.734 22 55 22H58V47Z" fill="#1053FA"/>
<path d="M27 0H19C15.691 0 13 2.691 13 6C13 9.309 15.691 12 19 12H27C27.402 12 27.805 11.959 28.198 11.88L27.802 9.92C27.539 9.973 27.269 10 27 10H19C16.794 10 15 8.206 15 6C15 3.794 16.794 2 19 2H27C29.206 2 31 3.794 31 6C31 6.557 30.888 7.095 30.668 7.6L32.5 8.4C32.832 7.642 33 6.834 33 6C33 2.691 30.309 0 27 0Z" fill="#1053FA"/>
<path d="M27.5 3.6C27.168 4.358 27 5.166 27 6C27 9.309 29.691 12 33 12H41C44.309 12 47 9.309 47 6C47 2.691 44.309 0 41 0H33C32.598 0 32.195 0.0409999 31.802 0.12L32.198 2.08C32.461 2.027 32.731 2 33 2H41C43.206 2 45 3.794 45 6C45 8.206 43.206 10 41 10H33C30.794 10 29 8.206 29 6C29 5.443 29.112 4.905 29.332 4.4L27.5 3.6Z" fill="#1053FA"/>
</svg>
