<svg width="107" height="94" viewBox="0 0 107 94" fill="none" xmlns="http://www.w3.org/2000/svg">
<path d="M97.6017 34.412H93.8106C92.9605 34.4141 92.1358 34.7137 91.4689 35.2626C90.8019 35.8115 90.3315 36.5778 90.1332 37.4386C85.3311 27.5824 80.5038 22.5687 75.7902 22.5687H30.9542C25.3055 22.5687 20.2254 30.0563 16.5986 37.4123C16.3959 36.5586 15.9253 35.7998 15.2614 35.2563C14.5975 34.7127 13.7784 34.4156 12.9339 34.412H9.14276C6.79669 34.412 4.5467 35.3825 2.88778 37.1099C1.22885 38.8374 0.296875 41.1804 0.296875 43.6234C0.296875 44.3214 0.563154 44.9908 1.03713 45.4844C1.51111 45.978 2.15396 46.2552 2.82427 46.2552H10.0779C8.21122 47.8546 6.70651 49.8633 5.67111 52.138C4.63572 54.4126 4.09515 56.8972 4.08797 59.4144V89.6805C4.08797 90.7275 4.48739 91.7317 5.19836 92.472C5.90932 93.2123 6.8736 93.6283 7.87907 93.6283H19.2524C20.2578 93.6283 21.2221 93.2123 21.9331 92.472C22.644 91.7317 23.0434 90.7275 23.0434 89.6805V84.4168H83.701V89.6805C83.701 90.7275 84.1004 91.7317 84.8114 92.472C85.5223 93.2123 86.4866 93.6283 87.4921 93.6283H98.8654C99.8708 93.6283 100.835 93.2123 101.546 92.472C102.257 91.7317 102.656 90.7275 102.656 89.6805V59.4144C102.649 56.8972 102.109 54.4126 101.073 52.138C100.038 49.8633 98.5332 47.8546 96.6665 46.2552H103.92C104.59 46.2552 105.233 45.978 105.707 45.4844C106.181 44.9908 106.448 44.3214 106.448 43.6234C106.448 41.1804 105.516 38.8374 103.857 37.1099C102.198 35.3825 99.9477 34.412 97.6017 34.412ZM100.028 57.6906L90.6892 59.8355C89.5973 60.1124 88.4586 60.1223 87.3624 59.8643C86.2662 59.6063 85.2422 59.0875 84.3707 58.3485L82.2983 56.651C85.8493 53.7823 91.0431 52.598 98.5621 52.7822C99.328 54.3141 99.8244 55.9765 100.028 57.6906ZM76.9402 59.0065C69.4085 55.1903 60.9544 55.3219 53.3722 55.4667C45.79 55.3351 37.3359 55.2035 29.8042 58.9933C26.2027 52.9533 19.96 50.1767 9.88835 50.1372C10.705 49.1319 11.6487 48.2466 12.6938 47.5054C13.7228 46.7833 14.6536 45.9202 15.4613 44.9393H91.2832C92.0787 45.898 92.9922 46.7431 94.0001 47.4527C95.0496 48.193 95.9977 49.0784 96.8182 50.0846C86.7844 50.203 80.5417 52.9533 76.9402 58.9933V59.0065ZM52.6898 58.0985H52.7909H53.9282H54.0672C59.6402 58.0064 65.3268 57.9801 70.6849 59.4144H57.1633C56.8561 59.4149 56.5596 59.5318 56.3293 59.7434L53.1826 62.6516L50.4404 59.8092C50.2133 59.5675 49.9056 59.4262 49.5811 59.4144H36.0469C41.405 57.9537 47.0537 57.9801 52.6898 58.0985ZM8.18235 52.8348C15.7645 52.6374 20.9078 53.8349 24.4462 56.7036L22.3484 58.4012C21.4765 59.1392 20.4525 59.6575 19.3564 59.9154C18.2604 60.1734 17.1219 60.164 16.0299 59.8881L6.69119 57.7432C6.9026 56.0274 7.40764 54.365 8.18235 52.8348ZM30.9289 25.2006H75.7902C79.7835 25.2006 84.5603 31.0169 89.2486 41.5706C89.3623 41.8338 89.5014 42.0575 89.6277 42.3075H17.0914C17.2052 42.0706 17.3442 41.8601 17.4579 41.6101C22.0957 31.1748 27.0241 25.2006 30.9542 25.2006H30.9289ZM2.82427 43.6234C2.82427 41.8784 3.48997 40.2048 4.67492 38.9709C5.85986 37.737 7.467 37.0438 9.14276 37.0438H12.9339C13.269 37.0438 13.5904 37.1825 13.8274 37.4292C14.0644 37.676 14.1976 38.0107 14.1976 38.3597V42.3075C13.8741 42.7755 13.5149 43.2155 13.1234 43.6234H2.82427ZM20.5161 89.6805C20.5161 90.0295 16.0299 90.4981 20.1459 90.611C19.9089 90.8578 19.5875 90.5734 19.2524 90.5734L7.87907 90.9964C7.54391 90.9964 7.22249 90.8578 6.9855 90.611C6.74851 90.3642 7.87907 91.3454 7.87907 90.9964L20.1459 90.611C20.9686 91.4885 8.4207 83.2153 9.5057 83.6921C10.5907 84.1689 12.4284 87.0607 12.9339 84.4168L5.19836 92.472L20.5161 89.6805ZM27.4158 81.785L27.5675 81.5745C28.3751 80.4124 29.4402 79.4706 30.6722 78.8291C31.9043 78.1876 33.2669 77.8654 34.6442 77.8899H72.1002C73.4775 77.8654 74.8401 78.1876 76.0722 78.8291C77.3043 79.4706 78.3693 80.4124 79.1769 81.5745L79.3286 81.785H27.4158ZM100.129 89.6805C100.129 90.0295 99.9959 90.3642 99.7589 90.611C99.5219 90.8578 97.6809 82.4264 97.3457 82.4264L87.4921 90.9964C87.1569 90.9964 88.4873 91.9418 88.2503 91.695C88.0133 91.4482 97.3457 91.3454 97.3457 90.9964L86.2284 84.4168L95.5607 90.9964C96.7384 90.9949 96.1537 84.1689 97.2387 83.6921C96.6665 90.9964 97.7394 93.3495 98.5621 92.472L100.129 89.6805ZM100.129 75.2054C100.129 76.9504 99.4634 78.624 98.2784 79.8579C97.0935 81.0918 95.4863 81.785 93.8106 81.785H82.4373L81.1736 79.9822C80.1341 78.493 78.7689 77.283 77.1911 76.4523C75.6133 75.6216 73.8682 75.1942 72.1002 75.2054H34.6442C32.8762 75.1942 31.1311 75.6216 29.5533 76.4523C27.9755 77.283 26.6103 78.493 25.5708 79.9822L24.3071 81.785H12.9339C11.2581 81.785 9.65096 81.0918 8.46601 79.8579C7.28106 78.624 6.61537 76.9504 6.61537 75.2054V60.3619L15.4613 62.4015C16.2123 62.5753 16.9792 62.6636 17.7485 62.6647C19.9676 62.6596 22.1193 61.871 23.8522 60.4277L26.2532 58.4801C26.9876 59.3583 27.6235 60.3208 28.1488 61.3488C28.2555 61.5553 28.4181 61.7246 28.6164 61.8357C28.6882 61.883 28.7644 61.9227 28.8438 61.9541C29.0084 62.0223 29.1849 62.0537 29.3619 62.0462H49.0125L52.1843 65.3887C52.4194 65.622 52.7316 65.7521 53.0563 65.7521C53.381 65.7521 53.6932 65.622 53.9282 65.3887L57.6056 62.0462H77.3825C77.6111 62.0456 77.8353 61.9804 78.0311 61.8576C78.2269 61.7348 78.3871 61.5589 78.4945 61.3488C79.0197 60.3207 79.6556 59.3583 80.3901 58.4801L82.7911 60.4277C84.524 61.871 86.6758 62.6596 88.8948 62.6647C89.6641 62.6638 90.4311 62.5755 91.1821 62.4015L100.028 60.3619V75.2054H100.129ZM93.6084 43.6234C93.2213 43.215 92.8664 42.775 92.5469 42.3075V38.3597C92.5469 38.0107 92.68 37.676 92.917 37.4292C93.154 37.1825 93.4754 37.0438 93.8106 37.0438H97.6017C99.2774 37.0438 100.885 37.737 102.07 38.9709C103.254 40.2048 103.92 41.8784 103.92 43.6234H93.6084Z" fill="#1053FA"/>
<path d="M5.19836 92.472C4.48739 91.7317 4.08797 90.7275 4.08797 89.6805V59.4144C4.09515 56.8972 4.63572 54.4126 5.67111 52.138C6.70651 49.8633 8.21122 47.8546 10.0779 46.2552H2.82427C2.15396 46.2552 1.51111 45.978 1.03713 45.4844C0.563154 44.9908 0.296875 44.3214 0.296875 43.6234C0.296875 41.1804 1.22885 38.8374 2.88778 37.1099C4.5467 35.3825 6.79669 34.412 9.14276 34.412H12.9339C13.7784 34.4156 14.5975 34.7127 15.2614 35.2563C15.9253 35.7998 16.3959 36.5586 16.5986 37.4123C20.2254 30.0563 25.3055 22.5687 30.9542 22.5687H75.7902C80.5038 22.5687 85.3311 27.5824 90.1332 37.4386C90.3315 36.5778 90.8019 35.8115 91.4689 35.2626C92.1358 34.7137 92.9605 34.4141 93.8106 34.412H97.6017C99.9477 34.412 102.198 35.3825 103.857 37.1099C105.516 38.8374 106.448 41.1804 106.448 43.6234C106.448 44.3214 106.181 44.9908 105.707 45.4844C105.233 45.978 104.59 46.2552 103.92 46.2552H96.6665C98.5332 47.8546 100.038 49.8633 101.073 52.138C102.109 54.4126 102.649 56.8972 102.656 59.4144V89.6805C102.656 90.7275 102.257 91.7317 101.546 92.472C100.835 93.2123 99.8708 93.6283 98.8654 93.6283H87.4921C86.4866 93.6283 85.5223 93.2123 84.8114 92.472C84.1004 91.7317 83.701 90.7275 83.701 89.6805V84.4168H23.0434V89.6805C23.0434 90.7275 22.644 91.7317 21.9331 92.472C21.2221 93.2123 20.2578 93.6283 19.2524 93.6283H7.87907C6.8736 93.6283 5.90932 93.2123 5.19836 92.472ZM5.19836 92.472L12.9339 84.4168C12.4284 87.0607 10.5907 84.1689 9.5057 83.6921C8.4207 83.2153 20.9686 91.4885 20.1459 90.611M5.19836 92.472L20.516 89.6805C20.516 90.0295 16.0299 90.4981 20.1459 90.611M20.1459 90.611C19.9089 90.8578 19.5875 90.5734 19.2524 90.5734L7.87907 90.9964M20.1459 90.611L7.87907 90.9964M7.87907 90.9964C7.54391 90.9964 7.22249 90.8578 6.9855 90.611C6.74851 90.3642 7.87907 91.3454 7.87907 90.9964ZM100.028 57.6906L90.6892 59.8355C89.5973 60.1124 88.4586 60.1223 87.3624 59.8643C86.2662 59.6063 85.2422 59.0875 84.3707 58.3485L82.2983 56.651C85.8493 53.7823 91.0431 52.598 98.5621 52.7822C99.328 54.3141 99.8244 55.9765 100.028 57.6906ZM76.9402 59.0065C69.4085 55.1903 60.9544 55.3219 53.3722 55.4667C45.79 55.3351 37.3359 55.2035 29.8042 58.9933C26.2027 52.9533 19.96 50.1767 9.88835 50.1372C10.705 49.1319 11.6487 48.2466 12.6938 47.5054C13.7228 46.7833 14.6536 45.9202 15.4613 44.9393H91.2832C92.0787 45.898 92.9922 46.7431 94.0001 47.4527C95.0496 48.193 95.9977 49.0784 96.8182 50.0846C86.7844 50.203 80.5417 52.9533 76.9402 58.9933V59.0065ZM52.6898 58.0985H52.7909H53.9282H54.0672C59.6402 58.0064 65.3268 57.9801 70.6849 59.4144H57.1633C56.8561 59.4149 56.5596 59.5318 56.3293 59.7434L53.1826 62.6516L50.4404 59.8092C50.2133 59.5675 49.9056 59.4262 49.5811 59.4144H36.0469C41.405 57.9537 47.0537 57.9801 52.6898 58.0985ZM8.18235 52.8348C15.7645 52.6374 20.9078 53.8349 24.4462 56.7036L22.3484 58.4012C21.4765 59.1392 20.4525 59.6575 19.3564 59.9154C18.2604 60.1734 17.1219 60.164 16.0299 59.8881L6.69119 57.7432C6.9026 56.0274 7.40764 54.365 8.18235 52.8348ZM30.9289 25.2006H75.7902C79.7835 25.2006 84.5603 31.0169 89.2486 41.5706C89.3623 41.8338 89.5013 42.0575 89.6277 42.3075H17.0914C17.2052 42.0706 17.3442 41.8601 17.4579 41.6101C22.0957 31.1748 27.0241 25.2006 30.9542 25.2006H30.9289ZM2.82427 43.6234C2.82427 41.8784 3.48997 40.2048 4.67492 38.9709C5.85986 37.737 7.467 37.0438 9.14276 37.0438H12.9339C13.269 37.0438 13.5904 37.1825 13.8274 37.4292C14.0644 37.676 14.1976 38.0107 14.1976 38.3597V42.3075C13.8741 42.7755 13.5149 43.2155 13.1234 43.6234H2.82427ZM27.4158 81.785L27.5675 81.5745C28.3751 80.4124 29.4402 79.4706 30.6722 78.8291C31.9043 78.1876 33.2669 77.8654 34.6442 77.8899H72.1002C73.4775 77.8654 74.8401 78.1876 76.0722 78.8291C77.3043 79.4706 78.3693 80.4124 79.1769 81.5745L79.3286 81.785H27.4158ZM100.129 89.6805C100.129 90.0295 99.9959 90.3642 99.7589 90.611C99.5219 90.8578 97.6809 82.4264 97.3458 82.4264L87.4921 90.9964C87.1569 90.9964 88.4873 91.9418 88.2503 91.695C88.0133 91.4482 97.3458 91.3454 97.3458 90.9964L86.2284 84.4168L95.5607 90.9964C96.7384 90.9949 96.1537 84.1689 97.2387 83.6921C96.6665 90.9964 97.7394 93.3495 98.5621 92.472L100.129 89.6805ZM100.129 75.2054C100.129 76.9504 99.4634 78.624 98.2784 79.8579C97.0935 81.0918 95.4863 81.785 93.8106 81.785H82.4373L81.1736 79.9822C80.1341 78.493 78.7689 77.283 77.1911 76.4523C75.6133 75.6216 73.8682 75.1942 72.1002 75.2054H34.6442C32.8762 75.1942 31.1311 75.6216 29.5533 76.4523C27.9755 77.283 26.6103 78.493 25.5708 79.9822L24.3071 81.785H12.9339C11.2581 81.785 9.65096 81.0918 8.46601 79.8579C7.28106 78.624 6.61537 76.9504 6.61537 75.2054V60.3619L15.4613 62.4015C16.2123 62.5753 16.9792 62.6636 17.7485 62.6647C19.9676 62.6596 22.1193 61.871 23.8522 60.4277L26.2532 58.4801C26.9876 59.3583 27.6235 60.3208 28.1488 61.3488C28.2555 61.5553 28.4181 61.7246 28.6164 61.8357C28.6882 61.883 28.7644 61.9227 28.8438 61.9541C29.0084 62.0223 29.1849 62.0537 29.3619 62.0463H49.0124L52.1843 65.3887C52.4194 65.622 52.7316 65.7521 53.0563 65.7521C53.381 65.7521 53.6932 65.622 53.9282 65.3887L57.6056 62.0463H77.3825C77.6111 62.0456 77.8352 61.9804 78.0311 61.8576C78.2269 61.7348 78.3871 61.5589 78.4945 61.3488C79.0197 60.3207 79.6556 59.3583 80.3901 58.4801L82.7911 60.4277C84.524 61.871 86.6758 62.6596 88.8948 62.6647C89.6641 62.6638 90.4311 62.5755 91.1821 62.4015L100.028 60.3619V75.2054H100.129ZM93.6084 43.6234C93.2213 43.215 92.8664 42.775 92.5469 42.3075V38.3597C92.5469 38.0107 92.68 37.676 92.917 37.4292C93.154 37.1825 93.4754 37.0438 93.8106 37.0438H97.6017C99.2774 37.0438 100.885 37.737 102.07 38.9709C103.254 40.2048 103.92 41.8784 103.92 43.6234H93.6084Z" stroke="#1053FA" stroke-width="0.1"/>
<path d="M31.499 9.45932L31.499 9.45903C31.4989 9.28885 31.5324 9.12033 31.5974 8.96309C31.6625 8.80585 31.758 8.66298 31.8783 8.54265C31.9986 8.42231 32.1415 8.32688 32.2987 8.2618C32.456 8.19673 32.6245 8.16328 32.7947 8.16338L32.8131 8.16339L32.8315 8.16204C40.7466 7.58186 48.3895 5.02391 55.0592 0.722731L55.0593 0.722791L55.0663 0.718088C55.2788 0.575902 55.5287 0.5 55.7844 0.5C56.0401 0.5 56.2901 0.575902 56.5026 0.718088L56.5025 0.718154L56.51 0.722943C63.1822 5.01833 70.8233 7.5757 78.737 8.16201L78.7556 8.16339L78.7742 8.16338C78.9444 8.16328 79.1129 8.19673 79.2701 8.2618C79.4274 8.32688 79.5703 8.42232 79.6906 8.54264C79.8109 8.66298 79.9063 8.80585 79.9714 8.96309C80.0365 9.12034 80.07 9.28886 80.0699 9.45903V9.45932V24.7845C80.0699 36.5226 74.4057 45.3038 68.5889 51.2293C62.7717 57.1554 56.8321 60.1922 56.3645 60.426C56.1843 60.5159 55.9858 60.5627 55.7844 60.5629C55.5831 60.5627 55.3845 60.5159 55.2043 60.426C54.7367 60.1922 48.7972 57.1554 42.9799 51.2293C37.1631 45.3038 31.499 36.5226 31.499 24.7845L31.499 9.45932Z" fill="#DFF3FF" stroke="black"/>
<path d="M55.7844 61.0629C55.5056 61.0627 55.2307 60.9979 54.9812 60.8735C54.0025 60.3841 30.999 48.6088 30.999 24.7845V9.45932C30.9989 9.22344 31.0452 8.98984 31.1355 8.77188C31.2257 8.55393 31.3579 8.35589 31.5247 8.18909C31.6915 8.0223 31.8896 7.89002 32.1075 7.79981C32.3255 7.7096 32.5591 7.66324 32.795 7.66338C40.6266 7.08932 48.1888 4.55835 54.7883 0.302528C55.083 0.10529 55.4298 0 55.7844 0C56.1391 0 56.4858 0.10529 56.7806 0.302528C63.3827 4.55275 70.9435 7.08323 78.7739 7.66338C79.0098 7.66324 79.2434 7.7096 79.4613 7.79981C79.6793 7.89002 79.8773 8.0223 80.0441 8.18909C80.2109 8.35589 80.3432 8.55393 80.4334 8.77188C80.5236 8.98984 80.57 9.22344 80.5699 9.45932V24.7845C80.5699 48.6088 57.5663 60.3841 56.5877 60.8735C56.3382 60.9979 56.0632 61.0627 55.7844 61.0629ZM34.5909 11.1992V24.7845C34.5909 44.0207 51.8207 54.9595 55.7844 57.2202C59.7446 54.9525 76.978 43.9786 76.978 24.7845V11.1992C69.4571 10.3914 62.2141 7.90331 55.7844 3.91891C49.3548 7.90331 42.1117 10.3914 34.5909 11.1992Z" fill="#1053FA"/>
<path d="M51.9549 38.0748C51.719 38.0751 51.4854 38.0288 51.2675 37.9385C51.0496 37.8482 50.8517 37.7157 50.6851 37.5486L43.0208 29.8861C42.8513 29.7199 42.7164 29.5219 42.6239 29.3033C42.5314 29.0847 42.4832 28.8499 42.482 28.6126C42.4808 28.3752 42.5266 28.14 42.6169 27.9205C42.7072 27.701 42.8401 27.5015 43.0079 27.3337C43.1757 27.1659 43.3752 27.033 43.5947 26.9427C43.8142 26.8524 44.0494 26.8066 44.2868 26.8078C44.5241 26.809 44.7589 26.8572 44.9775 26.9497C45.196 27.0422 45.3941 27.1771 45.5603 27.3466L51.9548 33.7394L66.0103 19.684C66.1764 19.5145 66.3745 19.3796 66.5931 19.2871C66.8116 19.1946 67.0464 19.1464 67.2837 19.1452C67.5211 19.144 67.7563 19.1898 67.9758 19.2801C68.1953 19.3704 68.3948 19.5033 68.5626 19.6711C68.7304 19.8389 68.8633 20.0384 68.9536 20.2579C69.0439 20.4774 69.0898 20.7126 69.0886 20.95C69.0874 21.1873 69.0391 21.4221 68.9466 21.6407C68.8542 21.8592 68.7192 22.0573 68.5497 22.2235L53.2246 37.5486C53.0581 37.7156 52.8601 37.8481 52.6422 37.9384C52.4244 38.0287 52.1908 38.0751 51.9549 38.0748Z" fill="#1053FA"/>
</svg>
