<svg width="104" height="104" viewBox="0 0 104 104" fill="none" xmlns="http://www.w3.org/2000/svg">
<path d="M88.1039 103.371C83.9481 103.371 80.0376 101.75 77.0942 98.8062C73.671 95.383 72.0517 90.5706 72.6704 85.7799L53.8875 66.9971C53.2363 66.3459 53.2363 65.2909 53.8875 64.6397C54.5387 63.9885 55.5937 63.9885 56.2449 64.6397L75.6279 84.0228C76.0175 84.4113 76.189 84.9681 76.0881 85.5086C75.3381 89.5037 76.596 93.5933 79.4515 96.4488C81.7655 98.7627 84.8381 100.037 88.1039 100.037C91.3685 100.037 94.4411 98.7627 96.7551 96.4488C99.0636 94.1403 100.335 91.071 100.333 87.8074C100.332 84.5427 99.0582 81.4701 96.7442 79.1561C93.8887 76.3006 89.8024 75.0405 85.804 75.7927C85.2635 75.8914 84.7078 75.7221 84.3182 75.3325L59.7559 50.7702C59.1047 50.119 59.1047 49.0641 59.7559 48.4129C60.4071 47.7617 61.4621 47.7617 62.1133 48.4129L86.0754 72.3749C90.8715 71.7563 95.6784 73.3767 99.1016 76.7988C102.045 79.7411 103.667 83.6505 103.668 87.8063C103.67 91.9609 102.052 95.8682 99.1124 98.8062C96.169 101.75 92.2596 103.371 88.1039 103.371ZM86.5453 95.3146C86.109 95.3146 85.6836 95.1431 85.3666 94.8262L81.0904 90.55C80.6693 90.1289 80.5043 89.5146 80.6595 88.9383L82.2289 83.1013C82.383 82.5272 82.8324 82.0779 83.4076 81.9237L89.2348 80.3641C89.81 80.2111 90.4232 80.375 90.8443 80.7961L95.1206 85.0723C95.5417 85.4934 95.7066 86.1066 95.5525 86.6819L93.9918 92.5079C93.8377 93.0832 93.3894 93.5325 92.8142 93.6866L86.9784 95.2571C86.8351 95.2962 86.6897 95.3146 86.5453 95.3146ZM89.2348 92.5079L87.0424 91.7873L91.0202 90.7171L88.1039 86.6819L89.1675 83.8339L93.9918 92.5079H89.2348ZM37.8614 50.2807C37.4349 50.2807 37.0084 50.1179 36.6828 49.7923L17.9021 31.0117C13.1266 31.6401 8.30989 30.0207 4.87372 26.5856C0.363058 22.075 -0.945858 15.3763 1.53956 9.51872C1.75663 9.00861 2.21247 8.6396 2.75623 8.53323C3.29889 8.42795 3.8611 8.59944 4.25291 8.99125L12.152 16.8892L16.1265 15.8224L17.1858 11.8576L9.27476 3.94551C8.88187 3.55262 8.71038 2.99042 8.81783 2.44558C8.92528 1.90074 9.29646 1.4449 9.80874 1.23C15.6924 -1.24023 22.3921 0.0773705 26.8833 4.57935C30.3162 8.01336 31.9366 12.8257 31.3071 17.6067L55.267 41.5666C55.9182 42.2178 55.9182 43.2727 55.267 43.9239C54.6158 44.5751 53.5608 44.5751 52.9096 43.9239L28.3474 19.3616C27.9567 18.9709 27.7852 18.4131 27.8883 17.8704C28.648 13.8905 27.3901 9.80199 24.5237 6.93562C21.6161 4.0204 17.5331 2.80699 13.5955 3.55154L20.2236 10.1797C20.6447 10.6008 20.8097 11.214 20.6556 11.7892L19.0992 17.6132C18.9451 18.1884 18.4958 18.6377 17.9206 18.7918L12.0858 20.3591C11.516 20.5175 10.8963 20.3504 10.4751 19.9282L3.85133 13.3044C3.09811 17.2246 4.31151 21.3087 7.23107 24.2283C10.0974 27.0958 14.187 28.3569 18.1658 27.5928C18.7096 27.4919 19.2664 27.6612 19.6571 28.0519L39.0401 47.435C39.6913 48.0862 39.6913 49.1411 39.0401 49.7923C38.7145 50.1179 38.288 50.2807 37.8614 50.2807Z" fill="#1053FA"/>
<path d="M15.1367 103.025C11.427 103.025 7.7162 101.613 4.89216 98.7878C-0.757021 93.1386 -0.757021 83.9458 4.89216 78.2966L24.1298 59.059C25.5103 57.6763 27.9208 57.6752 29.3036 59.0601C29.4577 59.2142 29.602 59.2164 29.7605 59.0601L31.5046 57.317C31.6305 57.1911 31.6305 56.9849 31.5046 56.8579C30.8133 56.1666 30.4323 55.2484 30.4323 54.2705C30.4323 53.2926 30.8133 52.3744 31.5057 51.683L35.1817 48.007C36.5623 46.6243 38.9728 46.6243 40.3555 48.007L55.6718 63.3244C56.3632 64.0146 56.7441 64.9328 56.7441 65.9107C56.7441 66.8886 56.3632 67.8068 55.6707 68.4982L51.9947 72.1753C50.5686 73.6014 48.2481 73.6003 46.822 72.1764C46.6613 72.0158 46.5202 72.0179 46.364 72.1742L44.6198 73.9173C44.4939 74.0442 44.4939 74.2505 44.6209 74.3774C45.3112 75.0666 45.6921 75.9848 45.6921 76.9627C45.6921 77.9406 45.3112 78.8588 44.6198 79.5502L25.3822 98.7878C22.5582 101.613 18.8474 103.025 15.1367 103.025ZM26.7161 61.3208C26.6553 61.3208 26.5663 61.3371 26.4882 61.4153L7.24951 80.6539C2.90056 85.004 2.90056 92.0804 7.24951 96.4304C9.35615 98.537 12.1574 99.6973 15.1377 99.6973C18.117 99.6973 20.9182 98.537 23.0249 96.4304L42.2625 77.1928C42.3417 77.1136 42.358 77.0246 42.358 76.9627C42.358 76.9019 42.3417 76.8129 42.2636 76.7348C40.8363 75.3065 40.8363 72.985 42.2625 71.5599L44.0055 69.8179C45.3882 68.4341 47.7966 68.4352 49.1793 69.819C49.3063 69.9438 49.5125 69.9428 49.6373 69.8179L53.3145 66.1397C53.3937 66.0605 53.41 65.9715 53.41 65.9107C53.41 65.85 53.3937 65.761 53.3155 65.6828L37.9982 50.3644C37.8408 50.2059 37.6965 50.2048 37.5402 50.3633L33.862 54.0415C33.7827 54.1207 33.7665 54.2097 33.7665 54.2705C33.7665 54.3324 33.7827 54.4214 33.862 54.5006C35.2881 55.9256 35.2881 58.2472 33.8631 59.6733L32.1189 61.4163C30.7384 62.7991 28.3278 62.7991 26.9451 61.4163C26.8659 61.3371 26.7769 61.3208 26.7161 61.3208Z" fill="#1053FA"/>
<path d="M50.2597 61.9339C49.8332 61.9339 49.4066 61.7711 49.081 61.4455L42.2325 54.5971C41.5813 53.9459 41.5813 52.8909 42.2325 52.2397L74.1805 20.2917L76.514 12.0193C76.6171 11.6535 76.8418 11.3334 77.1522 11.113L91.8617 0.657988C92.5238 0.186951 93.4322 0.262925 94.0064 0.838154L102.84 9.67171C103.415 10.2469 103.491 11.1532 103.02 11.8163L92.565 26.5259C92.3447 26.8363 92.0245 27.061 91.6588 27.1641L83.3863 29.4976L51.4384 61.4455C51.1128 61.7711 50.6862 61.9339 50.2597 61.9339ZM45.7686 53.4184L50.2597 57.9095L74.1805 20.2917C74.3824 20.0899 81.7876 26.4847 82.0622 26.4076L90.1881 24.1154L99.4862 11.0327L92.6453 4.19185L79.5627 13.4899L77.2705 21.6158C77.1934 21.8904 51.6402 61.2437 51.4384 61.4455L45.7686 53.4184Z" fill="#1053FA"/>
<path d="M15.4415 89.9105C15.015 89.9105 14.5884 89.7477 14.2628 89.4221C13.6116 88.7709 13.6116 87.716 14.2628 87.0648L28.8259 72.5017C29.4771 71.8505 30.532 71.8505 31.1832 72.5017C31.8344 73.1529 31.8344 74.2079 31.1832 74.8591L16.6202 89.4221C16.2946 89.7477 15.868 89.9105 15.4415 89.9105Z" fill="#1053FA"/>
</svg>
