<svg width="54" height="54" viewBox="0 0 54 54" fill="none" xmlns="http://www.w3.org/2000/svg">
<path d="M37.4013 19.2006C37.4013 24.0278 35.4837 28.6572 32.0704 32.0704C28.6572 35.4837 24.0278 37.4013 19.2006 37.4013C14.3735 37.4013 9.74413 35.4837 6.33084 32.0704C2.91756 28.6572 1 24.0278 1 19.2006C1 14.3735 2.91756 9.74413 6.33084 6.33084C9.74413 2.91756 14.3735 1 19.2006 1C24.0278 1 28.6572 2.91756 32.0704 6.33084C35.4837 9.74413 37.4013 14.3735 37.4013 19.2006Z" stroke="#104DFA" stroke-width="2" stroke-linecap="round" stroke-linejoin="round"/>
<path d="M16.6679 36.3792C16.4328 33.6799 16.8033 30.9622 17.7523 28.4244C18.7014 25.8866 20.2051 23.5927 22.1538 21.7101C24.1024 19.8275 26.4468 18.4037 29.0158 17.5426C31.5848 16.6815 34.3137 16.4049 37.0032 16.7329M45.1935 19.8582C47.3788 21.3788 49.2039 23.3603 50.5401 25.6629C51.8763 27.9655 52.6911 30.5332 52.927 33.185C53.1629 35.8368 52.8143 38.508 51.9056 41.0104C50.9969 43.5127 49.5503 45.7853 47.6678 47.6678C45.7853 49.5503 43.5127 50.9969 41.0104 51.9056C38.508 52.8143 35.8368 53.1629 33.185 52.927C30.5332 52.6911 27.9655 51.8763 25.6629 50.5401C23.3603 49.2039 21.3788 47.3788 19.8582 45.1935M12.7002 2.2998L36.101 25.7006M2.2998 12.7002L25.7006 36.101" stroke="#104DFA" stroke-width="2" stroke-linecap="round" stroke-linejoin="round"/>
</svg>
