<svg width="46" height="56" viewBox="0 0 46 56" fill="none" xmlns="http://www.w3.org/2000/svg">
<path d="M22.2082 54.8325C22.4289 54.9426 22.672 54.9999 22.9186 55C23.1651 54.9999 23.4083 54.9426 23.6289 54.8325C24.4944 54.3998 44.8372 43.9864 44.8372 22.9178V9.3652C44.8373 9.1566 44.7963 8.95002 44.7165 8.75728C44.6368 8.56453 44.5198 8.3894 44.3723 8.2419C44.2248 8.09439 44.0496 7.97741 43.8569 7.89764C43.6642 7.81787 43.4576 7.77687 43.249 7.77699C36.3243 7.26394 29.638 5.02615 23.7995 1.26754C23.5389 1.09311 23.2323 1 22.9186 1C22.6049 1 22.2983 1.09311 22.0376 1.26754C16.2015 5.0311 9.51401 7.26933 2.58821 7.77699C2.37961 7.77687 2.17303 7.81787 1.98029 7.89764C1.78754 7.97741 1.61241 8.09439 1.46491 8.2419C1.3174 8.3894 1.20042 8.56453 1.12065 8.75728C1.04087 8.95002 0.999879 9.1566 1 9.3652V22.9178C1 43.9864 21.3428 54.3998 22.2082 54.8325Z" stroke="white"/>
<path d="M22.9186 55C22.672 54.9999 22.4289 54.9426 22.2082 54.8325C21.3428 54.3998 1 43.9864 1 22.9178V9.3652C0.999879 9.1566 1.04087 8.95002 1.12065 8.75728C1.20042 8.56453 1.3174 8.3894 1.46491 8.2419C1.61241 8.09439 1.78754 7.97741 1.98029 7.89764C2.17303 7.81787 2.37961 7.77687 2.58821 7.77699C9.51401 7.26933 16.2016 5.0311 22.0376 1.26754C22.2983 1.09311 22.6049 1 22.9186 1C23.2323 1 23.5389 1.09311 23.7995 1.26754C29.638 5.02615 36.3243 7.26394 43.249 7.77699C43.4576 7.77687 43.6642 7.81787 43.8569 7.89764C44.0496 7.97741 44.2248 8.09439 44.3723 8.2419C44.5198 8.3894 44.6368 8.56453 44.7165 8.75728C44.7963 8.95002 44.8373 9.1566 44.8372 9.3652V22.9178C44.8372 43.9864 24.4944 54.3998 23.6289 54.8325C23.4083 54.9426 23.1651 54.9999 22.9186 55ZM4.17643 10.9038V22.9178C4.17643 39.929 19.4133 49.6025 22.9186 51.6018C26.4207 49.5964 41.6608 39.8918 41.6608 22.9178V10.9038C35.0098 10.1895 28.6045 7.98917 22.9186 4.46563C17.2327 7.98917 10.8274 10.1895 4.17643 10.9038Z" fill="#1053FA" stroke="white"/>
<path d="M19.532 34.6708C19.3234 34.6711 19.1169 34.6301 18.9242 34.5502C18.7314 34.4704 18.5564 34.3532 18.4091 34.2055L11.6313 27.4292C11.4814 27.2823 11.3621 27.1072 11.2803 26.9138C11.1985 26.7205 11.1559 26.5129 11.1548 26.303C11.1537 26.0932 11.1943 25.8851 11.2741 25.691C11.354 25.4969 11.4715 25.3205 11.6199 25.1721C11.7683 25.0237 11.9447 24.9062 12.1388 24.8263C12.3329 24.7465 12.541 24.7059 12.7509 24.707C12.9608 24.7081 13.1684 24.7507 13.3617 24.8325C13.555 24.9143 13.7301 25.0336 13.877 25.1835L19.5319 30.8369L31.9617 18.4072C32.1086 18.2573 32.2838 18.138 32.4771 18.0562C32.6704 17.9744 32.878 17.9317 33.0879 17.9307C33.2978 17.9296 33.5058 17.9702 33.6999 18.05C33.894 18.1299 34.0704 18.2474 34.2188 18.3958C34.3673 18.5442 34.4848 18.7206 34.5646 18.9147C34.6444 19.1088 34.685 19.3168 34.6839 19.5267C34.6829 19.7366 34.6402 19.9442 34.5584 20.1375C34.4766 20.3308 34.3573 20.506 34.2074 20.6529L20.6549 34.2055C20.5076 34.3532 20.3326 34.4703 20.1399 34.5502C19.9472 34.6301 19.7406 34.6711 19.532 34.6708Z" fill="#1053FA" stroke="white"/>
</svg>
