<svg xmlns="http://www.w3.org/2000/svg" width="18.524" height="18.052" viewBox="0 0 18.524 18.052">
    <g data-name="Group 16065">
        <path data-name="Path 2211" d="M2991.648 1888.464h-7.487a5.456 5.456 0 0 0-5.519 5.378v7.3a5.456 5.456 0 0 0 5.519 5.377h7.487a5.456 5.456 0 0 0 5.518-5.377v-7.3a5.456 5.456 0 0 0-5.518-5.378zm3.655 12.675a3.609 3.609 0 0 1-3.655 3.561h-7.487a3.609 3.609 0 0 1-3.655-3.561v-7.3a3.609 3.609 0 0 1 3.655-3.562h7.487a3.609 3.609 0 0 1 3.655 3.562v7.3z" transform="translate(-2978.643 -1888.464)" style="fill:#fff"/>
        <path data-name="Path 2212" d="M3007.571 1912.6a4.561 4.561 0 1 0 4.79 4.555 4.683 4.683 0 0 0-4.79-4.555zm0 7.338a2.787 2.787 0 1 1 2.927-2.783 2.858 2.858 0 0 1-2.927 2.784z" transform="translate(-2998.308 -1908.13)" style="fill:#fff"/>
        <circle data-name="Ellipse 55" cx="1.148" cy="1.148" transform="translate(12.914 3.261)" style="fill:#fff" r="1.148"/>
    </g>
</svg>
