<svg width="30" height="30" viewBox="0 0 30 30" fill="none" xmlns="http://www.w3.org/2000/svg">
<path d="M14.876 3.17318C18.7724 3.17318 19.2338 3.18783 20.773 3.25828C21.6985 3.26965 22.6152 3.44023 23.4832 3.7626C24.1127 4.00628 24.6844 4.37957 25.1614 4.85844C25.6385 5.33731 26.0104 5.91114 26.2531 6.543C26.5743 7.41431 26.7442 8.33444 26.7556 9.2634C26.8251 10.8085 26.8403 11.2716 26.8403 15.1827C26.8403 19.0938 26.8258 19.557 26.7556 21.1021C26.7442 22.031 26.5743 22.9512 26.2531 23.8225C26.0104 24.4543 25.6385 25.0282 25.1614 25.507C24.6844 25.9859 24.1127 26.3592 23.4832 26.6029C22.6152 26.9252 21.6985 27.0958 20.773 27.1072C19.2345 27.1769 18.7731 27.1923 14.876 27.1923C10.9789 27.1923 10.5174 27.1776 8.9789 27.1072C8.05343 27.0958 7.13676 26.9252 6.26873 26.6029C5.63924 26.3592 5.06757 25.9859 4.5905 25.507C4.11344 25.0282 3.74155 24.4543 3.49879 23.8225C3.17763 22.9512 3.00769 22.031 2.99636 21.1021C2.92687 19.557 2.91158 19.0938 2.91158 15.1827C2.91158 11.2716 2.92618 10.8085 2.99636 9.2634C3.00769 8.33444 3.17763 7.41431 3.49879 6.543C3.74155 5.91114 4.11344 5.33731 4.5905 4.85844C5.06757 4.37957 5.63924 4.00628 6.26873 3.7626C7.13676 3.44023 8.05343 3.26965 8.9789 3.25828C10.5181 3.18853 10.9796 3.17318 14.876 3.17318ZM14.876 0.533691C10.9149 0.533691 10.416 0.550432 8.85938 0.621581C7.64817 0.645764 6.44982 0.875961 5.3153 1.30238C4.34207 1.67045 3.46056 2.24724 2.7323 2.99252C1.98915 3.7238 1.41403 4.60914 1.04712 5.58667C0.622307 6.72547 0.392976 7.92835 0.368885 9.14412C0.299393 10.7052 0.282715 11.2061 0.282715 15.182C0.282715 19.158 0.299393 19.6588 0.370274 21.2213C0.394366 22.4371 0.623697 23.64 1.04851 24.7788C1.41502 25.7562 1.98965 26.6415 2.7323 27.3729C3.46097 28.1184 4.34296 28.6952 5.31669 29.0631C6.45121 29.4895 7.64956 29.7197 8.86077 29.7439C10.4174 29.8136 10.9142 29.8318 14.8774 29.8318C18.8405 29.8318 19.3373 29.815 20.8939 29.7439C22.1051 29.7197 23.3035 29.4895 24.438 29.0631C25.4071 28.686 26.2872 28.1101 27.0219 27.3721C27.7566 26.6342 28.3298 25.7504 28.7048 24.7774C29.1296 23.6386 29.359 22.4357 29.383 21.2199C29.4525 19.6588 29.4692 19.158 29.4692 15.182C29.4692 11.2061 29.4525 10.7052 29.3817 9.14273C29.3576 7.92695 29.1282 6.72408 28.7034 5.58528C28.3369 4.60787 27.7623 3.72255 27.0196 2.99112C26.291 2.24568 25.409 1.66887 24.4352 1.30099C23.3007 0.874565 22.1024 0.644369 20.8912 0.620186C19.3359 0.550432 18.837 0.533691 14.876 0.533691Z" fill="white"/>
</svg>
