<svg xmlns="http://www.w3.org/2000/svg" width="17.353" height="17.353" viewBox="0 0 17.353 17.353">
    <g data-name="Layer 3">
        <path data-name="Path 2597" d="M17.795 13.491c-.031-.025-3.495-2.5-4.435-2.342-.452.08-.71.388-1.228 1-.083.1-.284.337-.439.507a7.206 7.206 0 0 1-.955-.389 7.925 7.925 0 0 1-3.656-3.652 7.206 7.206 0 0 1-.389-.955c.17-.156.408-.356.51-.442.614-.515.921-.773 1-1.226.164-.936-2.317-4.4-2.342-4.435A1.324 1.324 0 0 0 4.876 1C3.87 1 1 4.723 1 5.35c0 .036.053 3.741 4.621 8.387 4.641 4.563 8.345 4.616 8.379 4.616.628 0 4.35-2.87 4.35-3.876a1.323 1.323 0 0 0-.555-.986zm-3.856 3.7c-.506-.042-3.614-.452-7.5-4.27C2.6 9.015 2.2 5.9 2.161 5.415A15.649 15.649 0 0 1 4.883 2.2c.023.023.054.058.093.1a20.471 20.471 0 0 1 2.068 3.509 6.875 6.875 0 0 1-.588.527 5.8 5.8 0 0 0-.875.823l-.141.2.042.238a6.6 6.6 0 0 0 .559 1.523 9.087 9.087 0 0 0 4.193 4.192 6.588 6.588 0 0 0 1.528.559l.238.042.2-.141a5.852 5.852 0 0 0 .826-.878c.181-.216.423-.5.515-.587a20.34 20.34 0 0 1 3.516 2.07c.048.04.082.072.1.092a15.636 15.636 0 0 1-3.217 2.723z" style="fill:#fff" transform="translate(-1 -1)"/>
    </g>
</svg>
