<svg width="31" height="30" viewBox="0 0 31 30" fill="none" xmlns="http://www.w3.org/2000/svg">
<path d="M12.1558 12.9921C12.1558 11.3385 13.4994 9.99475 15.1558 9.99475C16.8121 9.99475 18.1558 11.3385 18.1558 12.9921C18.1558 14.6458 16.8121 15.9896 15.1558 15.9896C13.4994 15.9896 12.1558 14.6458 12.1558 12.9921Z" fill="white"/>
<path fill-rule="evenodd" clip-rule="evenodd" d="M2.15576 12.9921C2.15576 5.81754 7.9781 0 15.1558 0C22.3334 0 28.1558 5.81754 28.1558 12.9921C28.1558 18.3402 25.4792 22.5771 22.6126 25.4418C21.1761 26.8775 19.6712 27.9905 18.3823 28.7502C17.7381 29.1299 17.1361 29.4282 16.6127 29.6348C16.1186 29.8298 15.6 29.9818 15.1558 29.9818C14.7115 29.9818 14.1929 29.8298 13.6988 29.6348C13.1754 29.4282 12.5734 29.1299 11.9293 28.7502C10.6403 27.9905 9.13544 26.8775 7.69888 25.4418C4.83234 22.5771 2.15576 18.3402 2.15576 12.9921ZM15.1558 7.99475C12.3961 7.99475 10.1558 10.2327 10.1558 12.9921C10.1558 15.7516 12.3961 17.9896 15.1558 17.9896C17.9154 17.9896 20.1558 15.7516 20.1558 12.9921C20.1558 10.2327 17.9154 7.99475 15.1558 7.99475Z" fill="white"/>
</svg>
