<svg xmlns="http://www.w3.org/2000/svg" width="495.97" height="494.839" viewBox="0 0 495.97 494.839">
    <path data-name="Path 2987@2x" d="M372.413 2.58c-2.061-.38-98.207-14.136-120.913 44.935s-1.467 91.768-1.467 91.768S163.206 58.067 99.95 91.369s-87.5 9.462-92.143 51.622-20.5 52.7 17.679 108.928 105.029 95.633 105.029 95.633 39.816 4.759 50.06-14.393 18.392-21.285 18.392-21.285 3.385 46.715 6.348 70.481A96.557 96.557 0 0 0 222 428.448c6.258 8.9 2.149 27.853 2.149 27.853l68.364 39.47L387.9 330.547s8.543-34.539-7.558-46.114-10.377-10.219-10.377-10.219a288.46 288.46 0 0 1 17.208-28.4c2.755-2.235 14.576-2.982 25.22-13.517s52.024-41.337 59.449-47.712 23.131-41.334 24.667-42.726-46.746-99.18-46.746-99.18z" transform="translate(-.58 -.932)" style="fill:#eda7da"/>
</svg>
