<svg xmlns="http://www.w3.org/2000/svg" width="533.921" height="664.711" viewBox="0 0 533.921 664.711">
    <defs>
        <clipPath id="zggybuibxa">
            <path data-name="Rectangle 11" style="fill:none" d="M0 0h478.465v614.976H0z"/>
        </clipPath>
    </defs>
    <g data-name="Group 16100">
        <g data-name="Group 19" transform="translate(55.456)" style="clip-path:url(#zggybuibxa)">
            <path data-name="Path 429" d="M1138.1 95.906s-1.552-8.226-5.344-10.344c-3.029-1.7-10.1-1.65-10.1-1.65l-7.856-3.448-8.275-3.251-8.644-1.281-8.891-.493-10.541.788-10.491-.714-10.344-.345-10.319 1.207-10.171 2.069-10.073 2.463-9.851 3.275-9.629 3.891L998.334 93l-9.161 4.926-8.94 5.369-8.743 5.689-8.718 5.714-8.644 5.812-8.521 6.034-8.5 6.058-8.373 6.182-8.176 5.886-8.2 6.083-8.053 6.255-7.684 6.674-7.585 6.822-7.167 7.388-7.043 7.388-6.6 7.684-6.428 8.053-6.3 8.176-6.034 8.4-6.034 8.373-5.96 8.4-5.566 8.6-5.541 8.669-5.344 8.792-4.926 8.3-5.1 8.2-4.926 8.25-5.1 8.2-5.123 8.176-5.812 9.629-5.714 9.629-6.6 8.989-8.053 7.782-7.068 6.058-7.388 5.467-8.472 3.67-9.186 1.4-9.26-.493-9.211-1.231-10.541-1.724-10.565-1.453-10.614-1.281-10.664-.542-10.639.542-10.516 1.847-9.851 3.817-9.851 5.123-9.654 5.615-1.207 6.157 9.58.714 9.408 1.872 8.891 3.67 8.25 3.867 8.2 3.965 7.708 4.926 5.443 7.068 1.675 9.137 1.207 9.186 1.108 9.211.788 9.235 3.423 7.388 7.388-1.822 6.453-6.576 6.28-6.773 6.379-6.674 6.452-6.625 6.329-6.748 6.428-6.625 8.152-7.659 9.26-6.182 10.787-2.857 9.285-1.158 9.235-1.625 9.26-1.552 9.186-1.822 9.211-1.749 9.235-1.7 9.186-1.724 9.432-2.29 9.26-2.906 9.211-3.054 9.186-3.1 9.137-3.275 9.137-3.3 9.161-3.152 9.161-4.507 8.669-5.467 8.3-5.984 8.078-6.28 8-6.379 7.881-6.526 7.832-6.6 7.39-6.456 7.216-6.551 7.216-6.6 6.871-3.743.2 9.851 2.463 9.556 4.433 8.817 4.925 7.905 6.009 7.043 8.324-2.093 5.27-7.265 4.507-7.979 3.645-8.4 3.128-8.6 4.728 1.65 7.043 3.522 7.167-2.832 5.369-7.536 4.211-8.226 2.808-8.841 1.9-10.688 1.034-10.787-.813-10.812-1.921-8.25-1.945-8.25-2.118-8.2-1.034-8.373 3.152-7.905 4.8-8.866 5.738-8.3 6.526-7.659 7.24-6.6 9.851-.788 11.7.32 11.181-3.645 10.959-8.078 7.043-10.147 3.522-9.851 2.709-10.023 2.463-10.1 1.65-10.27z" transform="translate(-724.943 49.544)" style="fill:#68877b"/>
            <path data-name="Path 430" d="M714.578 151.406h7.022l.838-.172h.222a19.917 19.917 0 0 0 1.847-.566 12.888 12.888 0 0 0 1.453-.566 14.416 14.416 0 0 0 1.379-.64 35.874 35.874 0 0 0 2.217-1.231l2.463-1.5.3-.2a19.56 19.56 0 0 1 3-1.65 20.842 20.842 0 0 1 2.02-.591h.172l.493-.123 1.478-.394c.714-.172 1.453-.32 2.167-.443h.542l1.33-.246.739-.148 1.281-.246c.69-.148 1.4-.271 2.093-.369h.32a7.138 7.138 0 0 0 1.724-.345 18.118 18.118 0 0 0 1.97-.591h.345l.788-.3h.566a11.326 11.326 0 0 0 1.207-.64l.665-.419.246-.148a6.11 6.11 0 0 0 .64-.468l.32-.222c.616-.419 1.133-.837 1.6-1.207l.493-.394.468-.394.517-.468.271-.246a32.008 32.008 0 0 0 2.857-4.014l1.551-1.9.985-1.33.246-.345a5.957 5.957 0 0 0 .345-.493l.148-.246.123-.172a5.243 5.243 0 0 0 .394-.616l1.157-1.995c.32-.566.616-1.182.911-1.749s.591-1.207.911-1.8a59.45 59.45 0 0 1 2.093-3.546l.517-.788a60.966 60.966 0 0 1 1.8-2.684l2.463-3.325 1.231-1.7.837-1.01.172-.2a2.119 2.119 0 0 1 .32-.345q.37-.443.813-.887l1.5-1.428 1.552-1.4 1.034-.837.345-.3.837-.591.763-.493h.271l.69-.394.37-.2.739-.394.222-.123 1.9-.862h.222l.714-.3.419-.172.566-.222.468-.148.911-.3.813-.246h.246l.493-.123.739-.172.788-.172h4.778a21.051 21.051 0 0 1 3.128.419.763.763 0 0 0 .517-.222.814.814 0 0 0 .246-.566.763.763 0 0 0-.2-.591h-.148v-.616a6.133 6.133 0 0 1 0-.665v-.2c0-.3.123-.616.148-.911s0-.911 0-1.355v-1.499a1.97 1.97 0 0 0-.763-1.6 1.576 1.576 0 0 0-.665-.172H799.1a14.607 14.607 0 0 0-2.044.172l-1.4.271-.64.123c-.64.148-1.354.246-2.192.369l-1.97.369-1.5.369h-.32q-.961.222-1.921.517c-.64.222-1.281.493-1.9.763h-.246l-1.108.443-.788.32a13.845 13.845 0 0 0-2.832 1.527l-1.748 1.207a32.422 32.422 0 0 0-2.635 2.167l-.714.616c-.886.763-1.749 1.6-2.586 2.463l-.3.271-1.478 1.428c-.419.419-.862.887-1.379 1.5-.222.271-.468.542-.665.813v.123a8.118 8.118 0 0 0-.492.763l-.911 1.675a23.651 23.651 0 0 1-1.182 1.749 15.679 15.679 0 0 0-1.133 1.7l-.493.887-.32.517a1.5 1.5 0 0 0-.172.246 10.264 10.264 0 0 0-.862 1.822 7.026 7.026 0 0 1-.443.763l-.492.517a8.5 8.5 0 0 0-.64.69 12.171 12.171 0 0 0-1.108 1.478c-.69 1.084-1.4 2.167-2.069 3.251a17.879 17.879 0 0 0-.887 1.6v.148l-.3.566a35.3 35.3 0 0 1-.443.763c-.3.517-.566 1.034-.813 1.527a7.561 7.561 0 0 1-.886 1.305c-.246.3-.493.591-.764.862a9.838 9.838 0 0 1-1.133 1.133 6.945 6.945 0 0 1-1.207.616h-.222l-1.231.566h-.172l-.837.419-.345.172c-.419.222-.862.394-1.281.566a10.835 10.835 0 0 1-2.044.468c-.566 0-1.157.172-1.97.246h-2.044l-1.034.2-.763.2h-.271l-1.33.369-.739.2c-.443.148-.911.246-1.354.369l-.64.172-1.847.591-1.921.739a12.843 12.843 0 0 0-1.527.837 10.182 10.182 0 0 0-1.33.936l-.616.542-.419.369c-.271.246-.616.493-1.034.813a18.29 18.29 0 0 1-1.6.96l-.3.172a8.568 8.568 0 0 1-1.059.542h-.123l-.985.419-.837.3-.591.271-.591.172h-.246l-.936.271a5.91 5.91 0 0 1-1.059.172H716.6a15.3 15.3 0 0 1-2.463-.246l-3-.591a12.308 12.308 0 0 1-1.527-.493l-.443-.172-.961-.369-.542-.3-.542-.419a4.942 4.942 0 0 1-.616-.616v-.148a10.081 10.081 0 0 1-.246-1.182v-.246l-.148-.862v-.32a6.3 6.3 0 0 1-.123-.665v-3.965a14 14 0 0 1 0-1.453v-1.5a8.352 8.352 0 0 0 0-1.108 13.4 13.4 0 0 0-.172-1.995v-.2l-.3-1.995a11.156 11.156 0 0 0-.345-1.625v-.887a13.206 13.206 0 0 0-.345-1.33 2.745 2.745 0 0 0-.345-.862v-.2a4.784 4.784 0 0 0-.345-1.108c-.1-.369 0-.246 0-.369a11.71 11.71 0 0 1-.345-1.428v-3.349a17.682 17.682 0 0 1 0-1.946v-2.266a5.587 5.587 0 0 1 .271-.911 2.469 2.469 0 0 1 .173-.369v-.172c0-.172.172-.369.246-.566l.148-.3.32-.69.394-.862a8.315 8.315 0 0 1 .886-1.33l.271-.369.591-.788.222-.32a4.366 4.366 0 0 1 .3-.419 7.872 7.872 0 0 1 .665-.616l.2-.148 1.034-.862c.394-.345.837-.665 1.231-.96l.788-.591 1.034-.887.813-.69c.739-.591 1.4-1.108 2.019-1.552l1.724-1.108 1.133-.665a10.137 10.137 0 0 1 1.034-.517l.714-.271.32-.123 1.108-.443c.64-.3 1.33-.566 2.167-.911l2.266-.813 1.305-.443h.148l2.019-.763a8.554 8.554 0 0 0 .813-.443l.862-.468c1.231-.714 2.463-1.379 3.448-2.093.64-.419 1.256-.862 1.847-1.281l.419-.3a5.786 5.786 0 0 0 .714-.64 6.88 6.88 0 0 0 .69-.764 19.7 19.7 0 0 0 1.182-1.625l.148-.222 1.059-1.552a19.235 19.235 0 0 0 1.33-2.167 11.1 11.1 0 0 0 .837-2.463v-.246l.148-.763c.172-.837.32-1.5.468-2.143s.123-.566.2-.837l.148-.419a1.989 1.989 0 0 1 .2-.616 20.363 20.363 0 0 0 .493-2.118 10.39 10.39 0 0 0 .222-1.453v-1.8a2.874 2.874 0 0 1 .148-1.133v-.222a7.3 7.3 0 0 1 .271-1.428l.222-1.4a11.489 11.489 0 0 1 .271-1.182c.148-.443.271-.887.394-1.33a16.669 16.669 0 0 1 .823-2.159c.222-.394.443-.788.64-1.182s.394-.813.566-1.231v-.2a5.328 5.328 0 0 1 .542-.96 20.045 20.045 0 0 1 2.635-3.029l.837-.69.542-.419.271-.2 1.059-.763.616-.468c.3-.222.616-.468.936-.665l1.379-.837c.32-.2.665-.369 1.01-.542l.246-.123.345-.2.887-.443.887-.369.369-.148c.468-.2.887-.443 1.256-.64l.69-.394.566-.345a7.4 7.4 0 0 1 1.133-.517c.69-.246 1.4-.542 2.069-.813l1.133-.517.468-.222.665-.32 1.4-.468.961-.32 1.552-.566 1.084-.369.443-.172 1.8-.64h.32l.517-.2h.148l.271-.123.714-.271 1.995-.665 1.059-.345.911-.271c1.281-.394 2.61-.763 3.867-1.084s2.66-.739 3.793-1.133l.394-.123 1.576-.542.591-.172 1.281-.419 3.029-1.034.665-.2.887-.271a13.54 13.54 0 0 0 1.256-.517l.345-.148h.172l.443-.2a2.167 2.167 0 0 0 .961-1.256 3.881 3.881 0 0 0 .2-.911 6.041 6.041 0 0 0 0-.665 18.03 18.03 0 0 0-.222-3.4v-.911a2.96 2.96 0 0 0-.271-1.133 1.207 1.207 0 0 0-1.084-.69 1.4 1.4 0 0 0-.887.443l-.246.246-.493.394a21.569 21.569 0 0 1-2.463 2.29l-1.01.69-.911.542-.32.172-1.256.69-.887.394-.542.148-.345.123-.493.172-.763.246h-.222l-1.724.517h-.3l-.665.2-.468.123-.64.148-1.428.32-.616.123-4.088.911-1.157.271-.886.172-1.453.369-.493.123c-.961.222-1.921.542-2.881.813l-.837.271-4.285 1.281c-.566.148-1.133.32-1.675.517l-.566.172-.566.2-.813.32-.37.148c-1.305.493-2.463 1.059-3.743 1.625-1.182.591-2.463 1.182-3.6 1.847s-2.66 1.478-3.768 2.118c-.542.32-1.133.69-1.7 1.084a1.013 1.013 0 0 0-.271.172l-.714.493-.2.148-.837.616-.493.394-.172.172-.714.591-.837.763-.591.566-.271.3a41.1 41.1 0 0 0-2.881 3.152l-.616.788-.665.96a4.324 4.324 0 0 0-.345.566l-.148.246-.37.64-.2.32a61.497 61.497 0 0 0-1.9 3.472v.172c0 .222-.222.468-.345.69l-.148.345c0 .271-.271.542-.37.813l-.246.566-.319.862a2.581 2.581 0 0 1-.246.69c-.074.222 0 .222-.123.32a20.978 20.978 0 0 0-.739 2.463 27.186 27.186 0 0 0-.567 2.955c0 .862-.172 1.749-.246 2.611v.369a16.43 16.43 0 0 1-.345 2.857 10.219 10.219 0 0 1-.714 2.315l-.271.591v.222a2.714 2.714 0 0 0-.172.32c-.049.123-.3.591-.468.887l-.271.419-.246.419a12.538 12.538 0 0 1-1.034 1.4 15.542 15.542 0 0 1-1.675 1.724l-1.034.862a13.477 13.477 0 0 1-1.182.887l-.246.172-.246.148a32.389 32.389 0 0 1-3.2 1.921l-.714.369-.345.172-.69.32-.345.148-1.921.837h-.123l-2.093.911-1.552.665-.911.394c-1.01.419-2.044.862-3.054 1.379a41.284 41.284 0 0 0-3.645 1.995l-.591.369-.369.222-.69.443-.345.222-.64.443-.32.246-.714.493-.886.69-.616.517h-.148a19.2 19.2 0 0 0-1.428 1.33l-.788.837-.517.591-.246.3a13.748 13.748 0 0 0-1.231 1.724 4.091 4.091 0 0 0-.37.616l-.2.3a18.176 18.176 0 0 0-1.034 2.093 14.476 14.476 0 0 0-.837 2.463c-.123.542-.2 1.084-.271 1.625v.2a24.192 24.192 0 0 0-.246 4.039v3.078a2.713 2.713 0 0 0 .123.985v.32a8.636 8.636 0 0 0 .419 1.921c.148.591.32 1.281.468 1.995s.172.862.271 1.281.246 1.305.394 1.946l.148.591a5.147 5.147 0 0 0 .2.837c.049.271 0 .172 0 .271a4.951 4.951 0 0 1 .123.591v.911c0 .837.123 1.6.148 2.463a14.6 14.6 0 0 1 0 2.315l-.222 2.463v.394a16.922 16.922 0 0 1-.345 2.463 16.373 16.373 0 0 0-.246 1.921v1.995a6.436 6.436 0 0 0 .2 1.231v.3a2.5 2.5 0 0 0 .271.788v.271l.37.96a5.784 5.784 0 0 0 1.083 1.675c.394.468.862 1.034 1.355 1.552a11.5 11.5 0 0 0 1.552 1.281 4.556 4.556 0 0 0 .837.517l.222.148.665.345.32.148.862.394 2.019.887a19.332 19.332 0 0 0 5.27 1.256h.172a15.568 15.568 0 0 0 1.847.148h.517" transform="translate(-621.954 -30.337)" style="fill:#fff"/>
            <path data-name="Path 431" d="M717.214 148.046a7.092 7.092 0 0 0 1.724-.246l1.231-.3.665-.172 1.354-.271h.345c1.059-.2 2.093-.468 3.1-.714h.222l3.4-.862.714-.148h.148a15.437 15.437 0 0 0 2.02-.616 16.582 16.582 0 0 0 2.019-.936l1.256-.714a12.454 12.454 0 0 0 2.093-1.675 26.485 26.485 0 0 0 1.921-2.143l.222-.271a13.354 13.354 0 0 0 .837-1.158 12.321 12.321 0 0 0 1.133-2.069 14.342 14.342 0 0 0 .542-1.551c.148-.517.3-1.034.394-1.576s.222-1.182.32-1.8a21.868 21.868 0 0 1 1.01-3.275l.3-.813a.749.749 0 0 1 .2-.616v-.32a5.971 5.971 0 0 0 .222-.739c.148-.566.3-1.182.468-1.946a24.36 24.36 0 0 0 .813-6.649v-2.086l-.222-2.192a6.539 6.539 0 0 0-.2-1.946V108.3a5.732 5.732 0 0 0-.271-1.256c-.1-.419-.345-1.305-.517-1.946-.32-1.108-.665-2.241-1.034-3.374a15.472 15.472 0 0 0-1.527-3.522l-.985-1.625-1.084-1.6-.936-1.428-.985-1.527a1.081 1.081 0 0 1-.2-.271 2.244 2.244 0 0 1-.271-.394l-.566-.887c-.271-.443-.517-.911-.763-1.379a17.931 17.931 0 0 1-.911-1.822c-.222-.443-.468-.911-.69-1.379-.517-.985-1.059-1.921-1.576-2.857l-.172-.32c-.222-.369-.419-.739-.64-1.084l-.222-.369-.222-.369-.369-.542-.2-.271c-.517-.739-1.108-1.478-1.65-2.167l-.591-.763a26.87 26.87 0 0 0-1.207-1.453 15.32 15.32 0 0 0-1.921-1.749l-.3-.246-.37-.32-1.034-.862-.714-.566-.517-.345a6.485 6.485 0 0 0-1.083-.566 85.637 85.637 0 0 0-3.226-1.355l-.32-.148c-.468-.172-.936-.369-1.4-.517l-1.847-.591-2.463-.788-.936-.345-1.9-.69a15.622 15.622 0 0 1-1.97-1.231 11.86 11.86 0 0 1-.936-.714l-1.034-.911a10.96 10.96 0 0 1-1.281-1.551 21.265 21.265 0 0 1-1.478-2.758 23.794 23.794 0 0 1-.714-2.906 1.766 1.766 0 0 0-.172-.936 74.07 74.07 0 0 0-.837-3.6c-.148-.616-.345-1.207-.542-1.872a11.052 11.052 0 0 0-.69-1.7 16.136 16.136 0 0 0-1.33-2.044 10.761 10.761 0 0 0-3.128-2.758c-.493-.32-1.035-.616-1.576-.936l-1.108-.616a7.381 7.381 0 0 0-1.6-.616l-1.847-.665-1.102-.593-.37-.222a8.223 8.223 0 0 1-1.478-.911 4.917 4.917 0 0 1-.517-.493.846.846 0 0 0-1.4.345h-.222a1.3 1.3 0 0 1-.369-.123l-.69-.345-.714-.32-.37-.222-.271-.172a5.41 5.41 0 0 0-.763-.369h-.172a4.926 4.926 0 0 0-1.828-.368h-3.472a2.093 2.093 0 0 0-1.256.788 2.192 2.192 0 0 0-.419 1.576 5.853 5.853 0 0 0 0 1.084 8.2 8.2 0 0 0 .3 1.65c.1.493 0 .468.123.714s0 .591.172.887a2.589 2.589 0 0 1 .2.837 9.31 9.31 0 0 0 .37 1.084 7.419 7.419 0 0 0 .419.887v.148l.369.665c.2.32.443.616.665.911a8.164 8.164 0 0 0 .616.69l.246.271a14.957 14.957 0 0 0 1.576 1.428 8.693 8.693 0 0 0 2.709 1.355c.714.246 1.478.566 2.463.936l1.65.714.64.222.985.369a15.021 15.021 0 0 1 2.069 1.379 6.133 6.133 0 0 1 .567.566l.32.591a3.159 3.159 0 0 1 .271.591 6.143 6.143 0 0 1 .394 1.453v.32l.222 1.305a11.361 11.361 0 0 0 .32 1.773 6.2 6.2 0 0 0 .616 1.8l.788 1.428A14.394 14.394 0 0 0 694.285 67a18.823 18.823 0 0 0 2.241 2.463c.419.394.837.739 1.281 1.084l.222.172 1.749 1.478h.148l.222.2.887.813.345.32c.443.419.911.813 1.453 1.256s.961.763 1.379 1.059a8.9 8.9 0 0 0 1.428.763 5.294 5.294 0 0 0 .887.271h.172l2.463.616 1.256.32 1.527.394h.271a12.941 12.941 0 0 1 1.256.468h.246l.616.271.591.246a8.051 8.051 0 0 0 1.305.419l.493.123.813.2 1.207.443.64.32a7.749 7.749 0 0 1 .665.468c.419.369.788.763 1.108 1.084l.148.172 1.157 1.182.566.566c.222.222.419.443.665.665l.468.443a6.521 6.521 0 0 1 .837.813 12.278 12.278 0 0 1 .739 1.4 11.216 11.216 0 0 1 .246 1.133v.32a2.251 2.251 0 0 0 .222 1.182c.222.394 0 .542.172.837l.222.64c.2.542.345 1.059.468 1.478l.123.345a3.481 3.481 0 0 0 .32 1.059c.123.345.443 1.108.69 1.625a11.524 11.524 0 0 0 .69 1.256 12.951 12.951 0 0 0 .813 1.207c.246.345.468.69.69 1.034.345.493.69.96 1.059 1.428a5.7 5.7 0 0 0 .936.985 8.263 8.263 0 0 0 .714.591l.468.369a5.218 5.218 0 0 1 .886.911 9 9 0 0 1 .69 1.182v3.645a5.129 5.129 0 0 1 0 .616v2.783a18.17 18.17 0 0 0 .246 1.822 5.418 5.418 0 0 0 .123.616 1.427 1.427 0 0 0 .2.862l.148.96v.64a8.909 8.909 0 0 0 .222 1.034 5.9 5.9 0 0 1 0 .64 5.551 5.551 0 0 0 .172.96 1.592 1.592 0 0 1 0 .493 4.409 4.409 0 0 1 0 .542 4.473 4.473 0 0 1-.271 1.133c-.1.369-.148.542-.2.788l-.148.591a5.992 5.992 0 0 1-.369 1.527c-.148.517-.345 1.305-.542 2.069a10.258 10.258 0 0 1-.591 1.724 9.461 9.461 0 0 1-.96 1.552 9.829 9.829 0 0 0-.739.96v.2c-.172.246-.32.517-.493.739l-.37.369-.591.566a5.787 5.787 0 0 0-.468.616l-.246.345a2.263 2.263 0 0 1-.369.345h-.123a.443.443 0 0 0-.172 0l-.591.566-.665.714-.148.148a7.174 7.174 0 0 1-.739.763 8.147 8.147 0 0 1-.812.369h-.271l-.419.172-.37.148a12.1 12.1 0 0 1-1.5.394l-1.5.3h-.889a7.386 7.386 0 0 1-1.034 0h-3.349l-1.207.2a16.28 16.28 0 0 1-3.078-.887c-.566-.271-1.33-.64-2.044-1.059a19.332 19.332 0 0 1-2.069-1.4l-2.241-1.65c-.345-.246-.69-.493-1.059-.714l-1.133-.763a15.566 15.566 0 0 1-1.822-2.216 11.063 11.063 0 0 1-1.01-1.773v-.493a29.3 29.3 0 0 0-1.182-3.078l-.369-.788a7.387 7.387 0 0 0-1.01-1.478l-.394-.517-.739-.887c-.37-.468-.714-.96-1.084-1.453a7.982 7.982 0 0 0-1.157-1.33c-.37-.369-.788-.739-1.33-1.231l-.739-.665a11.4 11.4 0 0 0-.985-.763 5.123 5.123 0 0 0-1.108-.566 26.228 26.228 0 0 0-3.669-1.158l-1.034-.222a4.78 4.78 0 0 1-.788-.172l-.542-.172-1.5-.665a3.522 3.522 0 0 1-.64-.369l-.394-.3-.271-.222a16.624 16.624 0 0 0-2.463-1.872 12.808 12.808 0 0 0-3.547-1.675 18.986 18.986 0 0 0-2.118-.345h-3.473l-1.084-.123h-.64c-1.379 0-2.463-.222-3.719-.271h-1.945a12.956 12.956 0 0 1-1.552-.172 3.546 3.546 0 0 1-.813-.222v-.172l-.443-.64-.345-.443-.148-.2a11.69 11.69 0 0 1-.886-1.749 4.505 4.505 0 0 0-.665-1.207 5.181 5.181 0 0 0-.689-.616l-.714-.542-.665-.591-.394-.369c-.419-.345-.837-.714-1.281-1.034a4.926 4.926 0 0 0-1.5-.616 6.8 6.8 0 0 0-.985-.148h-1.428l-.394.3a1.675 1.675 0 0 0-.394.64 2.589 2.589 0 0 0-.148.591v.419a5.286 5.286 0 0 0 0 .64v3.349a9.5 9.5 0 0 0 .2 2.463 3.279 3.279 0 0 0 .345 1.084 2.316 2.316 0 0 0 .764.788l.271.148.394.172a5.266 5.266 0 0 1 .689.394l.468.369.591.493c.394.369.739.763 1.084 1.158a10.073 10.073 0 0 0 .961 1.084l.566.517.788.616.468.271h.148a13.163 13.163 0 0 0 1.773.887c.591.2 1.182.345 1.675.468a20.4 20.4 0 0 0 2.02.419c.714.1 1.157.2 1.773.246h1.872l3.546.172a32.364 32.364 0 0 1 3.5.32h.763l.69.172h.32a2.8 2.8 0 0 1 .64.222h.32l.64.246h.246l1.822.96 1.108.665c.3.172.566.369.813.542l.222.148c.493.345 1.01.69 1.478 1.059l.591.419 1.822 1.379c.32.3.665.591.961.911l1.034 1.182q.886 1.084 1.773 2.29l.985 1.379.246.32.246.345.96 1.33c.271.394.542.788.788 1.207l.714 1.034 1.133 1.625.37.468.69 1.059c.468.665.936 1.379 1.428 2.044a13.021 13.021 0 0 0 1.133 1.379l1.231 1.305.2.2a9.839 9.839 0 0 0 1.034.985l.714.616a5.756 5.756 0 0 0 .763.591l.2.172a11.543 11.543 0 0 0 1.552.911l1.749.837h.148a38.153 38.153 0 0 0 4.926 1.724l1.748.493 1.773.566h.271l.887.3a11.381 11.381 0 0 0 1.256.246h.567" transform="translate(-687.956 -6.289)" style="fill:#fff"/>
            <path data-name="Path 432" d="M717.029 87.994a.985.985 0 0 0 .886-.616c.271-.739.517-1.33.764-1.872a16.551 16.551 0 0 1 .886-1.552l.32-.443.148-.222c.271-.394.566-.763.837-1.108l.911-1.207.419-.566.222-.32.345-.443a14.073 14.073 0 0 1 2.044-1.8l1.354-.96 1.675-1.133.468-.3h.148l.271-.172.591-.345.443-.246 1.182-.616c.936-.493 1.921-.96 2.832-1.4l.813-.394 1.01-.517.493-.246c.591-.32 1.182-.64 1.8-.936l.837-.443c.788-.419 1.6-.813 2.463-1.305s1.059-.665 1.675-1.059a19.13 19.13 0 0 0 1.625-1.133l.172-.123a25.683 25.683 0 0 0 2.832-2.463l.394-.369.394-.394.443-.468.222-.246a13.712 13.712 0 0 0 2.463-3.3 13.244 13.244 0 0 0 .862-2.463 13.1 13.1 0 0 1 .222-1.379 7.4 7.4 0 0 0 0-1.65 10.2 10.2 0 0 0-.271-1.182v-.123a3.34 3.34 0 0 0-.345-1.059l-.394-.96v-.271c-.2-.517-.468-1.01-.714-1.5v-.15a9.406 9.406 0 0 0-2.069-2.463l-2.29-2.241-.443-.443a15.106 15.106 0 0 0-1.157-1.034l-.222-.2a24.905 24.905 0 0 1-1.379-1.281 13.425 13.425 0 0 1-1.773-1.9 6.279 6.279 0 0 1-.615-1.133 12.294 12.294 0 0 1-.443-2.069v-4.95a5.952 5.952 0 0 0 0-.665v-1.052a5.749 5.749 0 0 0 0-.911 2.179 2.179 0 0 0 0-.394 12.806 12.806 0 0 0-1.281-4.531 15.015 15.015 0 0 0-1.428-2.217 14.508 14.508 0 0 0-1.8-1.946 17.805 17.805 0 0 0-4.778-3 18.1 18.1 0 0 0-5.123-1.305h-1.65a14.259 14.259 0 0 0-4.581.517 24.055 24.055 0 0 0-3 1.059l-.419.172-.517.246h-.172l-1.256.616a20.908 20.908 0 0 0-4.359 3.078 16.623 16.623 0 0 0-2.807 3.177c-.37.517-.739 1.084-1.158 1.749s-.886 1.379-1.305 2.069l-.591.911c-.813 1.305-1.65 2.684-2.463 4.236v.148c-.345.591-.714 1.231-1.108 1.847l-.222.345-.493.714-.246.345-.493.64a21.448 21.448 0 0 1-1.921 2.093 30.953 30.953 0 0 1-3.2 2.783 14.516 14.516 0 0 1-1.354.862l-.862.468a12.8 12.8 0 0 1-1.157.591l-.32.148c-.886.443-1.773.837-2.783 1.256s-2.34.837-3.3 1.157c-1.354.468-2.635 1.034-3.817 1.576a15.157 15.157 0 0 0-1.675.837l-.837.517c-.37.271-.714.517-1.034.788a25.814 25.814 0 0 0-2.66 2.463c-.394.443-.763.936-1.133 1.4l-1.034 1.355-.123.148q-.517.665-1.034 1.4a9.25 9.25 0 0 0-.591 1.084l-.148.32a3.72 3.72 0 0 0-.468 1.527 3.279 3.279 0 0 0 .345 1.4 5.738 5.738 0 0 0 1.034 1.625v.172a2.314 2.314 0 0 0 .714.665 1.824 1.824 0 0 0 .911.246h.443a2.241 2.241 0 0 0 1.207-.887 4 4 0 0 0 .419-.788v-.123l.148-.345.3-.714a12.8 12.8 0 0 1 1.231-1.995l1.478-1.773a10.031 10.031 0 0 1 1.354-1.355c.468-.32.96-.616 1.453-.911l.591-.369a11.5 11.5 0 0 1 1.65-.887l.714-.246h.2l.911-.32h.172l2.069-.763.887-.32a22.3 22.3 0 0 0 2.463-.985c.739-.369 1.133-.493 1.6-.739l1.453-.665 1.847-.665 1.256-.443a8.57 8.57 0 0 0 2.167-1.108c.468-.32.936-.69 1.33-1.01l.714-.591a10.859 10.859 0 0 0 1.133-1.256l.148-.172a19.839 19.839 0 0 0 1.9-2.906 10.208 10.208 0 0 0 .69-1.749l.222-.739a8.832 8.832 0 0 1 .246-.862v-.222a5.238 5.238 0 0 1 .739-1.034 20.936 20.936 0 0 1 1.847-1.773l.862-.788a27.687 27.687 0 0 0 2.463-2.611l.591-.665.64-.739a16.9 16.9 0 0 1 1.33-1.305 37.974 37.974 0 0 1 2.98-2.463l.468-.345 1.157-.763 1.354-.69.911-.468 1.724-.837c.64-.222 1.305-.369 1.8-.493a15.927 15.927 0 0 1 1.823-.369h.419a5.643 5.643 0 0 1 1.034.345l.542.32.419.3.3.222 1.256.936a6.829 6.829 0 0 1 .591.616 7.394 7.394 0 0 1 .566.985 13.445 13.445 0 0 1 .443 1.724 15.666 15.666 0 0 0 .3 1.773v4.485a6.433 6.433 0 0 0 0 .69 21 21 0 0 0 .246 2.093 2.911 2.911 0 0 1 0 .493 11.545 11.545 0 0 0 .222 1.281c.148.616.3 1.182.443 1.749a25.337 25.337 0 0 0 2 3.571 13.375 13.375 0 0 0 1.133 2.019l.443.591a4.93 4.93 0 0 0 .763.665l.394.271.591.419.862.591.788.443.222.123a12.581 12.581 0 0 1 1.847 1.207l.3.271.3.369a4.374 4.374 0 0 1 .394.739 7.078 7.078 0 0 1 .517 1.8 7.829 7.829 0 0 1 0 1.625v.246a11.76 11.76 0 0 1-.492 2.044 8.818 8.818 0 0 1-.739 1.133l-1.078 1.057-.542.493-.813.69-.517.394-.763.493-.542.3-.3.148-.591.271h-.271l-.64.271-.3.123-2.118.813-1.428.566h-.246l-1.305.517-.985.443a4.729 4.729 0 0 0-.615.3l-.32.148c-.566.271-1.034.517-1.453.763l-.911.517-.591.394-.3.222a41.862 41.862 0 0 0-5.984 4.926l-1.084 1.133v.123c-.419.468-.862.936-1.256 1.428l-.37.419c-.32.369-.665.763-.96 1.158l-1.133 1.527a7.982 7.982 0 0 0-1.232 2.192 16.59 16.59 0 0 0-.64 2.093 4.113 4.113 0 0 0 .3 3.276l.246.345.369.3.468.222h.246l.566.172.468.2.443.148a1.083 1.083 0 0 0 .394 0 1.355 1.355 0 0 0 .443 0 .935.935 0 0 0 .542.517h.271" transform="translate(-659.573 -38.788)" style="fill:#fff"/>
        </g>
        <path data-name="Path 428" d="m765.492 93.015-.65-.169a32.231 32.231 0 0 0-4.773-.706 29.176 29.176 0 0 0-5.169-.169h-.65a33.724 33.724 0 0 0-7.372 1.158 33.123 33.123 0 0 0-3.587 1.5l-.96.48-2.825 1.215h-.226a65.185 65.185 0 0 0-6.694 2.825l-1.1.537a222.79 222.79 0 0 1-5.819 2.825l-.96.367a55.894 55.894 0 0 0-7.4 3.051 54.286 54.286 0 0 0-7.683 5.056 55.966 55.966 0 0 0-5.423 5.056 43.305 43.305 0 0 0-5.226 6.271 41.982 41.982 0 0 0-3.389 6.638l-.255.593a19.351 19.351 0 0 0-1.892 7.739 21.884 21.884 0 0 0 .762 5.282l.254 1.1.339 1.441c.311 1.412.65 2.825.876 4.322v.226c.282 2.825.593 5.932 1.1 8.869.254 1.441.593 2.825.932 4.293v.4a26.949 26.949 0 0 1 .565 3.361c0 .763.141 1.5.2 2.231a17.954 17.954 0 0 0 .226 2.825 67.241 67.241 0 0 0 1.158 7.062c.367 1.582.876 3.079 1.441 4.745a50.176 50.176 0 0 1 1.328 5.112l.254 1.186a88.12 88.12 0 0 0 2.316 9.123 229.466 229.466 0 0 0 3.785 10.592 77.516 77.516 0 0 1 2.825 10.338 92.647 92.647 0 0 1 1.864 10.027l.141 1.356a34.124 34.124 0 0 0 .48 4.35 14.4 14.4 0 0 0 .452 2.825c.169.847.2 1.412.311 2.118a19.958 19.958 0 0 1 0 2.825 70.324 70.324 0 0 1-3.842 11.694c-1.1 2.231-2.26 4.435-3.389 6.638l-2.825 5.649c-1.5 3.051-2.825 6.214-4.152 9.321l-1.44 3.3c-1.13 2.486-2.316 4.943-3.5 7.429-2.825 5.932-5.649 12.089-8.135 18.36a120.867 120.867 0 0 0-3.954 13.953c-1.045 4.435-1.751 9.152-2.344 12.937a6.742 6.742 0 0 1-.282 1.469 13.842 13.842 0 0 0-.282 6.694 27.79 27.79 0 0 0 1.864 4.406 92.377 92.377 0 0 0 4.66 7.994l.678 1.1 1.13 1.836c3.672 5.9 7.457 12 11.637 17.71l1.638 2.344c.96 1.384 1.949 2.825 2.966 4.18l-.819.876c-1.13 1.271-2.316 2.6-3.418 3.983a52.573 52.573 0 0 0-3.757 5.649l-.367.565c-1.045 1.723-2.175 3.418-3.276 5.028a86.783 86.783 0 0 0-4.915 7.937c-1.412 2.655-2.627 5.338-3.559 7.372-.367.791-.734 1.61-1.13 2.4a73.675 73.675 0 0 0-2.825 6.864 74.515 74.515 0 0 0-2.429 8.163v.367a91.539 91.539 0 0 0-2.825 17.4 6.889 6.889 0 0 0 .452 2.825 76.39 76.39 0 0 0-1.243 6.892c-.2 1.5-.282 2.994-.339 4.463v2.311a36.03 36.03 0 0 1-.48 4.237 24.383 24.383 0 0 1-.311 2.457c-.282 2.373-.424 4.745-.537 7a37.676 37.676 0 0 1-.565 5.112l-.508 2.6c-.565 2.825-1.13 5.932-1.469 8.926s-.508 6.5-.649 9.688v.819c-.282 6.242-.367 12.908-.311 19.772a16.948 16.948 0 0 0 2.825 9.83l.282.4a16.5 16.5 0 0 0 2.6 3.164 12.421 12.421 0 0 0 2.825 2.147 43.98 43.98 0 0 0 3.248 1.412l4.152 1.553c1.695.593 3.474 1.243 5.169 1.921 4.745 1.949 9.688 3.531 14.49 5.056l4.689 1.5c6.638 2.175 13.388 4.661 20.648 7.6l5.225 2.373c3.559 1.638 7.231 3.333 10.875 4.943 1.412.621 2.825 1.3 4.237 1.949a149.882 149.882 0 0 0 14.829 6.327l.9.282 2.231.593 1.44.367 5.649 1.525.819.226c1.808.537 3.616 1.158 5.367 1.751l3.559 1.158c1.977.65 3.983 1.243 5.988 1.836a801.9 801.9 0 0 0 11.3 3.192l2.175.621 1.327.367c2.825.791 5.649 1.582 8.615 2.2a130.473 130.473 0 0 0 12.88 2.175 65.782 65.782 0 0 0 24.545-2.825c3.644-.96 6.949-1.921 10.112-2.825a97.732 97.732 0 0 0 9.434-3.559l1.836-.734c1.13-.424 2.457-.96 3.785-1.412 2.486-.819 4.858-1.553 7.259-2.175A109.508 109.508 0 0 1 897.4 574.8h.169c2.825-.282 5.169-.508 7.542-.678a66.688 66.688 0 0 1 13.388.424c7.316 1.243 14.518 2.316 20.619 3.22a168.266 168.266 0 0 0 20.45 2.034l4.858.141c5.451.141 11.072.311 16.609.593 1.892 0 3.757.254 5.649.424s3.276.254 4.915.339c3.531.226 7.174.2 10.366.169a49.2 49.2 0 0 0 6.129-.254l2.825-.141c2.994-.141 5.9-.311 8.841-.593 3.926-.4 7.4-.876 10.649-1.525a47.311 47.311 0 0 0 12.57-3.953c2.345-1.186 4.633-2.514 6.864-3.785l.48-.282.763-.424a49.21 49.21 0 0 0 9.462-6.468c1.751-1.667 3.615-3.531 5.875-5.847a56.945 56.945 0 0 1 5.395-5.141 106.278 106.278 0 0 1 20.054-10.648l10.564-4.35c3.757-1.553 7.542-3.135 11.3-4.661a170.477 170.477 0 0 0 18.219-7.937c3.135-1.666 6.186-3.474 8.474-4.858l1.271-.763c5.282-3.107 11.3-6.666 12.711-13.191a23.109 23.109 0 0 0 0-8.841 27.734 27.734 0 0 0-2.825-7.57 89.221 89.221 0 0 0-5.367-8.954q-2.754-4.237-5.254-8.474c-1.666-2.825-3.615-5.932-5.649-8.841a103.927 103.927 0 0 0-7.146-9.462 34.571 34.571 0 0 0-6.016-5.649 22.971 22.971 0 0 0-6.779-3.728l-.706-.2c-2.655-.593-5.282-1.1-8.191-1.666a103.806 103.806 0 0 0-11.3-1.3c-3.7-.282-6.666-.4-9.406-.339h-1.215a68.529 68.529 0 0 1-8.333 0l-2.655-.254-2.457-.254a30 30 0 0 0-8.078.706h-.508a59.314 59.314 0 0 0-9.349 2.825c-5.339 1.892-10.677 4.152-15.648 6.3a137.1 137.1 0 0 0-12.965 6.412c-1.61.9-3.164 1.892-4.689 2.825l-1.723 1.073c-1.667 1.045-3.841 2.4-5.988 3.841a29.607 29.607 0 0 0-5.141 4.293c-.735.734-1.469 1.5-2.231 2.2a42.377 42.377 0 0 1-4.237 3.644 79.36 79.36 0 0 1-7.6 4.548c-2.825 1.5-5.649 3.05-8.869 4.378a45.2 45.2 0 0 1-6.271 1.695l-1.158.254-2.316.452-1.384.311c-2.825.65-5.819 1.3-8.756 1.723a37.22 37.22 0 0 1-6.638 0 24.549 24.549 0 0 1-2.825-.763 77.778 77.778 0 0 1-8.474-3.107 41.993 41.993 0 0 1-4.66-2.825 25.924 25.924 0 0 0-3.333-1.977 40.937 40.937 0 0 0-6.666-2.655 29.953 29.953 0 0 0-2.627-.65c-2.825-.593-5.649-1.186-9.293-1.893a69.111 69.111 0 0 1-7-1.666c-.819-.226-1.638-.508-2.429-.763s-1.921-.706-2.824-1.1l-.565-.2c-1.836-.9-3.615-1.808-5.112-2.6l-.48-.226-2.375-1.268a12.268 12.268 0 0 0 1.3-.791 39.246 39.246 0 0 0 3.192-2.4l.734-.593a51.38 51.38 0 0 1 2.994-1.695l1.186-.65c.706-.4 1.412-.734 2.118-1.073a22.409 22.409 0 0 0 3.333-1.808c1.5-1.017 2.825-2.147 4.35-3.248l2.542-1.977 2.825-2.09a89.994 89.994 0 0 1 3.135-2.344 124.273 124.273 0 0 1 16.241-9.378c1.779-.847 3.615-1.666 5.423-2.486 1.356-.621 2.825-1.215 4.067-1.864 2.825-1.271 5.649-2.429 8.248-3.531l6.5-2.2c3.644-1.215 7.457-2.486 11.129-3.841s7.005-2.26 10.451-3.248c2.316-.65 4.689-1.328 7-2.09 3.983-1.271 8.135-2.26 12.174-3.22l5.649-1.384c1.977-.508 3.983-1.1 5.9-1.695a72.061 72.061 0 0 1 10.479-2.655c1.977-.2 3.954-.4 5.931-.65h.734a39.238 39.238 0 0 0 4.435-.734c.989-.254 1.949-.593 2.825-.9l1.441-.48c2.457-.791 4.491-1.5 6.327-2.288a29.38 29.38 0 0 0 5.649-3.361 44.187 44.187 0 0 1 3.813-2.486 11.1 11.1 0 0 0 4.773-1.751 13.677 13.677 0 0 0 3.051-2.514c.565-.621 1.073-1.271 1.61-1.921a50.436 50.436 0 0 0 4.745-6.242l.593-.96a66.639 66.639 0 0 1 3.728-5.649v-.141a49.789 49.789 0 0 1 4.576-4.887l.621-.339c2.288-.734 4.661-1.328 6.948-1.921l.537-.141a68.285 68.285 0 0 1 6.525-1.3h3.361a26.5 26.5 0 0 0 4.237 0 57.762 57.762 0 0 0 6.3-.876l1.13-.2a26.9 26.9 0 0 0 2.994-.65 52.933 52.933 0 0 0 16.185-9.321l1.3-.989 4.378-3.079 6.242-4.378 2.655-1.864a72.847 72.847 0 0 0 12.428-10.055c1.271-1.384 2.486-2.825 3.729-4.152l2.825-3.22c.593-.65 1.214-1.3 1.808-1.977 2.005-2.175 4.1-4.406 5.9-6.807a37.967 37.967 0 0 0 4.858-9.6l.678-1.808c.791-2.118 1.638-4.322 2.344-6.525a90.982 90.982 0 0 0 2.6-9.547c.424-1.949.9-3.9 1.384-5.649l.876-3.5c1.186-4.971 2.118-10.112 2.994-15.083.311-1.695.621-3.418.96-5.141a43.7 43.7 0 0 0 .706-5.2 26.672 26.672 0 0 0-.4-5.2v-.819a22.611 22.611 0 0 0-.706-3.559 11.806 11.806 0 0 0-5.649-7.118 37.042 37.042 0 0 0-4.971-2.118l-.988-.367-1.328-.48-2.824-1.1-.791-.367a43.635 43.635 0 0 0-6.638-2.825l-1.243-.339c-2.542-.565-5.169-.9-7.739-1.243l-2.4-.311h-.424l-2.4-.4h-.565c-1.13-.169-2.316-.367-3.5-.452a8.735 8.735 0 0 0-1.215 0h-2.2a13.36 13.36 0 0 0-6.016 1.554 22.8 22.8 0 0 0-3.5 2.429l-.932.706c-2.825 2.231-5.649 4.745-8.474 7.174l-3.982 3.559c-2.119 1.808-4.322 3.559-6.468 5.254s-4.632 3.644-6.864 5.649l-3.955 3.587c-2.316 2.147-4.745 4.35-7.287 6.355a53.679 53.679 0 0 1-9.745 4.915 55.228 55.228 0 0 1-10.762 2.825h-.282c.819-3.333 1.582-6.723 2.344-10.084.226-1.017.452-2.005.706-2.994a82.59 82.59 0 0 0 1.1-4.887c.424-2.147.706-4.322 1.017-6.44l.282-2.062c.2-1.3.424-2.627.621-3.926.452-2.627.876-5.254 1.271-7.852a63.713 63.713 0 0 0 .678-10.366v-6.5a33.176 33.176 0 0 0 0-4.1c-.2-1.779-.48-3.559-.734-5.282l-.226-1.271a3.234 3.234 0 0 0-.2-1.356v-.763a13.382 13.382 0 0 0-1.327-4.067 10.282 10.282 0 0 0-5.96-4.943h-.169a23.9 23.9 0 0 0-2.825-.48l-1.271-.254-1.921-.4c-2.627-.48-5.254-.819-7.485-1.073a70.611 70.611 0 0 0-10.056-.2 93.887 93.887 0 0 0-15.9 2.344l-4.491.9h-.226c-1.13.226-2.26.424-3.39.706a18.925 18.925 0 0 0-3.559 1.384l-1.1.508a35.54 35.54 0 0 0-4.293 2.175 31.082 31.082 0 0 0-2.824 2.062l-.48.4a13.719 13.719 0 0 0-2.6 2.825c-.226.283-.424.565-.65.819a9.311 9.311 0 0 0-1.13 2.09l-.339.734-.509 1.073-.282.565a117.832 117.832 0 0 0-2.147 4.774l-.48 1.073c-1.271 2.966-2.4 5.988-3.616 9.321l-.169.452a87.936 87.936 0 0 0-2.825 8.474 74.818 74.818 0 0 0-1.695 8.474l-.339 2.627v1.525a12.94 12.94 0 0 0 0 3.333 15.292 15.292 0 0 1 0 2.542 16.334 16.334 0 0 0 0 1.638v1.017a13.9 13.9 0 0 1-.424 1.44c-.565 1.186-1.186 2.4-1.78 3.587s-1.017 1.949-1.5 2.825a285.6 285.6 0 0 0-3.672 7.824l.254-.537a88.956 88.956 0 0 1-7.231 11.892l-1.13 1.638c-1.073 1.582-2.231 3.163-3.333 4.689l-1.073 1.469c-.819 1.13-1.525 2.344-2.231 3.531s-1.017 1.695-1.553 2.514c-.537.311-1.073.565-1.61.847a59.056 59.056 0 0 1-6.581 1.328l-2.542.4c-3.361.593-6.977 1.215-10.592 1.695-4.689.452-8.926.989-12.908 1.638l-3.672.621c-2.373.424-4.858.847-7.288 1.186l-3.672.48a33.182 33.182 0 0 0-3.3.819l-.763.2a134.494 134.494 0 0 0-8.3 2.6l-1.1.367c-2.994 1.045-6.073 2.118-9.01 3.446a65.839 65.839 0 0 0-7.655 4.209l-3.22 2.005-4.1 2.57a78.068 78.068 0 0 0-8.276 6.214c-4.124 3.474-8.474 7.033-12.88 10.394l-.763.565-3.671 2.514a41.652 41.652 0 0 1-5.819 3.7 39.537 39.537 0 0 1-6.779 1.921h-1.525a30.016 30.016 0 0 0-3.644.367H845a34.541 34.541 0 0 0-5.339.537l-2.316.621c-.847.226-1.695.48-2.57.65a11.361 11.361 0 0 1-2.4 0h-3.813c-1.78 0-3.644.226-5.48.254h-3.361c-1.13 0-2.825.141-4.322 0l-.254-1.638a346.256 346.256 0 0 0-.537-4.35 39.549 39.549 0 0 1 0-6.835 66.441 66.441 0 0 1 2.147-7.457l.424-1.271a4.263 4.263 0 0 1 .452-1.356 43.576 43.576 0 0 0 1.271-4.265c.593-2.6.96-5.282 1.271-7.655a25.956 25.956 0 0 0-1.554-11.807c-.2-.593-.424-1.186-.621-1.808l-.424-1.384a66.745 66.745 0 0 1-2.147-8.078 49.417 49.417 0 0 1 .254-6.158v-.932c.169-1.921.339-3.87.593-5.79s.621-3.615.96-5.423.734-4.1 1.073-6.158a8.626 8.626 0 0 1 .2-1.13l1.243-.593a36.717 36.717 0 0 0 4.067-2.344c.65-.424 1.384-.791 2.09-1.158l.678-.339c1.356-.706 2.825-1.469 4.435-2.4a156.233 156.233 0 0 0 18.021-11.863c1.554-1.186 3.135-2.316 4.717-3.446a103.867 103.867 0 0 0 10.225-8.107c2.034-1.892 3.926-3.87 5.649-5.649a34.147 34.147 0 0 0 5.96-8.474c1.017-2.147 1.921-4.35 2.825-6.5.311-.791.65-1.582.96-2.344 1.271-2.825 2.429-5.31 3.531-7.909a63.259 63.259 0 0 0 4.1-12.6c.706-3.813 1.243-7.287 1.638-10.592.254-1.892.367-3.813.452-5.649 0-1.13.141-2.26.226-3.418a27.847 27.847 0 0 0-.621-11.3 38.283 38.283 0 0 0-1.158-2.825 14.37 14.37 0 0 0-2.034-3.107l-.282-.367a18.831 18.831 0 0 0-3.389-3.135l-.621-.48c-1.864-1.469-3.983-2.825-6.835-4.83a37.459 37.459 0 0 0-3.3-1.808l-.283-.141a20.061 20.061 0 0 1-2.825-1.723 52.892 52.892 0 0 0-5.649-4.491 31.355 31.355 0 0 0-7-2.994l-2.57-.876-2.005-1.045a43.467 43.467 0 0 0-7.6-3.361H843l-1.384-.4-2.57-.791-1.017-.311a30.234 30.234 0 0 0-4.209-.932 11.3 11.3 0 0 0-7.626 1.5 29.908 29.908 0 0 0-3.644 2.825 76.574 76.574 0 0 0-5.48 5.367 47.338 47.338 0 0 0-9.66 17.738l-.847 2.825a129.812 129.812 0 0 1-4.83 13.7l-1.215 2.57a7.251 7.251 0 0 0-.226-1.13 18.539 18.539 0 0 0-1.073-3.277c-.254-.678-.508-1.328-.735-2.005s-.537-1.723-.791-2.6-.678-2.316-1.073-3.446a27.91 27.91 0 0 0-3.276-6.468 49.946 49.946 0 0 1-2.57-4.661l-.4-.819q-.847-1.638-1.779-3.3a20.891 20.891 0 0 0-1.864-2.825 19.771 19.771 0 0 1-1.3-2.118 20.432 20.432 0 0 1-.594-2.825 91.5 91.5 0 0 0-1.836-10.79 42.14 42.14 0 0 0-1.949-6.327c-.339-.763-.706-1.5-1.073-2.26s-.537-1.1-.791-1.666a44 44 0 0 1-1.469-7.4c-.141-.847-.255-1.695-.4-2.542a156.942 156.942 0 0 0-.847-5.028 37.694 37.694 0 0 0-2.289-7.033l-.932-2.373v-.424a18.755 18.755 0 0 0-1.441-3.164 10.281 10.281 0 0 0-6.1-4.435" transform="translate(-670.174 74.05)" style="fill:#b5a2e0"/>
        <path data-name="Path 433" d="M871.885 600.665h-13.418l-7.581-33.38s2.527-16.677 0-19.179-4.169-20.013-4.169-22.514-22.514-35.881-25.85-37.549-40.885-19.179-46.722-85.079l-5.837-65.875s-18.345 0-29.185-60.063v-39.7c0-3.361-3.942-61.478 8.617-53.443l6.115 3.891 7.783 74.517 8.895 33.354 3.891-152.345s15.565-4.447 16.121 5.054l-3.891 197.954 3.588 29.968s2.8 20.013 3.917 28.907-3.917 14.479 1.668 17.258 16.121-16.147 16.677-18.37.556-31.687.556-37.246v-26.678s0-6.115 4.447-5.054 1.668-2.78 6.115 5.054 4.447 5.054 5.054 12.786 3.891 36.69 3.335 40.581 0 19.457-3.891 22.262-3.891 2.224-6.671 10.107-7.783 8.895-10.562 10.562-10.107 7.227-10.107 7.227l10.107 9.45s47.808 55.591 46.7 56.728 2.779-131.245 2.779-131.245l-.556-32.849-15.01-12.786-12.23-12.811-5.559-13.9s-6.671-30.019-5.559-31.687 0-67.846 0-67.846 0-13.9.556-16.121 1.112-5.054 3.891-5.559a95.75 95.75 0 0 1 11.118-.556l2.78 5.559 1.112 11.118.556 52.281 1.112 22.236 1.112 14.454 2.779 13.342 5.559 10.562 6.671 7.808v-169.1l7.227-20.594a51.046 51.046 0 0 1 .556-12.23c1.112-7.783 2.779-17.688 2.779-17.688s4.447-22.236 2.779-30.019.758-12.23.379-15.565 6.292-5.559 6.292-5.559a43.642 43.642 0 0 1 9.476 12.786c2.779 6.671 2.224 47.252 2.224 47.252s-5.559 26.709-6.115 28.932-3.361 17.688-3.361 17.688L882.6 296.2v37.9l-.556 23.9 1.112 73.405v8.339l7.277-18.9s2.754-27.8 3.31-34.492 2.224-43.917 2.779-48.364 3.335-7.783 5.559-7.227 5.054 0 6.671 5.559 4.447 14.454 4.447 17.688-2.779 51.144-3.336 55.035-7.783 43.386-7.783 43.386-5.054 12.23-5.559 13.9-6.115 5.559-10.562 11.674-3.917 17.233-3.917 17.233l1.112 19.482 12.255-4.447S927.1 498.58 927.1 486.35s7.177-81.744 7.177-81.744v-87.277l-6.671-70.6s1.668-27.265 1.668-28.932c0-10.107-2.375-20.215 10.107-23.348a19.177 19.177 0 0 1 6.671.556s5.559 8.895 5.559 10.562v15.565l5.054 92.306s2.779 48.945 2.224 50.537 0 24.46 0 24.46 6.039-20.569 8.263-22.742 6.115-13.342 5.559-16.677-4.447-112.874-4.447-112.874l2.224-15.591 6.7-2.78 5.559 3.335 2.779 6.671L988.3 356.8l-2.224 13.9-5.054 13.9c-.606 1.668-8.92 18.9-8.92 18.9l-9.577 6.166-6.671 4.473-4.454 45.022-8.339 33.885-11.118 25.041s-17.233 9.451-18.9 10.107-16.121 7.783-17.688 8.894-11.118 7.227-11.118 7.227l-6.14 8.895-3.335 15.565s-2.779 13.9-2.779 17.233z" transform="translate(-602.697 -6.871)" style="fill:#ffdd4c"/>
    </g>
</svg>
