<svg xmlns="http://www.w3.org/2000/svg" width="245.92" height="548.496" viewBox="0 0 245.92 548.496">
    <path data-name="Path 2661" d="M499.871 859.856h-13.319l-7.2-33.26s2.52-16.63 0-19.149a73.134 73.134 0 0 1-4.175-22.461 217.778 217.778 0 0 0-25.773-37.507c-3.311-1.656-40.746-19.078-46.578-84.877L397 596.875s-18.358 0-29.156-59.968v-87.9l8.567-5.04 6.119 3.888 7.77 74.365 8.855 33.332 3.888-152.044s15.55-4.463 16.126 4.967l-3.887 197.542 3.312 29.948s2.808 20.013 3.887 28.8-3.887 14.4 1.656 17.206 16.126-16.126 16.7-18.286.5-31.676.5-37.219v-26.64s0-6.047 4.463-4.967 1.656-2.808 6.119 4.967 4.391 5.039 4.967 12.814 3.888 36.571 3.312 40.459 0 19.438-3.887 22.173-3.888 2.232-6.623 10.007a17.349 17.349 0 0 1-10.583 10.583c-2.736 1.656-9.935 7.2-9.935 7.2l9.935 9.431s47.73 55.5 46.65 56.584 2.745-130.952 2.745-130.952l-.5-32.756-14.974-12.742-12.246-12.742-5.543-13.894a241.561 241.561 0 0 1-5.543-31.6c1.08-1.656 0-67.743 0-67.743s0-13.822.576-16.054 1.08-4.967 3.887-5.543a91.613 91.613 0 0 1 11.087-.576l2.736 5.543 1.152 11.086.5 52.193 1.152 22.173 1.08 14.4 2.808 13.318 5.543 10.511 6.623 7.775V412.939l7.2-20.517a54.249 54.249 0 0 1 .576-12.239c1.152-7.775 2.808-17.782 2.808-17.782a123.815 123.815 0 0 0 2.736-29.948 58.473 58.473 0 0 1 .36-15.55c-.36-3.312 6.335-5.543 6.335-5.543a44.347 44.347 0 0 1 9.431 12.814c2.736 6.623 2.232 47.154 2.232 47.154s-5.543 26.637-6.119 28.8-3.312 17.709-3.312 17.709l1.656 138.15v37.8l-.576 23.829 1.08 73.214v8.351l7.2-18.862s2.736-27.788 3.312-34.411 2.232-43.842 2.736-48.306 3.384-7.7 5.543-7.2 5.039 0 6.7 5.543a104.465 104.465 0 0 1 4.464 17.781c0 3.312-2.808 51.041-3.384 54.929s-7.775 43.194-7.775 43.194-4.968 12.239-5.543 13.894-6.047 5.543-10.511 11.663a32.177 32.177 0 0 0-3.887 17.206l1.08 19.366 12.239-4.391s31.6-11.662 31.6-23.9 7.2-81.565 7.2-81.565v-87.117l-6.623-70.479s1.656-27.14 1.656-28.8.576-18.357.576-18.357a69.712 69.712 0 0 1 9.431-4.968 18.212 18.212 0 0 1 6.623.576 60.519 60.519 0 0 1 5.543 10.511v16.054l5.04 92.076s2.736 48.882 2.232 50.394 0 24.4 0 24.4c2.094-7.8 11.735-29.251 12.753-33.11.488-1.84-3.395-118.934-3.395-118.934l2.16-15.55 6.7-2.736 5.543 3.312 2.808 6.623.5 142.613c-3.281 9.206-13.822 32.756-29.948 43.266l-4.469 45.004-8.279 33.836-11.087 24.981s-17.206 9.431-18.862 9.935-16.126 7.775-17.781 8.927l-11.087 7.2-6.48 8.927-3.312 15.55s-2.808 13.894-2.808 17.206z" transform="translate(-367.84 -311.36)" style="fill:#82c8bb"/>
</svg>
