<svg xmlns="http://www.w3.org/2000/svg" width="411.922" height="430.629" viewBox="0 0 411.922 430.629">
    <path data-name="Path 2252" d="M139.02 373.187a5.281 5.281 0 0 0 1.828-.256c8.317-2.778 69.462-25.28 65.5-69.7-2.175-24.348-9.926-40.215-16.927-49.7a5.265 5.265 0 0 1 5.21-8.3c26.651 5.045 76.445 9.469 98.965-21.405 31.55-43.249 55.661-35.206 44.858-65.038s-3.656-42.153-47.728-67.342c-40.379-23.032-92.257-28.7-100.83-29.5a5.338 5.338 0 0 0-2.395.329c-5.356 2.1-27.2 11.48-27.73 25.719a66.89 66.89 0 0 1-.987 9.524 5.264 5.264 0 0 1-9.706 1.7c-6.069-10.09-15.794-26.4-22.191-36.139-9.857-14.979-19.271-21.479-26.4-25.467-4.935-2.724-8.134-10.273-9.615-14.624a5.283 5.283 0 0 0-4.625-3.546l-50.031-3.436a5.283 5.283 0 0 0-5.63 4.9l-9.231 136.327a5.283 5.283 0 0 0 .146 1.609c1.1 4.442 7 25.482 20.107 27.675 9.6 1.627 10.968 2.6 10.767 3.071a7.312 7.312 0 0 0-.749 2.431c-.274 5.594-1.133 20.729-2.066 22.667-1.152 2.395-8.847 6.8-12.521 17.4S15.743 277 12.819 283.709s-1.828 35.389-2.486 36.833 53.358 42.939 62.7 50.086a5.484 5.484 0 0 0 3.089 1.1z" transform="rotate(-14.98 269.39 89.858)" style="fill:#ffad8c"/>
</svg>
