<svg width="660" height="105" viewBox="0 0 660 105" fill="none" xmlns="http://www.w3.org/2000/svg">
<path d="M37.8043 104.386C30.7203 104.386 23.7903 103.565 17.0143 101.922C10.3409 100.279 4.95093 98.226 0.844266 95.762L9.62227 75.742C13.5236 78.1033 18.0923 80.0027 23.3283 81.44C28.5643 82.7747 33.6976 83.442 38.7283 83.442C43.6563 83.442 47.0443 82.9287 48.8923 81.902C50.8429 80.8753 51.8183 79.4893 51.8183 77.744C51.8183 76.1013 50.8943 74.9207 49.0463 74.202C47.3009 73.3807 44.9396 72.7647 41.9623 72.354C39.0876 71.9433 35.9049 71.4813 32.4143 70.968C28.9236 70.4547 25.3816 69.7873 21.7883 68.966C18.2976 68.042 15.0636 66.7073 12.0863 64.962C9.2116 63.114 6.9016 60.65 5.15627 57.57C3.41093 54.49 2.53827 50.5887 2.53827 45.866C2.53827 40.5273 4.07827 35.8047 7.15827 31.698C10.3409 27.4887 14.9609 24.2033 21.0183 21.842C27.0756 19.378 34.4676 18.146 43.1943 18.146C49.0463 18.146 54.9496 18.762 60.9043 19.994C66.9616 21.1233 72.0436 22.8687 76.1503 25.23L67.3723 45.096C63.2656 42.7347 59.1589 41.1433 55.0523 40.322C50.9456 39.398 47.0443 38.936 43.3483 38.936C38.4203 38.936 34.9296 39.5007 32.8763 40.63C30.9256 41.7593 29.9503 43.1453 29.9503 44.788C29.9503 46.4307 30.8229 47.714 32.5683 48.638C34.3136 49.4593 36.6236 50.1267 39.4983 50.64C42.4756 51.0507 45.7096 51.5127 49.2003 52.026C52.6909 52.4367 56.1816 53.104 59.6723 54.028C63.2656 54.952 66.4996 56.338 69.3743 58.186C72.3516 59.9313 74.7129 62.344 76.4583 65.424C78.2036 68.4013 79.0763 72.2513 79.0763 76.974C79.0763 82.1073 77.4849 86.7273 74.3023 90.834C71.2223 94.9407 66.6023 98.226 60.4423 100.69C54.3849 103.154 46.8389 104.386 37.8043 104.386ZM203.409 18.146C209.877 18.146 215.626 19.4807 220.657 22.15C225.79 24.7167 229.794 28.7207 232.669 34.162C235.646 39.6033 237.135 46.636 237.135 55.26L237.135 103L207.875 103L207.875 60.034C207.875 54.0793 206.746 49.7673 204.487 47.098C202.228 44.326 199.148 42.94 195.247 42.94C192.475 42.94 189.96 43.6073 187.701 44.942C185.442 46.2767 183.697 48.33 182.465 51.102C181.233 53.7713 180.617 57.262 180.617 61.574L180.617 103H151.357L151.357 60.034C151.357 54.0793 150.228 49.7673 147.969 47.098C145.813 44.326 142.733 42.94 138.729 42.94C135.854 42.94 133.288 43.6073 131.029 44.942C128.873 46.2767 127.128 48.33 125.793 51.102C124.561 53.7713 123.945 57.262 123.945 61.574V103H94.685L94.685 19.532L122.559 19.532L122.559 42.786L117.015 36.164C120.095 30.2093 124.304 25.7433 129.643 22.766C134.982 19.686 140.936 18.146 147.507 18.146C155.002 18.146 161.572 20.0967 167.219 23.998C172.968 27.7967 176.818 33.7513 178.769 41.862L169.221 39.86C172.198 33.084 176.664 27.7967 182.619 23.998C188.676 20.0967 195.606 18.146 203.409 18.146ZM309.577 103V87.446L307.575 83.596V54.952C307.575 50.332 306.138 46.79 303.263 44.326C300.491 41.7593 296.025 40.476 289.865 40.476C285.861 40.476 281.806 41.1433 277.699 42.478C273.592 43.71 270.102 45.4553 267.227 47.714L257.371 27.848C262.094 24.768 267.74 22.4067 274.311 20.764C280.984 19.0187 287.606 18.146 294.177 18.146C307.729 18.146 318.201 21.2773 325.593 27.54C333.088 33.7 336.835 43.402 336.835 56.646V103H309.577ZM284.937 104.386C278.264 104.386 272.617 103.257 267.997 100.998C263.377 98.7393 259.835 95.6593 257.371 91.758C255.01 87.8567 253.829 83.4933 253.829 78.668C253.829 73.5347 255.112 69.12 257.679 65.424C260.348 61.6253 264.404 58.7507 269.845 56.8C275.286 54.7467 282.319 53.72 290.943 53.72L310.655 53.72V68.966L294.947 68.966C290.224 68.966 286.888 69.736 284.937 71.276C283.089 72.816 282.165 74.8693 282.165 77.436C282.165 80.0027 283.14 82.056 285.091 83.596C287.042 85.136 289.711 85.906 293.099 85.906C296.282 85.906 299.156 85.136 301.723 83.596C304.392 81.9533 306.343 79.4893 307.575 76.204L311.579 86.984C310.039 92.7333 307.01 97.0967 302.493 100.074C298.078 102.949 292.226 104.386 284.937 104.386ZM358.304 103V19.532L386.178 19.532V43.864L382.02 36.934C384.484 30.6713 388.488 26 394.032 22.92C399.576 19.7373 406.301 18.146 414.206 18.146V44.48C412.871 44.2747 411.691 44.172 410.664 44.172C409.74 44.0693 408.713 44.018 407.584 44.018C401.629 44.018 396.804 45.6607 393.108 48.946C389.412 52.1287 387.564 57.3647 387.564 64.654V103H358.304ZM469.105 104.386C458.428 104.386 450.112 101.768 444.157 96.532C438.203 91.1933 435.225 83.1853 435.225 72.508V0.897993L464.485 0.897993V72.2C464.485 75.1773 465.307 77.5387 466.949 79.284C468.592 80.9267 470.697 81.748 473.263 81.748C476.754 81.748 479.731 80.8753 482.195 79.13L489.433 99.612C486.969 101.255 483.941 102.435 480.347 103.154C476.754 103.975 473.007 104.386 469.105 104.386ZM423.059 44.48V22.612L483.581 22.612V44.48H423.059ZM545.046 104.386C535.19 104.386 526.566 102.538 519.174 98.842C511.885 95.0433 506.187 89.91 502.08 83.442C498.076 76.8713 496.074 69.428 496.074 61.112C496.074 52.796 498.025 45.404 501.926 38.936C505.93 32.3653 511.423 27.2833 518.404 23.69C525.385 19.994 533.239 18.146 541.966 18.146C550.179 18.146 557.674 19.84 564.45 23.228C571.226 26.5133 576.616 31.39 580.62 37.858C584.624 44.326 586.626 52.18 586.626 61.42C586.626 62.4467 586.575 63.6273 586.472 64.962C586.369 66.2967 586.267 67.5287 586.164 68.658L520.098 68.658V53.258H570.61L559.522 57.57C559.625 53.7713 558.906 50.486 557.366 47.714C555.929 44.942 553.875 42.786 551.206 41.246C548.639 39.706 545.611 38.936 542.12 38.936C538.629 38.936 535.549 39.706 532.88 41.246C530.313 42.786 528.311 44.9933 526.874 47.868C525.437 50.64 524.718 53.9253 524.718 57.724V62.19C524.718 66.2967 525.539 69.8387 527.182 72.816C528.927 75.7933 531.391 78.1033 534.574 79.746C537.757 81.286 541.555 82.056 545.97 82.056C550.077 82.056 553.567 81.4913 556.442 80.362C559.419 79.13 562.345 77.282 565.22 74.818L580.62 90.834C576.616 95.2487 571.688 98.6367 565.836 100.998C559.984 103.257 553.054 104.386 545.046 104.386ZM603.117 103V19.532H630.991V43.864L626.833 36.934C629.297 30.6713 633.301 26 638.845 22.92C644.389 19.7373 651.113 18.146 659.019 18.146V44.48C657.684 44.2747 656.503 44.172 655.477 44.172C654.553 44.0693 653.526 44.018 652.397 44.018C646.442 44.018 641.617 45.6607 637.921 48.946C634.225 52.1287 632.377 57.3647 632.377 64.654V103H603.117Z" fill="url(#paint0_linear_114_800)"/>
<defs>
<linearGradient id="paint0_linear_114_800" x1="330" y1="-12.7892" x2="330" y2="122.443" gradientUnits="userSpaceOnUse">
<stop offset="0.296" stop-color="white"/>
<stop offset="0.391" stop-color="white"/>
<stop offset="1" stop-color="#EADAFF" stop-opacity="0"/>
</linearGradient>
</defs>
</svg>
