<svg xmlns="http://www.w3.org/2000/svg" width="980.879" height="544.09" viewBox="0 0 980.879 544.09">
    <g data-name="Group 16104">
        <path data-name="Path 2275" d="M729 550.308v-28.147s17.592-10.555 61.571-24.629 65.029-12.132 86.079 8.8 26.387 40.461 59.812 29.906 63.27-12.132 89.6-31.665 33.425-35.73 65.09-16.076 54.6 63.574 96.634 51.259 119.564-65.818 145.891-60.177v23.231l-91.356 47.5s-43.98 17.531-59.812 15.772-63.27-19.29-63.27-19.29l-29.846-24.265s-22.87-16.379-35.184-11.1a239.084 239.084 0 0 0-33.363 19.351c-5.278 3.519-14.074 10.555-26.388 17.592s-26.388 16.075-38.7 17.653-45.678 8.917-57.992 0-21.11-19.412-38.641-29.967-10.555-24.629-33.424-21.11-28.147-8.614-50.956 9.766A153.781 153.781 0 0 1 729 550.127" transform="translate(-434.106 -148.982)" style="fill:#fff"/>
        <path data-name="Path 2276" d="M729 585.744v-32.513s26.172-12.352 91.6-28.821 96.743-14.2 128.059 10.293 39.256 47.278 88.982 34.926 94.126-14.2 133.293-36.985 49.725-41.883 96.834-18.883 81.221 74.4 143.761 59.985S1589.4 496.8 1628.568 503.4v27.189L1492.659 586.1s-65.428 20.586-88.982 18.528-94.036-23-94.036-23l-44.4-28.4s-34.022-19.167-52.342-12.991a389.926 389.926 0 0 0-49.635 22.574c-7.851 4.117-20.937 12.352-39.257 20.587s-39.257 18.812-57.577 20.729-67.955 10.435-86.275 0-31.405-22.788-57.487-35.494-15.7-28.75-49.725-24.633-41.874-10.08-75.807 11.358a251.958 251.958 0 0 1-68.045 29.742" transform="translate(-729 -65.134)" style="fill:#fff"/>
        <path data-name="Path 2253" d="m1056.967 528.3-6.5-18.687-11.605-14.566-2.883-13.145 8.353-12.576 3.7-17.052v-2.2l.518-2.2-4.583-14.21-9.832-12.718-11.383-8.739-3.77-5.187 2.513-5.542 3.031-7.105v-6.253l-5.701-5.12-11.31-3.339-7.392-4.476-1.33-9.592-6.431-14.21-2.513-2.2-2.587-2.061-26.02-4.334-16.484 3.979-13.749 9.166-6.726-12.86V341.5l-.592-1.492-12.714-17.052-14.783-9.237-27.424-2.7-.813.5v.711l-22.545 17.763L839.5 344.2l-7.392 2.274-18.332-13-19.44-8.385-19.441 3.766-20.106 14.21-9.462 18.758-4.582 21.955-12.126 9.522-22.176-1.989-20.032 3.2-15.819 10.516-10.2 14.778-2.883 14.85 5.1 14.21 12.567 11.226 12.493 9.166-1.183 7.6-12.936 7.958-13.158 12.008L653 514.939l1.183 15.7 11.236 5.9 9.018 3.34 1.257 5.9v7.105l1.552 6.324 4.288 7.105 9.979 7.105 14.118 5.9 14.118 1.066 13.823-3.126 13.9-5.9 9.019 2.416 5.248 14.21 6.357 12.789 2.883 8.242-4.14 17.834-5.913 22.1-4.435 19.113-5.991 28.983-5.47 33.394-18.775 28.421-23.507 19.54-13.528 15.631-12.42 20.391-6.283 23.661 5.1 11.013 11.014-8.952 7.392-19.184 14.784-21.316L729.8 782.52l4.066 6.466-9.166 20.25-4.508 17.976-.667 16.556 8.057 8.668 9.24-2.416.369-6.323v-7.958l2.292-10.8 3.77-13.5 9.609-19.113 15.376-17.337 17.888-9.734 3.624 10.445-9.018 22.594-3.032 22.026.813 23.8 3.918 10.516 8.723-1.7 5.026-12.221-1.626-19.468 6.357-4.476 11.389 11.436 5.4 9.876 2.217 9.947 5.322 6.537 6.357-3.268 1.922-8.526-3.335-11.373-5.544-10.232L819.17 813l-5.47-4.477-7.393-5.4-3.917-9.663 4.361-9.166 8.871-13.216 17.149 2.558 17.371 16.7 13.453 20.818 9.536 26.715 10.5 12.718 7.392-4.121-1.774-17.337-5.84-23.163-7.392-16.7-9.683-13.642v-6.181l16.558 1.705 20.032 4.05 17.15 7.958 12.566 13.429 10.349 17.266 5.766 21.955 7.392 12.789 7.762-6.466-.813-21.315-5.996-23.373-7.023-15.063-14.266-17.834-2-1.137-11.088-8.171v-.924l-27.276-8.74-22.841-5.755-21.732-19.966-13.453-28.421-4.805-18.189-2-13.642 3.548-27.71 13.38-26.076 14.783 5.116 12.123 11.724 16.558 6.039 21.584 2.771 18.406-3.908 11.457-8.526 5.913-11.794 1.035-10.729 6.653-.568 15.3 4.334 20.476.995 23.728-2.487 19.367-9.805 13.009-21.742 9.535-39.079zM798.25 548.191l-4.582 9.663-4.953 9.876-4.435 10.3-9.757-3.766-10.274-18.758 2.217-16.982 8.575-13.642 5.766-9.379 4.065 1.776 9.092 16.129zm16.262-21.315h-7.392l-8.057-8.74-4.657-11.582 13.01-5.9 19.662 3.979 1.848 6.537-7.392 7.532zm59.135 7.815-3.847 12.647-2.587 12.789-1.848 11.936.666 7.745-5.987 5.968-14.784 5.684-14.783-.711-9.677-10.372 1.848-24.584v-.853l.518-.639 15.966-33.465v-.5l6.653-7.6 14.192 10.516 7.392 3.766zm36.959 17.976-3.4 9.734-8.574 7.105-9.831 5.9-5.175-4.618-1.256-13.358 1.109-11.084 2.883-10.516 5.618-6.537 7.761 2.913 7.392 8.882zm21.511-25.01-3.1 6.395-.518.5-6.8 4.05-4.435-1.137-5.1-7.958 6.874-10.161 12.862-2.986 3.03 3.34-2.513 7.105z" transform="translate(-76.604 -311.02)" style="fill:#b5a2e0"/>
    </g>
</svg>
