<svg width="30" height="30" viewBox="0 0 30 30" fill="none" xmlns="http://www.w3.org/2000/svg">
<path fill-rule="evenodd" clip-rule="evenodd" d="M15 28.125C22.2487 28.125 28.125 22.2487 28.125 15C28.125 7.75126 22.2487 1.875 15 1.875C7.75126 1.875 1.875 7.75126 1.875 15C1.875 17.3539 2.49468 19.5632 3.57982 21.4734L1.875 28.125L8.73268 26.5348C10.595 27.5488 12.7302 28.125 15 28.125ZM15 26.1058C21.1335 26.1058 26.1058 21.1335 26.1058 15C26.1058 8.86645 21.1335 3.89423 15 3.89423C8.86645 3.89423 3.89423 8.86645 3.89423 15C3.89423 17.3682 4.63547 19.5632 5.8986 21.3658L4.90385 25.0962L8.69993 24.1471C10.49 25.3824 12.6605 26.1058 15 26.1058Z" fill="white"/>
<path d="M11.7188 8.9063C11.4067 8.27951 10.928 8.335 10.4444 8.335C9.58009 8.335 8.23242 9.37026 8.23242 11.297C8.23242 12.876 8.92823 14.6046 11.2729 17.1903C13.5357 19.6857 16.5088 20.9765 18.9771 20.9326C21.4453 20.8887 21.9531 18.7646 21.9531 18.0473C21.9531 17.7294 21.7559 17.5708 21.6199 17.5277C20.7788 17.124 19.2275 16.3718 18.8745 16.2305C18.5215 16.0892 18.3372 16.2804 18.2227 16.3843C17.9026 16.6894 17.268 17.5884 17.0508 17.7906C16.8335 17.9928 16.5096 17.8905 16.3748 17.814C15.8788 17.615 14.534 17.0168 13.462 15.9776C12.1362 14.6924 12.0584 14.2503 11.8087 13.8567C11.6088 13.5418 11.7555 13.3486 11.8286 13.2642C12.1143 12.9346 12.5087 12.4258 12.6856 12.1729C12.8624 11.92 12.722 11.5361 12.6378 11.297C12.2754 10.2686 11.9684 9.40773 11.7188 8.9063Z" fill="white"/>
</svg>
