<svg xmlns="http://www.w3.org/2000/svg" width="444.257" height="748.515" viewBox="0 0 444.257 748.515">
    <path data-name="Path 2982" d="M783.686 830.371c.881-24.763 2.741-49.623 1.566-74.582a2.251 2.251 0 0 1 0-3.328c.489-19.575 4.5-39.15 0-58.726 1.859-13.8 13.7-23.1 16.835-36.7a43.382 43.382 0 0 1 7.047-14.877 341.328 341.328 0 0 0 33.666-47.081c-2.447-2.252 25.645-17.618 27.211-18.4a145.933 145.933 0 0 0 27.5-15.856c4.8-7.047 1.077-14.192 2.35-21.729s-3.328-12.724-5.285-18.89c-4.894-2.251-2.545-8.123-5.579-11.354a57.171 57.171 0 0 1-3.916-17.618c0-7.83-5.677-14.877-3.132-22.707 6.167-18.3 6.167-38.465 15.367-55.887a322.917 322.917 0 0 1 21.238-33.572 1.567 1.567 0 0 1 1.568-1.468 60.675 60.675 0 0 1 16.834-21.533 1.078 1.078 0 0 1 .979-.685c4.6-5.579 10.571-9.787 14.681-15.953h2.643c1.175-1.468 2.153-3.328 4.307-3.817 22.121-27.308 74.192-27.5 106.2-21.337 23.393 1.566 39.151 24.273 60.977 28.384a341.89 341.89 0 0 0 48.939 3.132c17.129 1.958 50.113-9 51.875 16.541h-1.468c-.783-1.37-2.251-1.174-3.426-1.664l-.586.489h-.686a92.532 92.532 0 0 1-18.693 1.86 76.434 76.434 0 0 0-29.364 1.076 66.721 66.721 0 0 0-21.631 3.426c-2.251.685-5.188 0-6.753 1.664-12.332 2.349-25.547 8.711-37.193 11.354a43.068 43.068 0 0 0-11.06 3.621 6.459 6.459 0 0 0-4.308 1.86 257.537 257.537 0 0 0-25.448 8.124 446.982 446.982 0 0 0-59.9 18.793v.489c-2.349 0-4.111 2.643-6.753 2.741l-4.5 3.034a97.9 97.9 0 0 0-18.107 14.877v.587h-.587c-.978 1.566-.978 3.719-3.034 4.5a1.56 1.56 0 0 1-.783 1.174 59.9 59.9 0 0 0-5.578 32.006c3.915 3.817 9.787 5.774 12.626 10.57a261.287 261.287 0 0 1 20.162 32.1c6.656 8.711 9.787 35.138 9.787 41.4-2.349 5.187.587 17.911 0 24.665a11.454 11.454 0 0 0-1.371 11.647 135.269 135.269 0 0 0 27.994 52.07 118.614 118.614 0 0 1 10.375 27.014c1.956 15.464 11.255 29.363 10.374 45.219-1.175 12.43-.588 24.958-1.175 37.389a241.617 241.617 0 0 0-2.152 35.725 53.044 53.044 0 0 1-3.038 29.862 6.95 6.95 0 0 1-3.523 5.187c2.545 13.7-15.758 50.6-22.806 74.679a80.657 80.657 0 0 0-5.677 32.1 256.37 256.37 0 0 1-8.319 40.325c-19.576 0-58.728-13.115-70.375 6.264a27.014 27.014 0 0 1-19.575 14.192 45.413 45.413 0 0 0-25.547 8.809 124.285 124.285 0 0 1-42.575 25.546c-13.41 6.264-10.67 26.524-24.372 32.4-3.523-32.984-17.031-64.794-20.456-97.876 0-42.283-9.788-83-17.913-124.4-4.107-1.471-8.121-2.352-6.457-6.855z" transform="translate(-783.3 -310.984)" style="fill:#f2d760"/>
</svg>
