<svg xmlns="http://www.w3.org/2000/svg" width="882.753" height="837.613" viewBox="0 0 882.753 837.613">
    <path data-name="Path 530@2x" d="M753.333 37.185a12.745 12.745 0 0 0-3.555-2.721C730.846 24.882 588.142-42 519.126 41.741c-37.828 45.906-51.675 86.78-55.913 115.32a12.96 12.96 0 0 1-3.248 6.839 12.665 12.665 0 0 1-6.481 3.8 12.536 12.536 0 0 1-7.464-.564 12.733 12.733 0 0 1-5.855-4.73C403.3 107.547 325.9 13.713 234.807 28.17 107.193 48.418 79.781-7.231 47.316 63.1s-65.678 79.282-33.464 199.152C43.445 372 122.286 471.59 135.537 487.816a12.9 12.9 0 0 0 4.647 3.574c12.724 5.632 65.988 27.208 91.187 3.481A161.9 161.9 0 0 1 249.3 480.1a12.554 12.554 0 0 1 14.457.1 12.872 12.872 0 0 1 4.62 6.087 13.069 13.069 0 0 1 .384 7.673c-6.862 27.966-58.2 76.139-63.906 104.074-8.728 42.966-20.363 83.531-15 102.764 3.773 13.257 22.187 29.559 17.292 39.651-1.094 2.28-.785 1.22-.457 3.735s8.732 15.023 10.372 16.937L254.6 787.61l64.745 45.688a12.619 12.619 0 0 0 17.962 1.264l248.337-219.973a12.9 12.9 0 0 0 2.495-3.036c5.706-9.586 31.529-56.219 12.911-82.7-13.6-19.425-14.283-23.474-13.129-23.948a17.566 17.566 0 0 0 5.426-2.911c10.01-9.206 37.3-33.915 42.195-35.654 6.05-2.152 26.7 3.543 51.055-8.444s112.954-40.88 129.39-47.429 63.5-58.086 67.082-59.447-17.774-166.66-21.517-195.2a13.5 13.5 0 0 0-3.4-7.245z" transform="translate(-.719 -.111)" style="fill:#f2d760"/>
</svg>
