<?xml version="1.0" encoding="utf-8"?>
<!-- Generator: Adobe Illustrator 24.2.3, SVG Export Plug-In . SVG Version: 6.00 Build 0)  -->
<svg version="1.1" id="Layer_1" xmlns="http://www.w3.org/2000/svg" xmlns:xlink="http://www.w3.org/1999/xlink" x="0px" y="0px"
	 viewBox="0 0 408.86 54.4" style="enable-background:new 0 0 408.86 54.4;" xml:space="preserve">
<style type="text/css">
	.st0{fill:#0D1221;}
</style>
<g>
	<rect x="14.07" y="2.07" class="st0" width="9.19" height="8.1"/>
	<rect x="2.87" y="2.07" class="st0" width="9.19" height="8.1"/>
	<path class="st0" d="M22.29,17.12c-2.01-1.55-5-2.53-9.88-2.53H0v8.79h1.9c-1.09,1.67-1.72,3.68-1.72,6.2
		c0,7.18,4.94,11.72,12.98,11.72c7.98,0,13.67-5.23,13.67-13.84C26.82,23.21,25.56,19.59,22.29,17.12z M13.5,32.63
		c-2.7,0-4.25-1.95-4.25-4.54c0-2.53,1.49-4.42,4.19-4.42c2.76,0,4.19,1.84,4.19,4.42C17.63,30.62,16.26,32.63,13.5,32.63z"/>
	<rect x="70.94" y="44.34" class="st0" width="9.19" height="8.1"/>
	<rect x="59.74" y="44.34" class="st0" width="9.19" height="8.1"/>
	<rect x="110.46" y="2.07" class="st0" width="9.19" height="8.1"/>
	<path class="st0" d="M203.63,25.1c0,2.93-0.23,4.42-0.86,5.34c-0.75,1.03-1.9,1.26-3.33,1.26h-1.67h-14.65h-1.67
		c-0.86,0-1.61-0.06-2.3-0.23c-0.17-8.27-5.28-12.52-12.81-12.52c-5.4,0-9.19,1.95-11.14,6.32c-0.92,2.07-1.26,4.25-2.3,5.46
		c-0.75,0.86-1.67,0.98-2.81,0.98h-0.92h-14.65h-2.3h-6.03c0.75-0.34,1.32-0.86,2.01-1.84c0.46-0.69,0.8-1.32,1.09-2.01
		c0.75-1.9,1.26-3.5,1.26-5.23c0-5-3.45-8.04-9.48-8.04h-21.6v7.87c2.3,0,3.16,0.63,4.19,2.7l3.27,6.55h-8.21h-2.3H81.8h-1.72
		c-3.33,0-4.59-1.32-4.59-4.77v-8.27H64.45h-2.3H47.5h-2.3H33.09V35.1c0,7.29-2.01,9.19-7.98,10.51l2.93,8.79
		c9.77-2.7,14.25-7.75,14.25-18.84v-7.7h2.93h2.3h14.65h2.3h2.3c0.34,8.9,5.17,13.04,12.06,13.04h0.69h2.3h14.65h2.3h33.49h2.3
		h14.65h2.3h0.29c1.26,0,2.53-0.52,3.27-1.67c1.67,3.33,4.94,5.8,10.74,5.8c5.17,0,8.67-1.9,10.8-4.65
		c1.38,0.35,2.76,0.52,4.19,0.52h0.06h2.3h14.65h2.3h1.15c4.14,0,7.64-1.61,9.65-5c1.38-2.35,1.95-5.05,1.95-10.22V0h-9.19V25.1z
		 M120.57,27.92c-0.4,0.86-0.98,1.84-1.72,2.76c-0.57,0.75-1.03,1.03-1.95,1.03h-1.09l-3.68-8.44h5.86c1.78,0,3.16,0.57,3.16,2.53
		C121.14,26.42,120.91,27.11,120.57,27.92z M166.06,36.42c-2.87,0-3.96-1.72-3.96-4.25c0-2.3,1.15-4.19,4.02-4.19
		c2.99,0,3.96,1.78,3.96,4.19C170.08,34.69,168.99,36.42,166.06,36.42z"/>
	<rect x="219.42" class="st0" width="9.19" height="40.9"/>
	<path class="st0" d="M323.22,20.56l-3.91-3.22c-2.53-2.13-5.11-3.33-8.85-3.33c-4.31,0-7.41,1.78-9.76,4.77l3.96,6.61
		c1.38-1.26,2.87-2.13,4.82-2.13c1.9,0,3.1,0.75,4.31,1.72l1.55,1.21c0.8,0.63,1.61,1.09,2.76,1.38c-1.03,0.4-1.95,0.86-2.81,1.55
		l-1.38,1.03c-1.44,1.03-3.33,1.55-5.97,1.55h-7.01h-2.3h-14.65h-1.26c-3.27,0-4.42-1.67-4.42-5.63V4.42h-9.13v30.44
		c0,5.4-1.49,8.16-6.61,8.16c-4.48,0-6.84-2.76-6.84-7.98v-4.31h-9.19v4.94c0,9.42,4.25,16.54,15.85,16.54
		c10.05,0,14.47-5.23,15.62-12.58c1.03,0.8,2.18,1.26,3.68,1.26h2.3h14.65h2.3h5.8c5.97,0,9.25-1.49,11.89-3.5l4.42-3.39
		c1.9-1.44,3.33-1.78,5.05-1.78h2.53v-9.71h-2.47C326.38,22.52,324.65,21.77,323.22,20.56z"/>
	<path class="st0" d="M399.9,18.67v10.45c0,1.78-0.57,3.1-2.53,3.1c-1.95,0-2.53-1.32-2.53-3.1v-8.33h-9.19v8.39
		c0,1.72-0.57,3.04-2.53,3.04s-2.59-1.32-2.59-3.04v-6.09h-9.19v3.5c0,3.68-1.03,5.11-4.54,5.11h-1.09h-14.65h-1.09
		c-1.84,0-3.1-0.46-3.85-1.55c-0.63-0.86-0.92-2.13-0.92-5.05V0h-9.19v25.68c0,5.17,0.69,7.93,2.01,10.28
		c1.95,3.39,5.46,4.94,10.17,4.94h0.57h2.3h14.65h2.3c2.99,0,5.28-1.32,6.32-3.5c1.15,2.3,3.39,3.85,7.29,3.85
		c4.14,0,6.26-1.78,7.41-3.85c1.21,2.07,3.79,3.85,8.56,3.85c6.09,0,11.26-3.33,11.26-11.95V18.67H399.9z"/>
</g>
</svg>
