<svg xmlns="http://www.w3.org/2000/svg" width="330.444" height="23.176" viewBox="0 0 330.444 23.176">
    <path data-name="Path 2629" d="M15.956 19.831H8.62l-.9 3.023H0L7.3.59h10.32l7.336 22.264h-8.018zm-2.574-8.844c-.642-2.42-1.1-4.345-1.1-4.345h-.155s-.34 1.925-.982 4.345l-.789 3.061h3.819z" transform="translate(0 -.134)" style="fill:#fff"/>
    <path data-name="Path 2630" d="M42.666.59v15.616h7.754v6.656h-15.5V.59z" transform="translate(-7.925 -.134)" style="fill:#fff"/>
    <path data-name="Path 2631" d="M77.386 18.811 76.1 16.09c-.642-1.322-1.361-3.324-1.361-3.324h-.155s.116 1.894.116 3.934v6.161h-7.75V.59h8.434l2.3 4.839a32.412 32.412 0 0 1 1.7 4.12h.155a32.411 32.411 0 0 1 1.7-4.12L83.548.59h8.434v22.264h-7.754v-6.161c0-2.041.116-3.935.116-3.935h-.155s-.719 2-1.361 3.324L81.545 18.8h-4.159z" transform="translate(-15.194 -.134)" style="fill:#fff"/>
    <path data-name="Path 2632" d="M103.73 14.234V.59h7.754v12.856c0 1.778.379 3.556 2.5 3.556s2.5-1.778 2.5-3.556V.59h7.754v13.644c0 6.88-4.383 9.076-10.243 9.076-5.882 0-10.265-2.195-10.265-9.076z" transform="translate(-23.541 -.134)" style="fill:#fff"/>
    <path data-name="Path 2633" d="M155.5 10.2v12.52h-5.179l-.8-2.458c-.943 1.894-2.984 2.914-6.123 2.914-5.481 0-9.98-3.363-9.98-11.5C133.42 4.236 137.347 0 144.915 0c5.064 0 8.882 2.381 9.98 6.161l-7.414 3.061C147.3 7.707 146.5 6.5 144.8 6.5c-1.964 0-3.324 1.283-3.324 5.218 0 3.44.9 5.257 3.517 5.257 1.817 0 2.721-.758 2.721-1.739v-.193h-2.644V10.2z" transform="translate(-30.279)" style="fill:#fff"/>
    <path data-name="Path 2634" d="M166.48 22.854V.59h7.754v7.638h5.366V.59h7.754v22.264H179.6v-7.978h-5.365v7.978z" transform="translate(-37.781 -.134)" style="fill:#fff"/>
    <path data-name="Path 2635" d="M215.23 22.854h-16.86V.59h16.714v6.347h-9.269v2h8.241V14.5h-8.241v2h9.416z" transform="translate(-45.019 -.134)" style="fill:#fff"/>
    <path data-name="Path 2636" d="M232.084.59v22.264h-7.754V.59z" transform="translate(-50.91 -.134)" style="fill:#fff"/>
    <path data-name="Path 2637" d="M251.807 22.854a5.068 5.068 0 0 1-1.245-2.76l-.379-1.739c-.263-1.322-.835-1.739-1.925-1.739h-1.4v6.239h-7.6V.59h10.776c5.1 0 8.921 1.855 8.921 7.182 0 3.7-1.817 5.334-4.5 5.782v.155c1.964.3 2.945 1.283 3.517 3.285l.835 2.945a5.986 5.986 0 0 0 1.515 2.914h-8.519zm-4.955-12.1h2.265A1.669 1.669 0 0 0 251.01 8.9a1.642 1.642 0 0 0-1.817-1.778h-2.342v3.633z" transform="translate(-54.298 -.134)" style="fill:#fff"/>
    <path data-name="Path 2638" d="M282.646 19.831h-7.336l-.9 3.023h-7.72L273.988.59h10.32l7.336 22.264h-8.017zm-2.574-8.844c-.642-2.42-1.1-4.345-1.1-4.345h-.155s-.34 1.925-.982 4.345l-.789 3.061h3.819z" transform="translate(-60.523 -.134)" style="fill:#fff"/>
    <path data-name="Path 2639" d="M301.61 22.854V.59h7.754v7.638h5.365V.59h7.754v22.264h-7.754v-7.978h-5.365v7.978z" transform="translate(-68.448 -.134)" style="fill:#fff"/>
    <path data-name="Path 2640" d="M356.825 11.552a5.162 5.162 0 0 1 4.654 5.4c0 3.479-2.5 5.9-7.939 5.9h-11.72V.59h11.72c4.5 0 6.919 2.3 6.919 5.86 0 2.76-1.361 4.422-3.626 4.917v.186zm-5.636-2c1.214 0 1.739-.417 1.739-1.477 0-1.1-.456-1.7-1.662-1.7H349.3V9.55zm-1.889 7.481h2.5c1.322 0 1.778-.495 1.778-1.515s-.526-1.623-1.778-1.623h-2.5z" transform="translate(-77.573 -.134)" style="fill:#fff"/>
    <path data-name="Path 2641" d="M383.886 19.831h-7.336l-.9 3.023h-7.72L375.228.59h10.32l7.336 22.264h-8.017zm-2.574-8.844c-.642-2.42-1.1-4.345-1.1-4.345h-.155s-.34 1.925-.982 4.345l-.789 3.061h3.819z" transform="translate(-83.499 -.134)" style="fill:#fff"/>
    <path data-name="Path 2642" d="M408.693 8.259a24.526 24.526 0 0 1 1.855-4.383l1.7-3.285h8.164l-8.125 14.974v7.3h-7.715v-7.3L396.44.59h8.434l1.7 3.285a34.776 34.776 0 0 1 1.964 4.383z" transform="translate(-89.969 -.134)" style="fill:#fff"/>
</svg>
