<svg id="Arabic_Version" data-name="Arabic Version" xmlns="http://www.w3.org/2000/svg" width="408.85" height="54.4" viewBox="0 0 408.85 54.4">
  <rect id="Rectangle_60" data-name="Rectangle 60" width="9.19" height="8.1" transform="translate(14.07 2.07)" fill="#fff"/>
  <rect id="Rectangle_61" data-name="Rectangle 61" width="9.19" height="8.1" transform="translate(2.87 2.07)" fill="#fff"/>
  <path id="Path_2989" data-name="Path 2989" d="M22.29,17.12c-2.01-1.55-5-2.53-9.88-2.53H0v8.79H1.9a11,11,0,0,0-1.72,6.2c0,7.18,4.94,11.72,12.98,11.72,7.98,0,13.67-5.23,13.67-13.84C26.82,23.21,25.56,19.59,22.29,17.12ZM13.5,32.63c-2.7,0-4.25-1.95-4.25-4.54,0-2.53,1.49-4.42,4.19-4.42,2.76,0,4.19,1.84,4.19,4.42C17.63,30.62,16.26,32.63,13.5,32.63Z" fill="#fff"/>
  <rect id="Rectangle_62" data-name="Rectangle 62" width="9.19" height="8.1" transform="translate(70.94 44.34)" fill="#fff"/>
  <rect id="Rectangle_63" data-name="Rectangle 63" width="9.19" height="8.1" transform="translate(59.74 44.34)" fill="#fff"/>
  <rect id="Rectangle_64" data-name="Rectangle 64" width="9.19" height="8.1" transform="translate(110.46 2.07)" fill="#fff"/>
  <path id="Path_2990" data-name="Path 2990" d="M203.63,25.1c0,2.93-.23,4.42-.86,5.34-.75,1.03-1.9,1.26-3.33,1.26H181.45a9.583,9.583,0,0,1-2.3-.23c-.17-8.27-5.28-12.52-12.81-12.52-5.4,0-9.19,1.95-11.14,6.32-.92,2.07-1.26,4.25-2.3,5.46a3.314,3.314,0,0,1-2.81.98h-23.9a4.872,4.872,0,0,0,2.01-1.84,11.681,11.681,0,0,0,1.09-2.01,14.093,14.093,0,0,0,1.26-5.23c0-5-3.45-8.04-9.48-8.04H99.47v7.87c2.3,0,3.16.63,4.19,2.7l3.27,6.55H80.08c-3.33,0-4.59-1.32-4.59-4.77V18.67H33.09V35.1c0,7.29-2.01,9.19-7.98,10.51l2.93,8.79c9.77-2.7,14.25-7.75,14.25-18.84v-7.7H66.77c.34,8.9,5.17,13.04,12.06,13.04H151.8a3.8,3.8,0,0,0,3.27-1.67c1.67,3.33,4.94,5.8,10.74,5.8,5.17,0,8.67-1.9,10.8-4.65a16.876,16.876,0,0,0,4.19.52h20.46c4.14,0,7.64-1.61,9.65-5,1.38-2.35,1.95-5.05,1.95-10.22V0h-9.19V25.1Zm-83.06,2.82a13.737,13.737,0,0,1-1.72,2.76,2.116,2.116,0,0,1-1.95,1.03h-1.09l-3.68-8.44h5.86c1.78,0,3.16.57,3.16,2.53A6,6,0,0,1,120.57,27.92Zm45.49,8.5c-2.87,0-3.96-1.72-3.96-4.25,0-2.3,1.15-4.19,4.02-4.19,2.99,0,3.96,1.78,3.96,4.19C170.08,34.69,168.99,36.42,166.06,36.42Z" fill="#fff"/>
  <rect id="Rectangle_65" data-name="Rectangle 65" width="9.19" height="40.9" transform="translate(219.42)" fill="#fff"/>
  <path id="Path_2991" data-name="Path 2991" d="M323.22,20.56l-3.91-3.22a12.76,12.76,0,0,0-8.85-3.33,11.746,11.746,0,0,0-9.76,4.77l3.96,6.61a6.953,6.953,0,0,1,4.82-2.13,6.411,6.411,0,0,1,4.31,1.72l1.55,1.21a6.966,6.966,0,0,0,2.76,1.38,10.278,10.278,0,0,0-2.81,1.55l-1.38,1.03a9.9,9.9,0,0,1-5.97,1.55H282.72c-3.27,0-4.42-1.67-4.42-5.63V4.42h-9.13V34.86c0,5.4-1.49,8.16-6.61,8.16-4.48,0-6.84-2.76-6.84-7.98V30.73h-9.19v4.94c0,9.42,4.25,16.54,15.85,16.54,10.05,0,14.47-5.23,15.62-12.58a5.711,5.711,0,0,0,3.68,1.26h25.05c5.97,0,9.25-1.49,11.89-3.5L323.04,34a7.548,7.548,0,0,1,5.05-1.78h2.53V22.51h-2.47A7.672,7.672,0,0,1,323.22,20.56Z" fill="#fff"/>
  <path id="Path_2992" data-name="Path 2992" d="M399.9,18.67V29.12c0,1.78-.57,3.1-2.53,3.1s-2.53-1.32-2.53-3.1V20.79h-9.19v8.39c0,1.72-.57,3.04-2.53,3.04s-2.59-1.32-2.59-3.04V23.09h-9.19v3.5c0,3.68-1.03,5.11-4.54,5.11H349.97c-1.84,0-3.1-.46-3.85-1.55-.63-.86-.92-2.13-.92-5.05V0h-9.19V25.68c0,5.17.69,7.93,2.01,10.28,1.95,3.39,5.46,4.94,10.17,4.94h19.82c2.99,0,5.28-1.32,6.32-3.5,1.15,2.3,3.39,3.85,7.29,3.85,4.14,0,6.26-1.78,7.41-3.85,1.21,2.07,3.79,3.85,8.56,3.85,6.09,0,11.26-3.33,11.26-11.95V18.67Z" fill="#fff"/>
</svg>
