<svg width="257" height="47" viewBox="0 0 257 47" fill="none" xmlns="http://www.w3.org/2000/svg">
<g clip-path="url(#clip0_114_770)">
<path d="M96.3994 9.15614H117.238C117.609 9.15614 117.887 9.48728 117.825 9.84923L117.099 14.1233C117.052 14.4082 116.805 14.6161 116.511 14.6161H109.926C109.64 14.6161 109.385 14.8241 109.338 15.109L105.45 37.0645C105.396 37.3494 105.149 37.5573 104.863 37.5573H99.1356C98.7646 37.5573 98.4863 37.2262 98.5482 36.8566L102.359 15.3169C102.421 14.955 102.142 14.6161 101.771 14.6161H95.6419C95.2709 14.6161 94.9927 14.285 95.0545 13.9153L95.8197 9.6413C95.8738 9.35636 96.1212 9.14844 96.4072 9.14844L96.3994 9.15614Z" fill="white"/>
<path d="M159.641 37.8347C153.473 37.8347 148.897 35.0316 149.238 29.6024C149.253 29.2944 149.524 29.0556 149.833 29.0556C151.162 29.0556 154.54 29.0556 155.916 29.0556C156.225 29.0556 156.488 29.2944 156.503 29.6024C156.58 31.2812 157.709 32.3748 159.842 32.3748C161.975 32.3748 163.251 31.4814 163.251 29.7487C163.251 25.1743 151.069 26.2679 150.992 17.8584C150.907 12.1135 155.622 8.75586 162.076 8.75586C168.105 8.75586 172.24 11.7592 172.062 16.6879C172.054 17.0036 171.776 17.25 171.459 17.25C170.107 17.25 166.659 17.25 165.253 17.25C164.936 17.25 164.673 16.9959 164.665 16.6802C164.627 15.2093 163.552 14.2159 161.713 14.2159C159.765 14.2159 158.42 15.2247 158.42 16.8419C158.42 21.2083 170.725 20.7694 170.725 29.1403C170.725 34.1537 166.505 37.8347 159.641 37.8347Z" fill="white"/>
<path d="M186.648 27.3614H182.845C182.559 27.3614 182.311 27.5693 182.257 27.8542L180.603 37.0646C180.549 37.3495 180.302 37.5575 180.016 37.5575H174.281C173.91 37.5575 173.631 37.2263 173.693 36.8567L178.516 9.64911C178.57 9.36418 178.818 9.15625 179.104 9.15625H189.847C196.835 9.15625 199.633 13.0837 198.698 18.2973C197.886 22.9872 193.905 27.3614 186.64 27.3614H186.648ZM187.049 21.9399C189.847 21.9399 191.231 20.4844 191.641 18.2973C192.043 16.1102 191.115 14.6547 188.348 14.6547H185.078C184.785 14.6547 184.537 14.8627 184.491 15.1476L183.44 21.2391C183.378 21.601 183.656 21.9322 184.027 21.9322H187.057L187.049 21.9399Z" fill="white"/>
<path d="M234.816 9.15614H255.655C256.026 9.15614 256.304 9.48728 256.242 9.84923L255.516 14.1233C255.469 14.4082 255.222 14.6161 254.928 14.6161H248.343C248.057 14.6161 247.802 14.8241 247.755 15.109L243.867 37.0645C243.813 37.3494 243.566 37.5573 243.28 37.5573H237.553C237.182 37.5573 236.903 37.2262 236.965 36.8566L240.776 15.3169C240.838 14.955 240.559 14.6161 240.188 14.6161H234.059C233.688 14.6161 233.41 14.285 233.472 13.9153L234.237 9.6413C234.291 9.35636 234.538 9.14844 234.824 9.14844L234.816 9.15614Z" fill="white"/>
<path d="M221.831 16.711C221.46 16.8265 221.29 17.2577 221.499 17.5812C222.148 18.5746 222.488 19.8376 222.488 21.3316C222.488 26.7145 219.033 31.4429 213.514 31.4429C209.495 31.4429 207.3 29.0171 207.3 25.1743C207.3 19.7529 210.747 15.1015 216.312 15.1015C216.761 15.1015 217.186 15.14 217.588 15.2016L220.54 9.9033C220.734 9.55676 220.54 9.1101 220.146 9.03309C219.219 8.84827 218.237 8.75586 217.194 8.75586C207.323 8.75586 200.344 15.8331 200.344 25.9059C200.344 32.9831 205.136 37.8424 212.44 37.8424C222.426 37.8424 229.375 30.642 229.375 20.5692C229.375 18.6054 229.004 16.8265 228.308 15.2709C228.185 14.9936 227.868 14.8627 227.582 14.9551L221.808 16.7187L221.831 16.711Z" fill="white"/>
<path d="M139.352 16.711C138.981 16.8265 138.811 17.2577 139.019 17.5812C139.669 18.5746 140.009 19.8376 140.009 21.3316C140.009 26.7145 136.554 31.4429 131.035 31.4429C127.016 31.4429 124.821 29.0171 124.821 25.1743C124.821 19.7529 128.268 15.1015 133.833 15.1015C134.281 15.1015 134.706 15.14 135.108 15.2016L138.061 9.9033C138.254 9.55676 138.061 9.1101 137.667 9.03309C136.739 8.84827 135.758 8.75586 134.714 8.75586C124.844 8.75586 117.864 15.8331 117.864 25.9059C117.864 32.9831 122.656 37.8424 129.961 37.8424C139.947 37.8424 146.896 30.642 146.896 20.5692C146.896 18.6054 146.525 16.8265 145.829 15.2709C145.705 14.9936 145.388 14.8627 145.102 14.9551L139.329 16.7187L139.352 16.711Z" fill="white"/>
<path d="M83.4221 16.711C83.0511 16.8265 82.881 17.2577 83.0897 17.5812C83.739 18.5746 84.0791 19.8376 84.0791 21.3316C84.0791 26.7145 80.6241 31.4429 75.1053 31.4429C71.0861 31.4429 68.891 29.0171 68.891 25.1743C68.891 19.7529 72.3382 15.1015 77.9033 15.1015C78.3516 15.1015 78.7768 15.14 79.1787 15.2016L82.1313 9.9033C82.3245 9.55676 82.1313 9.1101 81.7371 9.03309C80.8096 8.84827 79.8279 8.75586 78.7845 8.75586C68.9141 8.75586 61.9346 15.8331 61.9346 25.9059C61.9346 32.9831 66.7267 37.8424 74.0309 37.8424C84.0172 37.8424 90.9659 30.642 90.9659 20.5692C90.9659 18.6054 90.5949 16.8265 89.8992 15.2709C89.7756 14.9936 89.4587 14.8627 89.1727 14.9551L83.3989 16.7187L83.4221 16.711Z" fill="white"/>
<path d="M7.28858 28.2473C7.28858 25.2363 7.28858 22.2175 7.31177 19.2064C7.31177 18.8522 7.12626 18.8522 6.8712 18.8522C4.78428 18.8522 2.69736 18.8522 0.618179 18.8522C0.432675 18.8522 0.254901 18.8368 0.0616682 18.8291C1.50705 10.2964 9.20545 1.43255 20.297 0.169588C34.318 -1.42451 44.4202 8.72537 46.2598 18.8368H39.0252C39.0097 18.9985 38.9865 19.0755 38.9865 19.1602C38.9865 22.1174 38.9865 25.0745 38.9865 28.0317C38.9865 28.101 38.9942 28.178 39.002 28.2473C35.3151 28.2473 31.6205 28.2473 27.9181 28.2473V39.2366C28.1036 39.1827 28.2428 39.1519 28.3819 39.1057C32.8572 37.5424 36.1112 34.6238 38.1363 30.3574C38.4609 29.672 38.7082 28.9481 38.9865 28.2396C39.1256 28.2242 39.2725 28.2011 39.4116 28.2011C41.5372 28.2011 43.6705 28.2011 45.796 28.2011C45.9352 28.2011 46.082 28.2011 46.2907 28.2011C45.2936 32.8833 43.1449 36.8724 39.7826 40.207C36.459 43.503 32.4861 45.6131 27.8331 46.5911V39.3599H18.4497V46.5911C13.7503 45.6054 9.76196 43.4722 6.4229 40.1454C3.09156 36.8262 0.965998 32.8525 -0.015625 28.2396C0.146691 28.2242 0.239442 28.2011 0.339924 28.2011C2.5737 28.2011 4.79974 28.2011 7.03351 28.2011C7.11853 28.2011 7.20356 28.2242 7.28858 28.2396C7.33495 28.3398 7.38906 28.4399 7.42771 28.5477C9.06632 33.3146 12.189 36.7107 16.842 38.7053C17.329 38.9132 17.8314 39.0749 18.3801 39.2751V28.2705C18.3029 28.255 18.2642 28.2473 18.2178 28.2473C14.5696 28.2473 10.9214 28.2473 7.27312 28.2473H7.28858ZM38.8937 18.7597C37.116 12.3294 30.2601 6.14555 21.1472 7.21598C16.8807 7.71655 13.3561 9.67259 10.5581 12.9147C9.08951 14.6243 8.03059 16.565 7.3736 18.7597H38.8937Z" fill="white"/>
</g>
<defs>
<clipPath id="clip0_114_770">
<rect width="256.25" height="46.5909" fill="white"/>
</clipPath>
</defs>
</svg>
